<?xml version="1.0" encoding="UTF-8"?>
<svg id="Ebene_1" data-name="Ebene 1" xmlns="http://www.w3.org/2000/svg" viewBox="0 0 67.618456 208.363734">
  <defs>
    <style>
      .cls-1 {
        fill: #010101;
      }
    </style>
  </defs>
  <path class="cls-1" d="M66.878607,79.659462c0-.599998-.399994-1.199997-.399994-1.800003-1.100006-14.099998-3-28.099998-5.899994-41.700001-2-9.4-4.399994-18.5-7.700012-27.200001-.700012-1.8-1.899994-5.2-2.600006-6.7-.399994-.8-1.399994-1.2-2.399994-1.3.100006-.3.200012-.6.299988-.8-.899994-.3-2-.2-2.5.5h-.799988.799988s-.100006.2-.200012.3c-.899994.3-2,.3-2.899994.3h-4.200012c-4.299988,0-8,.3-12.5-.2-7.399994-.4-12.700012.2-21.100006-.3-.200012-.1-.600006-.3-1.100006-.4-.600006,0-1,0-1.200012.2.200012.4.299988.8.5,1.2.100006.2.200012.5.299988.7.399994.9.700012,1.8,1.100006,2.7.100006.3.200012.6.399994.9.299988.8.600006,1.5.899994,2.3.100006.3.200012.6.299988.9v.1c.200012.2.200012.4.200012.7.200012.5.299988,1.1.5,1.6,0,.2,0,.3.100006.5.100006.1.200012.3.100006.5h0c.100006.4.299988.9.399994,1.3.299988.1.399994.6.5,1v.2s-.200012,0-.200012.1l.200012.7c0,.2,0,.3.100006.499999h.299988c0,.200001-.100006.299999-.200012.299999,0,.299999.200012.6.299988.9v.299999l.5.700001v.200001c.100006.1,0,.200001-.100006.4.100006.4.200012.9.399994,1.299999.200012,0,.299988.299999.399994.6v.900002c.200012.799999.399994,1.700001.600006,2.5,0,.299999.100006.5.200012.799999.100006.6.200012,1.200001.299988,1.799999.100006,0,.200012.200001.299988.5v.4h0c0,.1.100006.299999.200012.4.299988.799999.600006,1.700001.799988,2.6,0,.299999.100006.6.200012.9.200012.9.299988,1.9.399994,2.800001v1.300003c.200012.200001.200012.5.100006.900002,0,.400002.200012.799999.200012,1.299999,0,.200001,0,.5.100006.700001,0,0,.200012.099998.200012.299999v.400002s0,.099998-.100006.200001c0,.5.200012,1.099998.200012,1.599998h0c.200012,0,.200012.400002.200012.900002h0s0,.099998-.100006.200001v1.200001c.200012.200001.299988.599998.299988.900002v1h-.100006v.200001c.200012.200001.299988.400002.299988.700001s0,.599998.100006.900002c0,.200001,0,.5.100006.700001.100006.799999.299988,1.5.5,2.299999,0,.299999.100006.599998.200012.900002.200012.799999.299988,1.599998.399994,2.5,0,.299999,0,.599998.100006.900002v.599998c0,.599998,0,1.099998.100006,1.700001v1c0,.900002.100006,1.799999.200012,2.700001v1.5h0v2.299999c0,.800003.100006,1.599998.100006,2.5v.900002c0,.800003,0,1.599998.100006,2.300003v.900002c0,.800003,0,1.599998.100006,2.400002h0c-.299988,0-.5.099998-.399994.199997,0,0,.200012,0,.399994.099998h0v1.599998c0,.099998,0,.300003.100006.5h-.100006v7.400002h0c.299988.800003.399994,1.599998.5,2.400002v.699997c.100006,1.5,0,3,0,4.5v.599998c0,.800003-.100006,1.5-.100006,2.300003v2.200005l.200012.300003c0,.099998-.200012.199997-.200012.300003v18.399994c0,.5,0,.900002-.100006,1.300003,0,.300003,0,.599998-.100006.900002,0,.800003-.200012,1.599998-.299988,2.5v.599998c0,.599998-.200012,1.300003-.200012,1.900002v1.5c0,.900002,0,1.800003-.200012,2.699997v.199997c0,1.199997-.200012,2.300003-.5,3.5,0,.699997,0,1.399994-.299988,1.800003v1.900009h.100006c.100006.5.100006.899994,0,1.300003,0,.199997-.100006.399994-.200012.5v2.400009c.100006.100006.100006.399994,0,.800003,0,1.199997-.100006,2.399994-.200012,3.5v.800003c0,.899994-.200012,1.800003-.200012,2.800003v.800003c0,.800003-.200012,1.600006-.299988,2.399994v.600006c-.100006.899994-.200012,1.800003-.299988,2.600006v.600006c-.100006.899994-.299988,1.800003-.399994,2.800003,0,.300003,0,.5-.100006.800003-.100006.699997-.200012,1.300003-.299988,2,0,.300003,0,.5-.100006.800003-.100006.800003-.299988,1.600006-.399994,2.399994,0,.300003-.100006.600006-.200012.800003-.600006,3-1.200012,6.100006-1.799988,9.100006,0,.199997,0,.399994-.100006.699997-.200012,1-.399994,1.899994-.600006,2.899994,0,.199997-.100006.5-.200012.699997-.200012.800003-.299988,1.5-.5,2.300003,0,.300003-.100006.600006-.200012.899994-.399994,1.800003-.799988,3.600006-1.200012,5.399994v.199997h0v.300003c0,.300003-.100006.600006-.200012.800003-.200012.800003-.399994,1.600006-.600006,2.399994,0,.199997,0,.399994-.100006.600006-.200012.899994-.5,1.699997-.700012,2.600006,0,.300003-.200012.600006-.299988.899994-.200012.800003-.5,1.699997-.799988,2.5h0c0,.199997,0,.600006-.100006.899994,0,.399994-.200012.699997-.200012.800003,0,0-.200012.100006-.299988.300003-.200012.5-.399994,1-.600006,1.600006-.100006.300003-.200012.600006-.299988.899994,0,.199997-.100006.300003-.200012.5h0c0,.600006-.299988,1.100006-.600006,1.399994,0,.199997-.200012.5-.200012.699997s-.100006.399994-.200012.5c-.299988.899994-.600006,1.800003-1,2.699997-.100006.300003-.299988.5-.399994.800003H.47846c-.399994.199997-.600006.699997-.399994,1,0,.899994.399994,1.399994,1,.699997,7.700012.5,15.5.199997,23.299988,0h2c2.600006,0,5.200012.100006,7.899994.199997h0c4.899994,0,9.799988.199997,14.600006.199997.200012,0,.299988,0,.5-.199997.200012,0,.399994,0,.600006.100006.200012,0,.399994.399994.700012.399994.799988.100006.700012-1.600006.899994-2.300003,1.700012-5.800003,3.799988-10.5,5.399994-16.600006,2.299988-9.199997,4.600006-18.5,6-27.800003,2.700012-17.699997,4.299988-35.900002,4.600006-54,.200012-9.699997-.399994-19.5-.700012-29h0l.000153.999969ZM49.878607,7.259465l.799988,2.400001c-1.600006,0-2.799988-1.8-4.299988-2.1.5-1.9,1.600006.3,2.5.3.299988,0,.600006-.7,1.100006-.6h-.100006ZM20.378607,86.359466h-.899994v-2.5h0l9.899994.199997h1v2.5h-2.700012c-.700012,0-1.200012.099998-1.899994.199997v.300003c1,.099998,2.100006.199997,3.200012.199997h1.5v1.400002c-2.5,0-5.100006-.199997-7.399994-.199997h-3.200012v.300003c.600006,0,1.200012.199997,1.899994.199997,2.399994.199997,5.700012.199997,8.600006.300003v5.5c-3.5-.199997-7-.300003-10.600006-.400002v-2.300003h3.600006c2.5.099998,3.200012-.400002,0-.5h-3.700012v-4.699997h0c.799988,0,1.799988,0,1.899994-.099998.399994-.199997-.600006-.400002-1-.5h0l-.199982.099998ZM30.378607,83.459465h-1.100006l-9.799988-.300003h0v-2.300003h0c3.700012,0,7.399994.199997,11.100006.199997v2.400002h0l-.200012.000008ZM19.578619,98.459465h5.100006c1,0,2.700012-.199997.700012-.5l-5.799988-.199997h0v-2.5h10.600006v5.5c-3.5,0-7.100006-.199997-10.700012-.199997h0v-2.300003l.099976.199997ZM30.578619,77.159462c-2.299988-.199997-5.299988-.199997-7.600006-.300003-1.299988,0-2.5,0-3.799988-.099998h0c0-.800003,0-1.599998-.100006-2.400002h1.299988c3.399994.199997,6.899994.300003,10.399994.400002,0,.800003,0,1.599998-.100006,2.400002h-.099976ZM19.178595,77.459465h0l11.299988.199997c0,.900002,0,1.699997-.100006,2.599998-3.700012-.099998-7.399994-.199997-11.100006-.300003h0v-2.400002h0l-.099976-.099991ZM19.278601,111.059463h2c1.600006-.199997.200012-.5-.799988-.599998h-1.200012v-2.599998h1.299988c.200012,0,2.5,0,2-.300003-.600006,0-1.100006-.199997-1.700012-.199997h-1.600006v-2.599998h7.200012c.5,0,2.899994,0,3-.099998.100006-.199997-.399994-.300003-.700012-.300003-1.200012-.199997-3.299988-.199997-4.700012-.199997-1.600006,0-3.200012-.099998-4.799988-.199997h0v-2.300003h0c3.5,0,7.100006.099998,10.700012.099998,0,1.900002,0,3.900002.100006,5.800003h-2.399994v.300003c.299988,0,.700012.199997,1.100006.199997h1.299988v2.599998h-.700012c-.200012,0-3,0-2.399994.300003.399994,0,.799988.099998,1.100006.199997.600006,0,1.299988,0,2,.099998v2.599998l-11.299988-.400002h0v-2.5h0l.5.099998ZM30.778601,74.059463c-3.700012-.099998-7.299988-.199997-10.899994-.300003h-.799988c0-.800003,0-1.5-.100006-2.300003h0c4,.099998,8,.199997,12,.199997,0,.800003,0,1.599998-.100006,2.300003l-.100006.100006ZM19.178595,116.459465v-2.099998h0c3.799988.099998,7.600006.199997,11.399994.300003v2.800003c-3.899994-.099998-7.799988-.300003-11.700012-.400002h0v-.599998l.300018-.000008ZM18.878607,70.659462h0c0-.800003,0-1.599998-.100006-2.400002h9.100006c.600006,0,1.100006,0,1.700012-.199997.5-.300003-1.799988-.400002-2-.400002-2.799988-.199997-5.899994-.199997-8.899994-.300003h0c0-.800003-.100006-1.599998-.200012-2.5h9.100006c1,0,2.399994,0,.799988-.400002-3.299988-.099998-6.600006-.199997-9.899994-.300003h0c0-.799999-.100006-1.599998-.200012-2.400002h0l13.399994.200001c-.299988,2.999996-.5,6.100002-.700012,9.100002-4-.199997-8-.300003-12.100006-.400002l.000031.000008ZM18.778601,118.259468v-.199997h0c4.100006.099998,8.100006.199997,12.200012.300003,0,.199997,0,.300003.100006.5,0,.699997,0,1.5.100006,2.199997h0c-1.299988,0-6.100006-.300003-7.100006-.199997-.200012,0-.600006,0-.5.199997.200012.400002,4.399994.400002,5.200012.400002.899994,0,1.700012.199997,2.600006.199997,0,1,.100006,2.099998.200012,3.099998-2.100006-.199997-4.200012-.400002-6.299988-.5-2.299988-.099998-4.5-.300003-6.799988-.400002.100006-1.900002.200012-3.699997.299988-5.599998h-.000061ZM31.678595,61.259464c-3.5,0-7-.099998-10.600006-.099998h-3c0-.900002-.200012-1.799999-.200012-2.799999h4.700012c3,0,6.100006.099998,9.299988.200001,0,.900002-.200012,1.799999-.299988,2.799999h0l.100006-.100002ZM17.978613,129.659462c.100006-1.699997.299988-3.5.399994-5.199997,4.399994.099998,8.899994.300003,13.100006.699997,0,.800003.100006,1.599998.200012,2.400002-1.799988-.099998-4.5-.199997-5.899994-.300003-1.100006,0-2.899994-.099998-4,0-.200012,0-.899994,0-.600006.199997.5.300003,6.600006.400002,7.799988.5.799988,0,1.799988.200005,2.700012.200005,0,.699997,0,1.399994.100006,2.100006-1.200012,0-2.399994,0-3.600006-.100006-3.100006-.100006-7-.399994-10.200012-.399994h0v-.100006ZM43.878607,14.659465c1.600006,2.2.600006,1.8-.899994,1.2.299988-.5.399994-1.4.899994-1.2ZM10.478613,15.159465h0c-.200012-.8-.5-1.6-.700012-2.400001h0c7.100006,0,14.700012,0,21.600006-.3,1.200012,0,2.700012-.2,3.799988-.3v-.3c-.399994,0-.899994-.1-1.399994-.2-3.100006,0-6.899994.2-10.100006.2h-14.200012c-.299988-.9-.600006-1.7-.799988-2.5h2.200012c2,0,4-.1,6.100006-.2l.200012-.2c.200012-.6-3.100006-.4-3.899994-.5h-4.899994c-.299988-.8-.600006-1.6-.899994-2.3h0c3.399994,0,6.799988,0,10.200012-.2.799988,0,1.600006.2,2.299988-.2-.299988-.5-1.5-.4-2.299988-.5H7.078649c-.399994-.6-.799988-1.2-1.100006-1.8-.100006-.3-.200012-.6-.299988-.9h6.100006c5.5,0,11,.2,16.5.3h3.300018c4.399994,0,8.899994.1,13.299988,0-.399994.9-1.100006,1.7-1.5,2.5-5.299988,0-10.600006-.1-15.899994,0-.899994,0-4.299988,0-2.5.6,6,.1,12.100006.1,18.100006,0-.299988.8-.600006,1.6-.899994,2.5h0c-2,0-4.299988.1-6.200012.1-3.700012,0-8.600006-.3-12.200012-.2-.600006,0-1.200012.2-1.700012.2,0,.1,0,.2.299988.3.5.2,2.899994.2,3.700012.2,4.600006,0,11,.1,15.899994,0h0c-.299988.8-.5,1.6-.799988,2.5h-.299988c-1.100006.3-.5.4.200012.5h0c-.299988.9-.5,1.8-.799988,2.8h0c-4.600006,0-9.200012,0-13.799988.1-2.799988,0-5.600006.1-8.299988.1h-7.600006l-.100098.099998ZM11.178595,17.859464h0c-.200012-.6-.299988-1.200001-.5-1.799999h0c9.799988-.1,19.5-.3,29.299988-.5-.200012.799999-.399994,1.6-.600006,2.4h-4.799988c-7.799988,0-15.600006-.1-23.399994-.1ZM14.278601,31.259464h0c-.200012-.799999-.299988-1.700001-.5-2.6h5.299988c1.899994,0,4.899994,0,6.700012-.200001.899994,0,1.299988-.4.200012-.6-2.299988-.299999-6.700012,0-9.200012,0h-3.200012c-.200012-.799999-.299988-1.6-.5-2.299999h0c3.299988,0,6.600006-.1,10-.200001.799988,0,4.5.200001,4.799988-.299999l-.5-.299999h-14.399994c-.200012-.799999-.399994-1.700001-.600006-2.6h11.100006c1.899994-.1.5-.5-.600006-.6-2.100006-.1-4.5,0-6.700012-.1h-3.899994c-.200012-.799999-.399994-1.700001-.600006-2.5h0c4.299988,0,8.600006-.1,12.799988-.200001,4.5,0,10.299988.1,15-.1-.200012.700001-.399994,1.5-.600006,2.200001,0,.299999-.200012.6-.200012.799999h-6.200012c-1.100006,0-2.399994-.200001-3.299988.200001-.100006.299999,1,.299999,1.299988.299999,2.600006.1,5.299988,0,8.100006,0-.5,1.9-1,3.700001-1.399994,5.6-1.799988,0-4-.200001-5.600006.299999,0,.200001,1.700012.299999,2.100006.299999h3.299988c-.200012,1-.5,2-.700012,3H14.478521l-.199921-.099997ZM15.578619,38.359466v-.299999c-.100006-.700001-.200012-1.5-.399994-2.299999h3.100006c1.100006,0,2.299988.200001,3.399994,0,.600006-.5-1.299988-.5-2-.599998-1.5,0-3.100006-.099998-4.600006-.099998h0c-.200012-.900002-.299988-1.900002-.5-2.900002h0c7.200012,0,14.299988,0,21.5-.099998-.299988,1.200001-.5,2.299999-.700012,3.400002h-5.200012c-.5,0-3.100006,0-3.100006.200001.299988.400002,1.799988.400002,2.600006.5,1.700012,0,3.600006.099998,5.600006.200001-.200012.900002-.299988,1.700001-.399994,2.400002h-5.200012c-4.600006,0-9.299988-.099998-13.899994-.200001h0l-.199982-.200008ZM16.078619,41.659466h0c-.100006-.799999-.200012-1.599998-.299988-2.299999h16.200012c5.400024,0,1.700012,0,2.600006,0-.100006.900002-.299988,1.700001-.399994,2.599998l-18-.299999h-.100037ZM17.178595,50.759464h0c0-.799999-.200012-1.599998-.299988-2.299999h.600006c1.5,0,4.799988,0,6.100006-.200001.299988,0,.600006-.099998.5-.299999-.299988-.200001-5.100006-.200001-6-.200001h-1.299988c0-.700001-.200012-1.400002-.299988-2.099998h2.299988c.399994,0,.799988,0,.700012-.299999-1-.099998-2-.200001-2.899994-.200001h-.200012c-.100006-.799999-.200012-1.599998-.299988-2.400002h17.799988c-.100006.900002-.299988,1.700001-.399994,2.599998h-6.799988c-.899994,0-1.899994,0-2.700012.200001,0,.299999.600006.299999,1,.400002,2.5.200001,5.600006.200001,8.5.099998-.100006.700001-.200012,1.400002-.299988,2.200001-1.899994,0-3.899994,0-4.200012.200001-.299988.200001.399994.200001.600006.299999.899994,0,2.399994.099998,3.600006.099998-.100006.799999-.200012,1.700001-.299988,2.5-5.200012,0-10.399994-.099998-15.600006-.299999h0l-.100067-.299999ZM17.678595,54.959465h5.399994c.899994,0,2.600006.299999,2.899994-.400002-1-.099998-2-.200001-2.899994-.200001-1.700012,0-3.600006-.099998-5.399994-.099998h0c0-.799999-.200012-1.700001-.299988-2.5h15.5c-.100006,1-.200012,1.900002-.299988,2.900002-.799988,0-1.299988,0-1.399994.200001,0,.200001.299988.200001.5.200001h.799988c0,.900002-.200012,1.700001-.299988,2.599998-4.799988-.099998-9.5-.200001-14.200012-.299999h0c0-.799999-.200012-1.599998-.200012-2.400002h-.100006ZM17.678595,133.559471h0l13,.399994.600006-.300003c-.200012-.199997-5.299988-.5-6.200012-.600006h-1.200012c-2-.100006-4.100006-.199997-6.200012-.300003h0c0-.800003.100006-1.699997.200012-2.5h.899994c4.200012.300003,8.700012.300003,13,.399994.200012,2,.299988,4,.5,6-2.899994-.100006-5.799988-.199997-8.700012-.399994-2.100006,0-4.100006-.199997-6.200012-.300003h0c0-.800003.100006-1.600006.200012-2.5h0l.100037.100021ZM17.478613,136.859459h0c1.299988,0,2.5,0,3.799988.100006,3.700012.199997,7.5.300003,11.299988.5,0,.800003.200012,1.600006.299988,2.399994-4-.199997-8.200012-.399994-11.700012-.399994-.799988,0-2.299988,0-2.600006.399994,0,.199997,2.600006.399994,3.100006.399994,3.700012.199997,7.5.199997,11.200012.399994,0,.300003,0,.699997.100006,1,.100006.800003.200012,1.699997.299988,2.5-1.299988,0-2.600006-.100006-3.799988-.199997-4.200012-.199997-8.399994-.5-12.600006-.699997h0c.200012-2.199997.399994-4.300003.600006-6.5h0l.000031.100006ZM15.078619,157.359459h0c3.399994.100006,6.799988.300003,10.200012.399994,1.700012,0,4.5.399994,6,.300003.299988,0,.799988,0,.799988-.300003-.200012-.199997-.399994-.199997-.700012-.199997-4.799988-.600006-11.299988-.699997-16.200012-1h0c.299988-2,.5-4,.799988-6h2.399994c0,.100006.5-.100006.5-.100006-.100006-.300003-1.5-.399994-2.799988-.5h0c0-.800003.200012-1.600006.299988-2.399994h.899994c1.100006,0,.700012-.399994-.200012-.600006h-.600006c.100006-.899994.200012-1.899994.299988-2.800003h0c5.5.199997,11.100006.5,16.600006.800003.100006,1,.299988,2.100006.399994,3.100006-1.299988,0-2.5-.100006-3.799988-.199997-1.700012-.100006-3.600006-.300003-5.299988-.399994-.399994,0-2.100006,0-2.100006.199997,1.700012.600006,4.100006.5,5.899994.600006s3.5.300003,5.299988.399994c.100006.899994.200012,1.699997.299988,2.600006h-1.200012s-.5.199997-.5.300003c0,.199997.899994.399994,1.799988.399994.100006.699997.200012,1.5.299988,2.199997-4.399994-.199997-9-.600006-13.399994-.600006-.299988,0-1.399994,0-1.299988.300003.899994.5,2.299988.300003,3.299988.399994,3.799988.199997,7.700012.399994,11.5.600006.299988,2.100006.600006,4.100006,1,6.199997-7-.5-13.899994-1-20.799988-1.399994h0c.100006-.699997.200012-1.399994.299988-2h0l.000122-.300003ZM13.678595,166.659462h.399994c3.600006.300003,8.399994.300003,12.200012.399994,2.299988.100006,5,.399994,7.299988.399994.200012,0,1.700012,0,1.5-.199997s-.5-.199997-.899994-.199997c-5.100006-.600006-12.600006-.899994-17.799988-1h-2.600006c.100006-.899994.299988-1.800003.399994-2.600006h0c3.200012.199997,7,.600006,10,.699997h1.5v-.300003c-1.200012-.199997-2.700012-.399994-3.899994-.5-2.5-.199997-5-.399994-7.5-.600006h0c.100006-.800003.200012-1.600006.399994-2.399994h0c.799988,0,1.5,0,2.299988.100006,5.600006.300003,11.299988.600006,17,1,.5,0,1.100006,0,1.700012.100006.100006.899994.299988,1.800003.399994,2.699997-1.399994,0-2.700012-.100006-3.799988-.199997-.899994,0-2.700012,0-1.100006.5,1.600006.100006,3.299988.199997,5,.399994.299988,1.800003.600006,3.699997,1,5.5-7.399994-.399994-14.700012-.800003-22.100006-1-1.799988.5,1.5.699997,2.399994.699997,6.600006.399994,13.200012.5,19.700012.899994.200012.899994.299988,1.699997.5,2.600006h-1.100006c-8-.5-16-.699997-24.100006-1h0c.399994-1.899994.700012-3.899994,1-5.800003h0l.200012-.199982ZM10.578619,182.659462c.200012-.899994.399994-1.699997.600006-2.600006h0l10.399994.600006,1.5-.199997c-.200012-.100006-.299988-.199997-.5-.300003-1.100006-.300003-8-.800003-11.200012-1h0c.200012-.800003.299988-1.5.5-2.300003h0c1.799988,0,3.700012.199997,5.5.199997.5,0,2.899994,0,3-.100006-.700012-.399994-1.799988-.399994-2.700012-.5-1.899994-.100006-3.700012-.199997-5.600006-.300003h0c.200012-1,.399994-2,.600006-2.899994h0c8.5.300003,17,.699997,25.5,1.100006.5,2.300003,1,4.699997,1.5,6.899994h-.5c-2.399994-.300003-8.200012-.699997-10.700012-.699997-.5,0-1,0-1.299988.199997,0,.199997.299988.199997.5.300003,1.299988.399994,4.399994.300003,5.899994.399994,1.799988.100006,3.700012.5,5.399994.5h1c.200012,1,.5,2,.700012,2.899994-8.600006-.699997-17.299988-1.399994-25.899994-1.800003-.200012,0-2.5-.199997-3.899994-.199997h0l-.299988-.199982ZM10.678595,206.459465c-2.100006-.199997-4.100006-.300003-6.200012-.600006-.200012,0-.399994.100006-.600006.300003h-.200012c0-.399994,0-.899994.200012-1.300003.100006-.399994.299988-.800003.5-1.300003,3.399994.300003,7.200012.5,10.399994.800003l8.299988.699997c3.299988.199997,6.899994.699997,10.399994,1-7.600006-.199997-15.299988,0-22.899994.300003h0l.100037.100006ZM40.478613,206.359459h.100006c0-.199997-2-.5-2.5-.5-5.100006-.600006-10.799988-.800003-16-1.300003-5.5-.5-11.799988-1.300003-17.399994-1.600006.399994-.899994.799988-1.800003,1.100006-2.600006h1.799988c.399994,0,.700012-.100006,1-.300003,0-.199997-1.700012-.5-2.100006-.5h-.399994c.299988-.899994.600006-1.899994.799988-2.800003h0c4.200012.199997,8.5.5,12.700012.800003h1.399994c4.399994.300003,9.5,1,13.799988,1.100006h1.5l.200012-.300003c0-.399994-2.399994-.600006-3.100006-.699997-8.399994-.899994-17.5-1.399994-26.299988-1.899994h0c.200012-.800003.5-1.600006.700012-2.5h0c3.200012.199997,6.399994.399994,9.600006.600006.899994,0,6.200012.600006,6.200012.100006-1.100006-.5-2.799988-.399994-4.100006-.600006-3.799988-.399994-7.600006-.699997-11.399994-1h0c.200012-.899994.5-1.800003.700012-2.600006h.299988v-.399994h-.200012c.200012-.899994.399994-1.699997.700012-2.600006h0c2.299988.100006,4.700012.300003,7,.399994.700012,0,2.399994.100006,3,.100006,1.299988,0,.700012-.5-.5-.699997-3-.399994-6.100006-.600006-9.200012-.800003h0c.200012-.800003.399994-1.699997.600006-2.5h0c1.100006.199997,2.200012.100006,3.399994.199997,8.899994.600006,17.799988,1.399994,26.700012,2,.200012.899994.5,1.800003.700012,2.600006-5-.300003-10.100006-.600006-14.799988-.899994l-.799988.199997.799988.300003c4.899994.300003,10,.800003,15,1.199997.600006,2.100006,1.200012,4.199997,1.799988,6.300003-3.600006-.300003-7.299988-.600006-10.799988-.800003h-3.100006q0,.199997.299988.300003c1.200012.399994,8.700012.800003,10.700012.899994,1,0,2,.199997,3.100006.300003.5,1.600006,1,3.199997,1.600006,4.699997.200012.600006.600006,1.399994.899994,2.100006-5.399994-.5-11.200012-1.100006-16.200012-1.300003h-2.299988q0,.199997.299988.300003c.700012.300003,6.5.600006,7.899994.699997,3.600006.300003,7.200012.699997,10.799988,1.100006,0,.100006,0,.199997.100006.300003.100006.300003.200012.5.299988.699997.200012.699997,0,1.600006.399994,2.300003-2.200012-.100006-4.5-.199997-6.700012-.300003h0l-.100006-.100006ZM63.678595,148.659462c-2.100006,18.100006-5.799988,36-11.799988,52.400009-.5,1.300003-.700012,3.100006-1.5,4.100006.299988-2.100006-1.899994-1.800003-2.100006-3.800003.5-.699997,2.100006,3.100006,3,1.300003,0-.5-3.100006-3.699997-4.200012-4.5-.100006-.300003-.200012-.600006-.299988-.899994,0,0-.100006-.100006-.200012-.100006-.100006-.5-.200012-1.100006.100006-1.100006.600006,0,3.600006,3.699997,4.600006,4.100006.299988.300003,1,0,.899994-.699997,0-.5-5.899994-5.399994-6.600006-6.199997l-.600006-2.5,7,6.199997c.5.199997.799988-.300003.700012-1-.100006-.600006-6.600006-5.600006-7.399994-6.5l-1.399994-2.699997c0-.300003-.200012-.600006-.200012-.899994,0,0,.200012,0,.399994.100006.799988.600006,1.899994,2.600006,2.700012,1-1.299988-1.300003-3-2.199997-3.799988-4.100006,0-.300003-.100006-.600006-.200012-1h.5c2.100006,2.100006,4.5,3.800003,6.600006,5.800003,1,.899994,3,3.5,3.799988,4,.299988.199997.600006.199997.799988.100006l.200012-.699997c-2.600006-3.600006-6-5.699997-9-8.5-.899994-.800003-2.600006-2.399994-3.299988-3.199997,0,0-.100006-.199997-.200012-.300003,0-.300003-.100006-.600006-.200012-.800003h0v-.399994h0v-.5s.200012-.100006.5,0l11.799988,11c.299988.399994,1,0,.899994-.600006-.200012-1.100006-11.899994-11-13.399994-12.600006l-.399994-1.100006v-.300003h0c0-.199997,0-.5-.100006-.699997.200012-.399994.200012-.100006.399994,0,.700012.399994,2,1.600006,2.700012,2.300003,2.600006,2.5,5.299988,5.399994,7.899994,7.800003.5.399994,3.200012,2.899994,3.399994,2.899994.299988,0,.700012,0,.700012-.399994,0-.699997-1.899994-2-2.299988-2.399994-3.600006-3.5-7.299988-6.699997-10.799988-10.199997-.600006-.600006-2-1.899994-2.5-2.699997-.100006-.5-.200012-1.100006-.299988-1.600006h.299988c.600006.300003,1.600006,2.100006,2.399994,2.399994.399994.199997.399994-.300003.299988-.699997-.299988-1.5-2.5-2.600006-3.5-4.199997,0-.300003-.100006-.600006-.200012-1h0v-.300003l.200012-.199997,10,9.600006c.700012.199997,1.600006,1.5,2.200012,1.699997.5.100006.399994-.300003.299988-.699997-3.100006-3.100006-6.200012-6.199997-9.299988-9.300003-1-1-2.399994-1.899994-3.299988-2.899994-.200012-.199997-.399994-.5-.600006-.699997v-.399994h0c0-.199997,0-.399994-.100006-.600006h0v-.399994c.399994-.100006.600006.199997.799988.399994,3.299988,2.5,6.100006,5.800003,9.200012,8.600006,1,1,3.399994,3.100006,4.399994,3.699997.5.300003.899994.399994,1-.5-3-2.699997-5.899994-5.800003-8.899994-8.5-2.299988-2.100006-4.799988-3.899994-7-6.199997v-.300003h0c0-.5-.200012-1-.200012-1.5.200012,0,.299988.199997.5.300003,5.799988,4.699997,11.100006,11.399994,17.299988,15.300003.600006.399994,1.399994,2.300003,2.5,1.899994.899994-.100006-1.399994-2.300003-1.600006-2.5-5.5-3.800003-12.100006-10.5-17.299988-15.5-.5-.5-1.200012-.800003-1.700012-1.399994v-.300003h0c0-.5-.100006-1-.200012-1.399994l4.899994,4.199997c5.299988,4.199997,10.100006,9.300003,15.399994,13.399994.299988.199997,2,1.699997,1.600006.199997,0-.100006-1.299988-1.5-1.5-1.800003-5.899994-6.199997-13.299988-11.100006-19.399994-17-.200012-.199997-.700012-.699997-1.100006-1.199997,0-.399994-.100006-.899994-.200012-1.300003.5,0,2.700012,2.199997,3.200012,2.5.399994.199997,1.100006.199997,1.200012.300003,0,0,0,.600006.299988,1s.899994.600006,1.299988.899994c3.799988,3.600006,7.899994,6.399994,11.899994,9.600006.600006.5,2.799988,3,3.200012,2.899994l.299988-.699997-21.600006-18.300003c0-.5,0-.899994-.100006-1.399994h.399994c1.100006.600006,3,2.699997,4.200012,3.699997,2.5,2,5.100006,4.100006,7.600006,6.100006,2.899994,2.300003,5.799988,4.600006,8.600006,7,.399994.300003.799988-.300003.600006-.899994,0-.100006-1.299988-1.300003-1.5-1.5-5.299988-4.5-10.700012-8.899994-16-13.199997-.799988-.699997-3.399994-2.300003-4.100006-3.199997,0-.399994,0-.899994-.100006-1.300003l10.299988,7.800003c3.299988,1.699997,6.600006,5.899994,9.799988,7.800003.299988.100006.5.199997.700012.199997.5-1-1-1.399994-1.600006-2-4.899994-4.399994-9.899994-8.300003-15-12.199997-1.299988-1-3.200012-2.199997-4.399994-3.300003v-.300003h0v-.800003h0v-.600006h0c2,1.100006,4.399994,4.399994,6.600006,5,4.799988,4,9.899994,7.199997,14.700012,11.100006.700012.600006,2.600006,2.800003,3.299988,2.899994,2.399994.399994-1.399994-2.399994-1.600006-2.600006-2-1.800003-4-3.800003-6.100006-5.5-4.899994-3.899994-10-6.899994-14.700012-10.899994-.600006-.5-1.600006-1.100006-2.399994-1.800003v-.199997h0v-.699997h0v-.899994c0-.199997-.200012-.399994-.200012-.600006.200012.100006.299988.300003.399994.300003,2.399994,1.699997,4.799988,3.800003,7.100006,5.600006,5.799988,4.199997,11.600006,8.399994,17.200012,13.300003.200012.199997,1,0,.799988-.600006-.200012-.5-3-2.5-3.600006-3-5.299988-4.399994-10.899994-8.5-16.299988-12.699997-1.5-1.100006-4-2.699997-5.5-4.199997,0-.600006,0-1.199997-.100006-1.800003v-.100006c-.100006-.199997-.200012-.399994-.299988-.600006.600006.399994,1.399994,1.300003,1.899994,1.600006,5.600006,4.100006,11.399994,8.399994,17.100006,12.600006.700012.5,4,3.5,4.5,3.300003l.299988-.699997c-.899994-1.399994-2.100006-1.899994-3.100006-2.800003-4-3.199997-8-6.100006-12.100006-9.100006-2.100006-1.5-6.799988-4.300003-8.600006-6.300003-.100006-.699997-.299988-1.5-.299988-2.199997l20.5,14.600006.5-1.199997c-2.200012-1.5-4.399994-3.100006-6.600006-4.699997-4.100006-3-9.399994-5.899994-13.100006-9.099998-.200012-.099998-.799988-.800003-1.399994-1.400002v-2.199997c.399994.300003,1.100006,1.099998,1.600006,1.400002,3.299988,2.400002,7,5.400002,10.399994,7.599998.700012.5,1.700012,1.199997,1.600006-.5l-13-9.699997c-.200012-.199997-.399994-.300003-.600006-.5,0-.800003-.200012-1.599998-.299988-2.400002,2.399994,2,4.799988,4.400002,7.299988,6.199997,6.5,4.799995,13.100006,9.000008,19.5,14.200005.700012.600006,1.5,2.300003,2.200012.899994-1.200012-1.300003-2.600006-2.399994-3.899994-3.5-7.700012-6.600006-16.100006-11.300003-23.799988-18.099998-.600006-.5-1-1.099998-1.5-1.699997v-.400002h0c0-.400002,0-.699997-.100006-1.099998v-.199997c.600006.599998,1.200012,1.300003,1.799988,1.800003,1.700012,1.400002,3.399994,2.699997,5,4,.5.400002,2.899994,3.099998,3.5,2.5,0-.5-.200012-1-.399994-1.300003-2.200012-2.699997-5.899994-4.900002-8.399994-7.300003-.700012-.699997-1.299988-1.199997-1.600006-1.800003v-2.5c.200012-.400002,2.200012,2.300003,2.700012,2.300003.299988,0,.5-.300003.5-.699997,0-.400002-1.700012-2.199997-2-2.5-.399994-.400002-.899994-.599998-1.299988-.900002v-1.5h0v-.699997h0c0-.099998.100006-.199997.200012-.400002,2.600006,2.5,5.5,4,8.299988,6,3.399994,2.5,7.5,6.5,11,8.300003.5.300003,1,.400002,1-.5,0-.5-4-3.300003-4.700012-3.800003-5-3.800003-10.200012-7-15.100006-11.199997-.200012-.099998-.5-.199997-.600006-.300003v-2.300003h0c4,4.300003,8.5,7.199997,12.899994,10.599998,5,3.800003,10.299988,7.300003,15.200012,11.300003.299988.300003,3.5,3.699997,3.200012,1.599998-.200012-.300003-.399994-.599998-.700012-.900002-4.5-4.599998-10.399994-8-15.399994-11.699997-.399994-.300003-.600006-.699997-1-1-4.299988-3.199997-10.100006-6.300003-13.399994-10.699997-.299988-.300003-.600006-.599998-.899994-.900002v-.400002h0v-1l4.700012,4.5c4.5,2.800003,8.600006,6.5,12.899994,9.699997.700012.5,6.600006,4.699997,6.899994,4.300003v-1c-1.899994-1.400002-4-2.599998-5.899994-4-3.5-2.5-7-5.400002-10.5-8-.700012-.5-1.600006-.599998-2.299988-1.199997-1.299988-1.099998-2.700012-3.099998-4-4.400002-.600006-.599998-1.200012-1-1.799988-1.5v-.400002h0v-1.199997c.299988.400002.700012.699997,1,1,.600006.5,2.600006,1.699997,2.899994,2s.200012.900002.299988,1.300003c.399994,1,2.5,1.800003,3.299988,2.300003,2.399994,1.800003,5.700012,4.900002,8.200012,6.199997.700012.400002,1.5.199997,2,.5.200012.099998,1,1.699997,1.299988,1.300003.200012-.400002,0-.800003-.399994-1.099998-2.600006-2.5-6.399994-4.900002-9.299988-7-.700012-.5-4.899994-3.199997-5.100006-3.5-.100006-.199997,0-.900002-.399994-1.400002-.5-.699997-2.700012-1.900002-3.399994-2.599998-.100006-.099998-.200012-.199997-.299988-.400002v-1.599998c.600006.5,1.399994,1.699997,1.600006,1.900002,4.399994,4.099998,10.600006,8.400002,15.5,11.800003.700012.5,5.399994,3.5,5.700012,3.199997,0-.599998-.5-1.199997-.799988-1.400002-1.299988-1-3.100006-1.900002-4.399994-2.800003-2.700012-2-5.5-4-8.100006-6-3.299988-2.5-6.5-5.099998-9.600006-8.099998h0v-.5h0v-1.099998c.600006.300003,1.600006,1.800003,2.399994,1.300003-.299988-1.199997-1.799988-2.099998-2.5-2.900002v-.300003h0v-1.099998c.700012.5,3.299988,3.099998,3.899994,3.5,3.399994,2.599998,7.200012,5.099998,10.600006,7.5,3.100006,2.199997,6.200012,5.099998,9.5,6.800003.5.300003,1.200012.699997,1.700012.300003-1.700012-2.199997-4.100006-3.300003-6.100006-4.800003-3.799988-2.900002-7.600006-5.900002-11.5-8.699997-2.5-1.800003-5.200012-3.300003-7.5-5.599998-.100006-.099998-.299988-.300003-.399994-.5,0-.5.100006-.900002.200012-1.400002h.100006c1.5,1.199997,3.100006,2.400002,4.600006,3.400002,5.5,3.599998,11,7.400002,16.299988,11.5,2.799988,2.199997,5.600006,4.900002,8.5,6.900002.700012.5,1.600006,1.400002,2.299988,1-.5-1.199997-1.899994-2.199997-2.799988-2.900002-1.700012-1.400002-5.299988-3.400002-6.600006-4.800003-.299988-.400002-.299988-1-.600006-1.300003-.399994-.400002-1.399994-.599998-1.799988-.900002-3.200012-2.199997-6.299988-4.800003-9.5-7.099998-3.100006-2.199997-7-4.099998-9.899994-6.699997,0,0-.200012-.199997-.299988-.300003v-1.599998c.399994.300003,1.399994,1.199997,1.700012,1.400002,5.399994,3.400002,10.700012,6.900002,16,10.800003,2.399994,1.800003,5,4.300003,7.399994,5.800003.299988.199997.600006.400002,1,.300003,0-.699997,0-.900002-.399994-1.300003-1-1.099998-2.899994-1.900002-4-2.800003-1.299988-1-2.600006-2.300003-4-3.400002-5.799988-4.300003-11.799988-8-17.600006-12.199997v-1.599998c1.700012,1.900002,4,2.199997,6,3.400002,3.799988,2.199997,7.100006,5.400002,10.600006,8.099998,2.899994,2.199997,6,4,8.899994,6.300003.700012.300003.700012-.599998.299988-1.099998-5-3.400002-9.700012-7.599998-14.600006-11.199997-3.299988-2.400002-6.299988-4-9.799988-5.800003-.5-.300003-1-.800003-1.5-1.300003v-1.400002h-.100006c.5,0,1.299988,1,1.899994,1.300003,2.799988,1.5,5.5,2.800003,8.299988,4.599998,3.899994,2.599998,7.399994,5.900002,11.200012,8.5,1.299988.900002,2.799988,1.699997,4.200012,2.300003.299988-.400002-1.299988-1.699997-1.5-1.900002-7.100006-5.599998-14-10.400002-21.600006-14.5-.700012-.400002-1.5-1.400002-2.299988-1.800003v-.199997h0v-2.099998c.299988.099998.5.5.700012.699997,7.5,5.5,15.399994,10.400002,23.100006,15.5,1.399994,1,2.899994,2,4.200012,3.099998.399994.300003,2.799988,2.5,3,1.300003,0-.5-.299988-.599998-.5-.800003-1.100006-1-2.799988-2.099998-4.100006-3-3.899994-2.699997-8-6.099998-12-8.900002-4.299988-3-9.700012-5.199997-13.700012-9-.200012-.199997-.399994-.599998-.600006-1v-1.800003h.200012c.600006,0,2.399994,1.800003,3.100006,2,1.399994.400002,2.100006.199997,3.700012,1,5.399994,2.699997,11.600006,6.800003,16.799988,10.199997.299988.199997.299988,1,1.100006.699997,0-1.300003-.899994-1.800003-1.600006-2.400002-3.299988-2.800003-8.399994-5.300003-12.100006-7.300003-3.399994-1.900002-6.200012-2.900002-9.600006-4.5-.299988-.199997-1.299988-.800003-1.700012-1.099998v-1.5h.200012c2.899994,2,6.299988,2.800003,9.399994,4.300003,2.100006,1,4.299988,2.699997,6.399994,3.900002.5.300003,2.799988,1.599998,3,1.300003,0-.5,0-.699997-.200012-1.099998-.399994-.699997-3.299988-1.900002-4.100006-2.300003-1.5-.900002-3.299988-2.300003-4.899994-3-2.799988-1.300003-5.899994-2-8.700012-3.699997-.399994-.199997-.700012-.5-1.100006-.800003v-1.400002h.299988c.5,0,3.399994,2.099998,4.200012,2.5,3.299988,1.599998,6.600006,2.699997,10,4.599998,5,2.699997,9.899994,5.699997,14.600006,9.099998l.899994-.400002c0-.400002-.299988-.800003-.600006-1-2.100006-1.900002-4.899994-3-7.100006-4.400002-3.5-2.099998-7.600006-5.199997-11.100006-6.800003-3.399994-1.5-7.299988-1.900002-10.5-4.799999-.200012-.200001-.399994-.5-.5-.799999v-1h.299988c.5,0,2.299988,1.599998,3.100006,1.700001.799988,1,5.700012,4.000004,6.299988,3.299999,0-.300003.100006-.599998-.100006-.900002-.5-.599998-2-.900002-2.700012-1.200001-1.799988-.900002-3.299988-2-4.899994-3.200001-.600006-.400002-1.5-.599998-1.700012-1.099998v-.200001h0v-.599998c0-.200001.200012-.400002.399994-.599998,1.200012,1.099998,2.600006,2.099998,3.899994,2.900002,5.899994,3.700001,11.399994,7.799999,17.5,11.100002,1.399994.699997,3,1.199997,4.299988,2,.399994.300003,2.5,2.599998,2.700012,1.199997-.100006-.900002-1-1.300003-1.600006-1.699997-4.399994-3-9.299988-4.699997-13.700012-7.699997-3.200012-2.200001-6.299988-4.599998-9.5-6.799999-1.299988-.900002-2.799988-1.400002-3.899994-2.900002v-.200001h0v-.099998l.799988-.599998c.5.599998,1.100006,1.099998,1.700012,1.5,4.299988,2.900002,8.799988,5.700001,13.200012,8.5,1.700012,1.099998,4.399994,3,6.200012,3.699997.5.199997.899994.400002,1.399994.300003.399994-.400002-1.200012-1.599998-1.399994-1.699997-3.200012-2.099998-6.799988-3.400002-9.799988-6.299999-3.200012-2.299999-8.399994-4.5-11.299988-7.200001-.100006-.099998-.299988-.299999-.399994-.400002v-.400002h0v-.099998l.5-.5c2.600006,1.700001,5.299988,2.900002,7.899994,4.5,4.899994,2.900002,9.200012,5.599998,14.200012,8.199997.700012.400002,4.299988,3.099998,4.700012,2.599998v-.900002c-.100006,0-26.799988-16.299999-26.799988-16.299999v-.400002h0v-.5h0c.299988-.200001,2.600006,1.5,3.200012,1.799999,4.799988,2.5,9.299988,5.599998,14.100006,8,1.600006.799999,3.399994,1.400002,5.100006,2.400002,1,.599998,2.200012,1.700001,3.200012,2.400002l.899994-.200001c.5-.900002-2.200012-2-2.399994-2.099998-1.700012-1.099998-2.799988-1.799999-4.5-2.700001-5.899994-3.099998-12.100006-6.900002-18-10.400002-.5-.299999-1-.400002-1.399994-.700001v-.200001c0-.200001,0-.299999.100006-.5h0c0-.099998.100006-.200001.200012-.299999v-.200001h-.100006v-.400002c.399994-.099998.799988.599998,1.399994,1,3,1.799999,6.200012,3,9.299988,4.700001,3.600006,2,7.100006,4.400002,10.700012,6.299999,1.200012.599998,2.399994,1.099998,3.600006,1.599998.100006-1.799999-1.100006-1.5-1.799988-1.900002-3.600006-2.099998-7.100006-4.299999-10.700012-6.299999-1.5-.799999-10.200012-5.099998-12.100006-6.799999h0v-.900002h0v-.299999h0l13.200012,7.299999-.200012-1.299999c-3.399994-2.299999-7.100006-3.799999-10.5-5.900002-.299988-.200001-1.700012-1.099998-2.399994-1.599998,0-.400002,0-.799999.200012-1.200001h.600006c2,.599998,6,3.700001,8.299988,4.900002,2.600006,1.400002,5.399994,2.599998,8,4.099998.700012.400002,6.200012,4,6.399994,3.700001v-1.099998c-.799988-.400002-1.799988-.900002-2.600006-1.400002-5.799988-3.900002-12.100006-6.700001-17.899994-10.299999-.600006-.400002-2.100006-.900002-2.600006-1.599998,0-.400002.100006-.900002.200012-1.299999h.5c1.899994,1,4.200012,2.900002,6.100006,3.700001,2,.900002,4,1.700001,6,2.700001,1.100006.599998,2.200012,1.799999,3.5,1.599998l-.399994-1.099998c-2.700012-1.5-5.600006-2.700001-8.299988-4.200001-1.399994-.799999-2.899994-1.700001-4.200012-2.5-.5-.299999-2.399994-1.299999-3-1.900002,0-.400002,0-.799999.100006-1.299999.799988-.299999,5,2.400002,5.899994,2.900002.5.299999,1.100006.299999,1.700012.599998,1,.5,2.799988,2,3.700012,2.400002.399994.099998.799988,0,1.100006,0l-.200012-1c-1.5-.599998-2.899994-1.599998-4.299988-2.400002-1.799988-1-3.799988-1.799999-5.600006-3-.5-.299999-1.899994-1.299999-1.700012-2,.200012-.9,2.299988.299999,2.799988.5,5.299988,2.799999,10.299988,6.599998,15.700012,9.100002.399994.200001.799988.299999,1.200012.299999.5-.700001-1.399994-1.900002-1.799988-2.099998-2.899994-1.799999-5.899994-3.299999-8.799988-5-1.100006-.599998-8.399994-4.5-8.5-5.1.299988-1.9,1.700012-.1,2.600006.299999,1.299988.700001,2.600006,1.1,3.799988,1.9,1.299988.799999,2.600006,2.599998,4.100006,2.099998-.899994-1.299999-2.700012-2.9-3.899994-3.6-.899994-.6-1.899994-.700001-2.799988-1.200001s-1.899994-1.5-2.899994-1.700001l.299988-2.1c1.200012.799999,2.5,1.6,3.700012,2.200001,2.600006,1.299999,5.399994,2.4,8,3.799999.700012.400002,3,2,3.5,2,.299988,0,.600006,0,.799988-.5l-.399994-.900002-14.399994-7.6c-.5-.200001-.799988-1-.700012-1.6v-.200001c0-.299999.299988-.4.600006-.4.200012,0,.399994.6.700012.799999,2.5,1.4,5.100006,2.5,7.600006,3.799999.700012.4,5.100006,2.9,5.399994,2.5.200012-2.1-1-1.4-1.799988-1.9-2.600006-1.299999-5.299988-2.799999-7.899994-4.200001-.600006-.299999-3.700012-1.9-4-2.5v-.299999l.899994-1.1c.399994.5.899994.9,1.5,1.200001,2.399994,1.4,6.799988,4.1,9.200012,4.800001.299988,0,.5,0,.799988-.1.399994-.700001-1.600006-1.700001-1.899994-1.9-2.700012-1.6-6-3.1-8.799988-4.4-.299988-.1-.600006-.200001-.899994-.6l1.600006-.4c.200012,1.1.899994.299999,1.600006.4s1.100006.9,1.700012,1.200001c1,.5,2.5.700001,3.399994,1.200001.600006.299999,2.5,2.299999,3,.9l-1.299988-1.200001c-2-.5-3.600006-2-5.299988-3-.399994-.200001-1-.1-1.399994-.4-.299988-.200001-.899994-1.4-1.100006-1.8-.200012-.3-1.100006-.7-.600006-1.2.799988-.8.799988.2,1.100006.6.299988.3.899994.8,1.100006,1,1.799988,1.200001,4,1.799999,6,2.5v-.9c-.600006-.299999-1.399994-.1-1.799988-.299999-.299988-.1-.299988-.6-.5-.799999-1-.7-4.5-2.4-5-3.4-.399994-.7-.299988-1.6.299988-1.7,0,0,.5,1.1.799988,1.3.399994.2.799988.1,1.200012.4,1.100006.7,2.299988,2.6,3.899994,2.2.100006-2.2-2.700012-1.6-3.399994-2.2-.100006-.1-.200012-.5-.399994-.7-.5-.5-1.200012-1-1.600006-1.6-.299988-.5,0-.7.100006-.7.399994.5,1,1,1.399994,1.3,1,.6,3,2,3.700012.8.299988,0,1.100006,3,1.299988,3.5,3.899994,9.700001,6.399994,20.799999,8.399994,31.700001,6.399994,33.999996,6.799988,68.299999,2.799988,102.900005h0l-.60022-1.500092Z"/>
  <path class="cls-1" d="M58.878607,130.459465c-4.600006-3.800003-9.399994-6.800003-14.100006-10.099998-1.5-1-5.700012-4.699997-6.899994-5h-1c2.200012,3.099998,5.5,4.599998,8,7.099998.100006,0,0-.5.100006-.5.399994-.400002,6.799988,4.900002,7.799988,5.599998,2.700012,1.900002,5.299988,3.299995,7.899994,5.599998.899994.800003,1.899994,2.5,3.100006,2.300003,0-.5-.200012-.699997-.399994-1-1.200012-1.300003-3.200012-2.899994-4.600006-4h.100006Z"/>
  <path class="cls-1" d="M64.378607,112.659462c.399994-.5-2-2.099998-2.200012-2.199997-3-2-6.100006-3.800003-9.100006-5.900002-5.5-3.800003-11-7.800003-16.299988-12.099998-.299988-.300003-.600006-.400002-1-.300003-.5.699997,2,2.699997,2.399994,3.099998,7.200012,6.099998,15.399994,11,23.100006,15.400002.899994.5,1.799988,2.400002,3,1.900002l.100006.099998Z"/>
  <path class="cls-1" d="M57.178595,83.559463c-5.899994-4.400002-11.899994-8.900002-18.299988-11.800003-.5-.199997-1-.800003-1.299988-.900002-.5-.199997-.399994,1.199997-.299988,1.400002,0,.199997,2.299988,1.300003,2.600006,1.5,5.5,2.800003,10.899994,6.400002,16.100006,10,.799988.599998,3.100006,2.699997,3.799988,2.699997.399994,0,.5,0,.799988-.5,0-.5-2.899994-2.199997-3.5-2.599998h0l.099976.200005Z"/>
  <path class="cls-1" d="M52.278601,122.759468c-1.799988-1.400002-3.600006-2.900002-5.399994-4.199997-2.399994-1.800003-5.700012-4.400002-8.200012-5.800003-.600006-.300003-1.5-1.099998-2-.199997l15.700012,11.400002v-1.099998l-.100006-.100006Z"/>
  <path class="cls-1" d="M54.878607,181.259468c-1.299988-1.199997-2.5-2.899994-4-3.399994l-6.799988-7.199997-1.200012-.300003c0,.600006.299988,1.199997.600006,1.600006,1.700012,2.399994,5.399994,5.300003,7.5,7.100006,1.200012,1,2.299988,2.199997,3.399994,3.300003.200012.300003.600006,0,.700012-.300003.200012-.699997,0-.600006-.299988-.800003h0l.099976-.000015Z"/>
  <path class="cls-1" d="M54.278601,137.459465c-1.399994-1-2.899994-1.699997-4.200012-2.800003l-.700012.399994c.399994.800003,1.299988.800003,1.700012,1.100006,3.200012,2.800003,6.5,5.699997,9.899994,8.100006.600006.399994,1,1.199997,1.700012,1,0-.600006-.399994-1-.700012-1.300003-1.899994-2-5.600006-4.899994-7.700012-6.5h.000031Z"/>
  <path class="cls-1" d="M63.478613,82.059463q.399994.099998.700012-.300003c0-.599998-1.5-1.599998-1.799988-1.900002-1.799988-1.199997-3.600006-2.300003-5.399994-3.5-.5-.300003-3-2.300003-3.299988-1.800003,0,.5,0,.699997.200012,1,.5.599998,2.200012,1.400002,2.899994,1.900002,1.399994,1,2.700012,1.800003,4.100006,2.699997.700012.5,1.899994,1.699997,2.600006,2h0l-.000061-.099991Z"/>
  <path class="cls-1" d="M48.178595,188.159462c-1-.600006-1.299988.199997-.5,1.199997,1.600006,2,4,3.5,5.600006,5.600006,1.799988-.199997-.799988-2.399994-1.399994-3-.899994-1-2.799988-3.199997-3.799988-3.800003h.099976Z"/>
  <path class="cls-1" d="M57.078619,36.359466c-.700012-.599998-3.100006-1.900002-3.899994-2.299999-.299988-.099998-2.299988-.900002-2.399994-.700001-.200012,1,.399994,1.200001.899994,1.5.799988.5,4.200012,2.5,4.899994,2.700001.799988.200001,1.200012-.5.399994-1.200001h.100006Z"/>
  <path class="cls-1" d="M58.178595,52.559463c-.700012-.5-2.5-1.099998-3.299988-1.599998-1.100006-.599998-2.200012-2.200001-3.600006-2-.5.700001,1.399994,2,1.799988,2.099998,1,.5,1.899994,1.099998,2.899994,1.599998.799988.400002,2,.599998,2.799988,1,0,0-.399994-1.099998-.600006-1.200001h0l.000031.100002Z"/>
  <path class="cls-1" d="M59.178595,81.859466c0,.5,0,.699997.200012,1,.700012.699997,2.600006,1.699997,3.5,2.300003.600006.400002,1,1.400002,1.899994,1.099998,0-.699997,0-.800003-.299988-1.099998-.700012-.699997-3.399994-2.699997-4.200012-3.099998-.299988-.199997-.600006-.300003-1-.199997l-.100006-.000008Z"/>
  <path class="cls-1" d="M59.578619,46.759464c-1.5-.799999-3-1.799999-4.5-2.700001-.799988-.400002-.799988.799999,0,1.5.799988,0,4,2.700001,4.399994,2.5.100006,0,.399994-.5.299988-.700001l-.200012-.599998h.000031Z"/>
  <path class="cls-1" d="M45.978613,124.259468v1.099998c.799988.199997,4.5,4.099998,5,3.299995l-.299988-1.199997-4.700012-3.199997Z"/>
  <path class="cls-1" d="M54.878607,112.459465c-.5-.300003-1-1.5-1.5-.099998l4.899994,3.699997c.200012.300003.600006,0,.600006-.300003.100006-1-3.399994-2.900002-4.100006-3.300003l.100006.000008Z"/>
  <path class="cls-1" d="M58.578619,43.959465c.399994-.5-1.899994-2.099998-2.100006-2.200001-.299988-.200001-2.799988-1.200001-2.799988-.299999,0,.5,4.700012,2.799999,4.899994,2.5Z"/>
  <path class="cls-1" d="M51.878607,175.759468c0,.5,0,.699997.200012,1s2.899994,2.5,3.200012,2.699997c.299988.199997.600006,0,.600006-.300003.100006-.800003-3.600006-4-4.100006-3.399994h.099976Z"/>
  <path class="cls-1" d="M58.578619,67.359466c.299988,0,.600006.199997.899994.400002.5.400002,2.899994,2.400002,3.100006,2.5.299988,0,.5-.5.700012-.699997l-4.399994-3.099998-.399994.900002.099976-.000008Z"/>
  <path class="cls-1" d="M59.878607,99.359466c0,.699997,0,.900002.399994,1.300003.299988.300003,2.5,2.099998,2.799988,2.300003.299988.199997.600006.300003,1,.199997,0-.699997,0-.800003-.299988-1.099998-.299988-.300003-3.799988-2.900002-3.899994-2.699997v-.000008Z"/>
  <path class="cls-1" d="M60.678595,93.159462v.800003c1.200012.300003,2.600006,2.300003,3.600006,2.599998.299988,0,.399994-.400002.600006-.599998,0-.5-4-3.199997-4.299988-2.800003h.099976Z"/>
  <path class="cls-1" d="M60.678595,117.159462c0,.599998.200012.699997.5.900002.5.400002,3.299988,2.699997,3.600006,2.300003v-1.099998c-1.5-.300003-2.5-2.400002-4.100006-2.100006Z"/>
  <path class="cls-1" d="M51.478613,128.959465v.800003c.100006.300003,3.299988,2.199997,3.799988,2.399994.799988-1.100006-3.5-3.699997-3.899994-3.300003l.100006.100006Z"/>
  <path class="cls-1" d="M58.178595,133.859459c-.799988-.699997-1.299988-1.899994-2.399994-1.600006,0,.600006.200012.699997.399994,1,.399994.5,3.399994,2.899994,3.600006,2.5.200012-1.399994-1.200012-1.5-1.700012-2l.100006.100006Z"/>
  <path class="cls-1" d="M61.378607,120.959465c0,.5,0,.699997.200012,1,.299988.400002,2.700012,2.300003,3,1.900002.299988-1.300003-2.899994-3.400002-3.200012-3v.099998Z"/>
  <path class="cls-1" d="M59.878607,148.959465c-1.100006-.399994-.299988,1,.200012,1.5.200012.199997,1.299988,1.199997,1.299988,1.300003.299988.199997.700012,0,1,0,.600006-.800003-2.100006-2.699997-2.600006-2.800003h.100006Z"/>
  <path class="cls-1" d="M61.578619,96.859466c-.600006-.400002-.899994.300003-.200012,1.099998.399994.400002,2.299988,2.400002,2.700012,1.699997.5-.800003-2.200012-2.599998-2.600006-2.800003h0l.100006.000008Z"/>
  <path class="cls-1" d="M64.478613,115.559463c-.399994-.400002-2.399994-1.800003-2.700012-1.400002-.399994.5,2,2.5,2.299988,2.599998.600006.199997,1.100006-.699997.399994-1.199997h.000031Z"/>
  <path class="cls-1" d="M50.778601,40.159466c.899994.200001,1.799988,1.700001,2.600006.400002,0-.299999-2.399994-1.799999-2.600006-.400002Z"/>
  <path class="cls-1" d="M57.078619,111.359466c0,.199997,1.600006,1.699997,1.799988,1.599998,1.299988-.400002-1.799988-3.099998-1.799988-1.599998Z"/>
  <path class="cls-1" d="M51.678595,32.159466c.299988-.4-1.5-2.299999-1.899994-1,.5.900002,1.100006,1.200001,1.899994,1Z"/>
  <path class="cls-1" d="M60.678595,135.759468c0,1,.600006,1.899994,1.299988,1.800003,0-1-.600006-1.899994-1.299988-1.800003Z"/>
  <path class="cls-1" d="M41.878607,191.759468c-.5-.199997-5.899994-.5-7.100006-.600006-5.5-.5-11.200012-1.100006-16.799988-1.399994h-3.700012c0,.300003.799988.5,1.299988.5,8,.300003,16.399994,1.600006,24.299988,1.899994.700012,0,2.600006.100006,2-.399994h.000031Z"/>
  <path class="cls-1" d="M15.978613,200.359459c-.600006,0-3,0-1.399994.399994,1.100006.300003,4.600006.5,5.799988.5.299988,0,1.5,0,1.399994-.199997-.100006-.300003-4.899994-.699997-5.700012-.699997h-.099976Z"/>
  <path class="cls-1" d="M27.078619,151.259468c.200012,0,.5,0,.5-.199997-.100006-.399994-4-.600006-4.700012-.600006-.399994,0-1.700012,0-1.299988.399994.200012.199997,5,.5,5.600006.5l-.100006-.099991Z"/>
  <path class="cls-1" d="M32.478613,177.559471l-.5-.199997c-1.200012-.199997-3.299988-.199997-4.600006-.399994-.200012,0-1.600006,0-1.5.199997.899994.300003,1.899994.199997,2.700012.300003.899994,0,3.600006.399994,4,0l-.100006.099991Z"/>
  <path class="cls-1" d="M36.478613,24.859464c0-.1-.200012-.200001-.5-.299999-.600006-.1-5.399994,0-5.600006.200001-.399994.299999.899994.5,1.299988.5.700012,0,4.600006,0,4.799988-.4l.000031-.000002Z"/>
</svg>