<?xml version="1.0" encoding="UTF-8"?>
<svg id="Ebene_1" data-name="Ebene 1" xmlns="http://www.w3.org/2000/svg" viewBox="0 0 37.377751 208.35215">
  <defs>
    <style>
      .cls-1 {
        fill: #010101;
      }
    </style>
  </defs>
  <path class="cls-1" d="M15.764744.747898c.899994-1.2,3.600006-.9,4.299988.5.799988,1.5,1.899994,4.9,2.600006,6.7,3.299988,8.700001,5.799988,17.799999,7.700012,27.200001,2.799988,13.5,4.700012,27.600002,5.899994,41.700001,0,.599998.399994,1.199997.399994,1.800003.299988,9.5.799988,19.299995.700012,29-.299988,18.099998-1.899994,36.400002-4.600006,54.000008-1.399994,9.399994-3.700012,18.699997-6,27.800003-1.5,6.100006-3.700012,10.800003-5.399994,16.600006-.200012.699997,0,2.399994-.899994,2.300003-.200012,0-.5-.300003-.700012-.399994-.899994-.199997-2-.199997-2.5-1.600006-.200012-.600006-.100006-1.300003-.299988-1.899994-.399994-1.199997-1.600006-3.399994-2.200012-5-6.299988-17.600006-9.799988-39.5-12.100006-58.699997-.899994-7.899994-1.299988-15-1.799988-22.900002,0-.599998-.399994-1.099998-.399994-1.800003-.299988-10-.600006-19.900002-.399994-29.900002.299988-15.5,1.799988-33.099998,4.399994-48.400002,1.399994-8.5,5.399994-24.4,8.799988-31.9.399994-.8,1.200012-1.7,1.700012-2.7.299988-.7.399994-1.7.799988-2.2h0v-.200027ZM17.964756,200.147895c.200012,2,2.399994,1.800003,2.100006,3.800003.799988-.899994,1-2.800003,1.5-4.100006,6-16.399994,9.799988-34.300003,11.799988-52.399994,3.899994-34.599998,3.5-68.900002-2.799988-102.900002-2-10.799999-4.5-21.9-8.399994-31.700001-.200012-.5-1.100006-3.5-1.299988-3.5-.700012,1.3-2.799988-.2-3.700012-.8-.5-.3-1-.8-1.399994-1.3-.100006,0-.399994.3-.100006.7.399994.6,1.100006,1.1,1.600006,1.6.200012.2.200012.6.399994.7.799988.6,3.5,0,3.399994,2.2-1.5.4-2.700012-1.5-3.899994-2.2-.399994-.2-.799988-.2-1.200012-.4-.299988-.2-.700012-1.3-.799988-1.3-.600006,0-.700012,1-.299988,1.7.5,1,4,2.6,5,3.4.200012.2.200012.7.5.8.399994.2,1.200012,0,1.600006.3v.9c-1.799988-.7-4-1.3-5.799988-2.5-.299988-.2-.899994-.7-1.100006-1-.299988-.4-.399994-1.4-1.100006-.6-.5.5.399994.9.600006,1.2.299988.4.899994,1.6,1.100006,1.8.399994.3,1,.2,1.399994.4,1.700012,1,3.399994,2.5,5.299988,3l1.299988,1.200001c-.5,1.4-2.399994-.6-3-.9-1-.4-2.5-.700001-3.399994-1.200001-.600006-.299999-1-1.1-1.700012-1.200001s-1.399994.700001-1.600006-.4l-1.600006.4c.200012.4.5.5.899994.6,2.799988,1.299999,6.100006,2.799999,8.799988,4.4.299988.200001,2.299988,1.200001,1.899994,1.9-.299988,0-.5.200001-.799988.1-2.399994-.700001-6.799988-3.4-9.200012-4.800001-.5-.299999-1-.700001-1.5-1.200001l-1,1.299999c0,.6,3.5,2.299999,4.100006,2.700001,2.600006,1.4,5.299988,2.9,7.899994,4.200001.799988.4,2-.200001,1.799988,1.9-.299988.4-4.600006-2.1-5.399994-2.5-2.5-1.200001-5.100006-2.4-7.600006-3.799999-.299988-.200001-.5-.700001-.700012-.799999-1-.1-.799988,1.799999,0,2.200001l14.399994,7.6.399994.9c-.200012.4-.399994.500002-.799988.500002-.5,0-2.700012-1.6-3.5-2-2.600006-1.299999-5.399994-2.5-8-3.799999-1.299988-.6-2.600006-1.4-3.700012-2.200001l-.299988,2.1c1.100006.200001,2,1.200001,2.899994,1.700001s1.899994.6,2.799988,1.200001c1.200012.700001,3,2.299999,3.899994,3.6-1.5.400002-2.799988-1.299999-4.100006-2.1-1.200012-.700001-2.5-1.200001-3.799988-1.9-.799988-.4-2.200012-2.299999-2.600006-.299999.100006.6,7.5,4.5,8.5,5.099998,2.899994,1.700001,5.899994,3.299999,8.799988,5,.399994.200001,2.299988,1.400002,1.799988,2.099998-.399994,0-.799988-.099998-1.200012-.299999-5.399994-2.400002-10.399994-6.200001-15.700012-9.1-.5-.299999-2.600006-1.5-2.799988-.5-.100006.799999,1.200012,1.699999,1.700012,1.999998,1.799988,1.200001,3.700012,2,5.600006,3,1.399994.799999,2.799988,1.799999,4.299988,2.400002l.200012,1h-1.100006c-.899994-.299999-2.700012-1.799999-3.700012-2.400002-.600006-.299999-1.200012-.299999-1.700012-.599998-.899994-.5-5.399994-3.299999-5.899994-2.799999,0,.299999-.299988.700001-.200012,1,0,.5,2.600006,1.799999,3.200012,2.099998,1.299988.799999,2.799988,1.700001,4.200012,2.5,2.700012,1.5,5.600006,2.700001,8.299988,4.200001l.399994,1.099998c-1.299988.200001-2.299988-1-3.5-1.599998-2-1-4-1.799999-6-2.700001-1.899994-.799999-4.200012-2.700001-6.100006-3.700001-.5-.299999-1,.099998-.899994.900002.200012.900002,2.100006,1.5,2.700012,1.900002,5.700012,3.599998,12.100006,6.400002,17.899994,10.299999.700012.5,1.700012,1,2.5,1.400002v1.099998c-.200012.299999-5.700012-3.299999-6.399994-3.700001-2.600006-1.5-5.399994-2.599998-8-4.099998-2.200012-1.200001-6.200012-4.299999-8.299988-4.900002-.5-.099998-1.100006-.200001-1.100006.700001,0,.299999,2.399994,1.799999,2.799988,2.099998,3.399994,2.099998,7.100006,3.700001,10.5,5.900002l.200012,1.299999-13.200012-7.299999c-.5-.299999-.600006.200001-.600006.799999.399994,1.099998,10.899994,6.299999,12.600006,7.299999,3.600006,2,7.100006,4.200001,10.700012,6.299999.700012.400002,1.899994,0,1.799988,1.900002-1.200012-.5-2.5-1-3.600006-1.599998-3.600006-1.900002-7.100006-4.299999-10.700012-6.299999-3-1.700001-6.200012-2.900002-9.299988-4.700001-.899994-.5-1.5-2.200001-1.899994.5.5.299999,1.200012.5,1.700012.799999,5.899994,3.5,12.100006,7.299999,18,10.399998,1.700012.900002,2.799988,1.5,4.5,2.700001.200012.200001,2.899994,1.200001,2.399994,2.099998l-.899994.200001c-1-.700001-2.200012-1.700001-3.200012-2.400002-1.700012-1.099998-3.5-1.599998-5.100006-2.400002-4.799988-2.400002-9.399994-5.5-14.100006-8-.600006-.299999-2.899994-2-3.200012-1.799999-.200012.099998-.5.599998-.399994.900002l26.899994,16.399998v.900002c-.200012.5-3.899994-2.200001-4.5-2.599998-5-2.599998-9.299988-5.299999-14.200012-8.200001-2.600006-1.599998-5.399994-2.700001-7.899994-4.5l-.600006.700001c0,.400002.200012.599998.399994.799999,2.899994,2.799999,8.100006,4.900002,11.299988,7.200001,3,2.900002,6.600006,4.200001,9.799988,6.300003.200012.099998,1.799988,1.300003,1.399994,1.699997-.5.099998-.899994,0-1.399994-.300003-1.700012-.699997-4.399994-2.599998-6.200012-3.700001-4.399994-2.700001-8.799988-5.599998-13.200012-8.5-.600006-.400002-1.200012-.900002-1.700012-1.5l-.899994.700001c1,1.599998,2.600006,2.099998,4,3.099998,3.100006,2.200001,6.299988,4.599998,9.5,6.799999,4.399994,2.999996,9.299988,4.700001,13.700012,7.700001.5.400002,1.399994.800003,1.600006,1.699997-.200012,1.300003-2.299988-1-2.700012-1.199997-1.299988-.800003-3-1.300003-4.299988-2-6.100006-3.400002-11.600006-7.400002-17.5-11.099998-1.299988-.799999-2.700012-1.799999-3.899994-2.900002-1.299988,1.900002.399994,1.900002,1.299988,2.599998,1.600006,1.200001,3.200012,2.299999,4.899994,3.200001.700012.400002,2.200012.700001,2.700012,1.200001.200012.299999.100006.599998.100006.900002-.600006.699997-5.5-2.299999-6.299988-3.299999-.700012-.099998-2.600006-1.599998-3.100006-1.700001-.899994-.099998-.399994,1.200001.200012,1.799999,3.200012,2.900002,7.100006,3.200001,10.5,4.799999,3.600006,1.599998,7.700012,4.699997,11.100006,6.800003,2.299988,1.400002,5,2.5,7.100006,4.400002.200012.199997.600006.599998.600006,1l-.899994.400002c-4.700012-3.400002-9.700012-6.400002-14.600006-9.099998-3.299988-1.800003-6.700012-3-10-4.599998-.799988-.400002-3.700012-2.5-4.200012-2.5-.299988,0-.700012.400002-1,.700001.399994.799999,1.100006,1.200001,1.700012,1.500004,2.799988,1.699997,5.799988,2.400002,8.700012,3.699997,1.5.699997,3.399994,2.099998,4.899994,3,.799988.5,3.700012,1.599998,4.100006,2.300003.200012.400002.200012.599998.200012,1.099998-.200012.300003-2.600006-1-3-1.300003-2.100006-1.199997-4.200012-2.900002-6.399994-3.900002-3-1.5-6.399994-2.300003-9.399994-4.300003-.700012-.199997-1,.699997-.399994,1.400002.200012.199997,1.399994,1,1.799988,1.099998,3.299988,1.599998,6.100006,2.599998,9.600006,4.5,3.700012,2.099998,8.700012,4.5,12.100006,7.300003.700012.599998,1.5,1.099998,1.600006,2.400002-.799988.400002-.799988-.400002-1.100006-.699997-5.200012-3.400002-11.5-7.5-16.799988-10.199997-1.600006-.800003-2.299988-.699997-3.700012-1-.700012-.199997-2.5-1.900002-3.100006-2-1-.099998-.299988,2.099998.399994,2.800003,3.899994,3.699997,9.299988,6,13.700012,9,4,2.800003,8.100006,6.199997,12,8.900002,1.200012.900002,2.899994,2,4.100006,3,.200012.199997.600006.300003.5.800003-.200012,1.199997-2.600006-.900002-3-1.300003-1.299988-1.099998-2.799988-2.099998-4.200012-3.099998-7.700012-5.099998-15.600006-10.099998-23.100006-15.5-.399994-.300003-.5-.900002-1.100006-.699997l-.200012,2.099998c1,.099998,1.899994,1.5,2.799988,1.900002,7.600006,4.099998,14.5,8.900002,21.600006,14.5.200012.199997,1.799988,1.5,1.5,1.900002-1.399994-.699997-2.899994-1.400002-4.200012-2.300003-3.799988-2.599998-7.299988-5.900002-11.200012-8.5-2.700012-1.800003-5.399994-3-8.299988-4.599998-1.100006-.599998-2.299988-2.5-2.700012-.300003.899994.199997,1.5,1.300003,2.299988,1.699997,3.5,1.699997,6.5,3.400002,9.799988,5.800003,4.899994,3.599998,9.600006,7.800003,14.600006,11.199997.5.5.399994,1.400002-.299988,1.099998-2.899994-2.300003-6-4.099998-8.899994-6.300003-3.600006-2.599998-6.899994-5.900002-10.600006-8.099998-2.100006-1.199997-4.299988-1.5-6.100006-3.5-.600006-.199997-1,.699997-.5,1.300003,6,4.300003,12.200012,8.099998,18.200012,12.5,1.399994,1,2.600006,2.300003,4,3.400002,1.100006.900002,3,1.699997,4,2.800003.399994.400002.5.599998.399994,1.300003-.399994.099998-.600006,0-1-.300003-2.399994-1.5-5-4-7.399994-5.800003-5.299988-3.900002-10.600006-7.400002-16-10.800003-.399994-.300003-1.799988-1.5-1.899994-1.5-1-.300003-.399994,1.400002.399994,2.099998,2.899994,2.599998,6.799988,4.5,9.899994,6.699997,3.200012,2.199997,6.299988,4.900002,9.5,7.099998.5.300003,1.399994.5,1.799988.900002.299988.300003.299988,1,.600006,1.300003,1.299988,1.400002,4.899994,3.400002,6.600006,4.800003.899994.699997,2.299988,1.699997,2.799988,2.900002-.700012.400002-1.600006-.5-2.299988-1-2.899994-2-5.700012-4.699997-8.5-6.900002-5.299988-4.099998-10.799988-7.900002-16.299988-11.5-1.600006-1-3.100006-2.199997-4.600006-3.400002-1.299988,0-.5,1.199997.100006,1.900002,2.299988,2.400002,5,3.800003,7.5,5.599998,3.899994,2.800003,7.700012,5.800003,11.5,8.699997,2.100006,1.599998,4.399994,2.599998,6.100006,4.800003-.5.400002-1.200012,0-1.700012-.300003-3.200012-1.699997-6.399994-4.599998-9.5-6.800003-3.5-2.5-7.299988-4.900002-10.600006-7.5-.600006-.5-3.799988-3.699997-4-3.599998-.200012,0-.399994.5-.200012.900002.399994,1.099998,2.5,2,2.899994,3.5-1.200012.699997-2.899994-3.099998-3-.300003,3.299988,3.199997,6.799988,6,10.299988,8.699997,2.700012,2,5.399994,4,8.100006,6,1.299988,1,3.100006,1.800003,4.399994,2.800003.299988.300003.799988.800003.799988,1.400002-.299988.300003-5-2.699997-5.700012-3.199997-4.899994-3.400002-11.100006-7.699997-15.5-11.800003-.399994-.300003-2.100006-3.199997-2.399994-1.800003.100006.599998.799988,1.5,1.200012,1.900002.799988.800003,3,1.900002,3.399994,2.599998.399994.599998.200012,1.199997.399994,1.400002.200012.300003,4.399994,3,5.100006,3.5,2.899994,2.099998,6.700012,4.5,9.299988,7,.299988.300003.600006.800003.399994,1.099998-.299988.400002-1-1.199997-1.299988-1.300003-.5-.300003-1.200012-.099998-2-.5-2.399994-1.300003-5.799988-4.400002-8.200012-6.199997-.700012-.5-2.899994-1.300003-3.299988-2.300003-.200012-.400002,0-1-.299988-1.300003s-2.299988-1.5-2.899994-2c-.5-.400002-.899994-.800003-1.299988-1.400002l-.700012,1c.799988,1,1.899994,1.599998,2.899994,2.599998,1.299988,1.300003,2.600006,3.300003,4,4.400002.700012.599998,1.600006.699997,2.299988,1.199997,3.5,2.599998,7,5.5,10.5,8,1.899994,1.400002,4,2.5,5.899994,4v1c-.299988.400002-6.100006-3.800003-6.899994-4.300003-4.299988-3.199997-8.5-6.900002-12.899994-9.699997l-4.799988-4.599998h-.5c-.100006,1.300003.899994,1.699997,1.5,2.5,3.399994,4.5,9.200012,7.599998,13.399994,10.699997.399994.300003.600006.699997,1,1,4.899994,3.699997,10.899994,7,15.399994,11.699997.200012.300003.5.599998.700012.900002.299988,2.099998-2.799988-1.300003-3.200012-1.599998-5-4-10.200012-7.5-15.200012-11.300003-4.5-3.300003-8.899994-6.300003-12.899994-10.599998-.200012-.199997-.299988-.599998-.600006-.400002.200012.400002.399994,2.5.5,2.599998,0,0,.5.099998.700012.300003,4.899994,4.099998,10.100006,7.400002,15.100006,11.199997.700012.5,4.700012,3.300003,4.700012,3.800003,0,1-.5.800003-1,.5-3.399994-1.800003-7.600006-5.800003-11-8.300003-2.799988-2-5.700012-3.5-8.299988-6-1.399994,2.5,0,2.5,1.100006,3.5.399994.400002,2,2.099998,2,2.5s-.200012.800003-.5.699997c-.5,0-2.5-2.699997-2.700012-2.300003-.600006,2.599998.299988,3.099998,1.600006,4.400002,2.5,2.400002,6.200012,4.699997,8.399994,7.300003.200012.300003.5.800003.399994,1.300003-.5.699997-2.899994-2.099998-3.5-2.5-1.700012-1.400002-3.399994-2.599998-5-4-.600006-.5-1.100006-1.199997-1.700012-1.800003l-.399994,1.199997c.799988.699997,1.299988,1.5,2.100006,2.199997,7.600006,6.800003,16,11.499992,23.799988,18.099998,1.299988,1.100006,2.700012,2.199997,3.899994,3.5-.600006,1.399994-1.399994-.300003-2.200012-.899994-6.399994-5.199997-13-9.399994-19.5-14.199997-2.399994-1.800003-4.899994-4.199997-7.299988-6.199997-.5-.400002-.399994,1.199997-.200012,1.699997.200012.599998.700012.800003,1.100006,1.199997l13,9.699997c.200012,1.699997-.799988,1-1.600006.5-3.299988-2.199997-7-5.199997-10.399994-7.599998-.5-.400002-1.299988-1.300003-1.700012-1.5-.399994-.199997-.5,1.199997-.399994,1.5,0,.199997,1.799988,2,2.100006,2.199997,3.799988,3.200005,9,6.099998,13.100006,9.099998,2.200012,1.600006,4.399994,3.199997,6.600006,4.699997l-.5,1.199997-20.600006-14.800003c-1,.199997-.200012,1.5.200012,2,1.600006,2.100006,6.700012,5,8.899994,6.600006,4,3,8.100006,5.899994,12.100006,9.100006,1,.800003,2.299988,1.300003,3.100006,2.800003l-.299988.699997c-.399994.199997-3.700012-2.800003-4.5-3.300003-5.700012-4.199997-11.5-8.5-17.100006-12.600006-.600006-.399994-1.799988-1.699997-2.299988-1.899994-.399994-.199997-.299988,0-.299988.399994,0,1,.200012,1.199997.600006,1.800003,1.399994,1.699997,4.299988,3.5,6,4.800003,5.5,4.100006,11,8.199997,16.299988,12.699997.600006.5,3.399994,2.5,3.600006,3s-.600006.800003-.799988.600006c-5.600006-4.899994-11.399994-9.100006-17.200012-13.300003-2.399994-1.699997-4.700012-3.800003-7.100006-5.600006-.200012-.100006-.899994-.699997-1-.5-.600006,2.300003,2.100006,3.5,3.299988,4.399994,4.700012,4,9.799988,7,14.700012,10.899994,2.100006,1.699997,4.100006,3.699997,6.100006,5.5.200012.199997,3.899994,2.899994,1.600006,2.600006-.700012-.100006-2.5-2.300003-3.299988-2.899994-4.799988-4-9.899994-7.199997-14.700012-11.100006-2.200012-.699997-4.600006-3.899994-6.600006-5-1.100006-.600006-1,.699997,0,1.600006,1.200012,1.199997,3.100006,2.300003,4.399994,3.399994,5,3.899994,10.100006,7.800003,15,12.199997.600006.5,2.100006.899994,1.600006,2-.299988,0-.5,0-.700012-.199997-3.200012-1.899994-6.5-6-9.799988-7.800003l-10.600006-8c0,.5,0,.899994.200012,1.300003.399994.899994,3.399994,2.699997,4.299988,3.5,5.299988,4.300003,10.700012,8.699997,16,13.199997.200012.199997,1.5,1.300003,1.5,1.5.100006.600006-.200012,1.199997-.600006.899994-2.799988-2.5-5.799988-4.699997-8.600006-7-2.5-2-5-4.100006-7.600006-6.100006-1.200012-1-3.100006-3-4.200012-3.699997-.700012-.399994-.700012.899994-.399994,1.300003l21.700012,18.5-.299988.699997c-.399994.100006-2.700012-2.5-3.200012-2.899994-4-3.300003-8.100006-6-11.899994-9.600006-.299988-.300003-1-.5-1.299988-.899994-.200012-.300003-.200012-.899994-.299988-1,0,0-.799988,0-1.200012-.300003-.5-.300003-3-2.800003-3.299988-2.399994-.5.800003,1,2.100006,1.299988,2.399994,6.200012,5.899994,13.600006,10.800003,19.399994,17,.200012.199997,1.5,1.600006,1.5,1.800003.5,1.5-1.299988,0-1.600006-.199997-5.299988-4.199997-10.100006-9.300003-15.399994-13.399994l-4.899994-4.300003c-.299988,2.199997,1.100006,2.399994,2,3.300003,5.200012,5,11.799988,11.800003,17.299988,15.5.299988.199997,2.5,2.399994,1.600006,2.5-1.100006.300003-1.799988-1.5-2.5-1.899994-6.100006-3.899994-11.399994-10.5-17.299988-15.300003-.299988-.199997-.399994-.399994-.799988-.300003v1.300003c2.299988,2.5,5,4.399994,7.399994,6.600006,3,2.800003,5.799988,5.899994,8.899994,8.5-.100006.899994-.5.800003-1,.5-1-.600006-3.299988-2.800003-4.399994-3.699997-3.100006-2.800003-5.899994-6.199997-9.200012-8.600006-.299988-.199997-.399994-.600006-.899994-.399994-.100006,1.100006.299988,1.600006.899994,2.199997.899994,1,2.299988,1.899994,3.299988,2.899994,3.100006,3.100006,6.200012,6.199997,9.299988,9.300003,0,.399994.200012.800003-.299988.699997-.600006-.100006-1.5-1.5-2.200012-1.699997l-10-9.600006-.299988.399994c.299988,2.300003,3.5,3.5,3.799988,5.399994,0,.399994.100006.899994-.299988.699997-.799988-.300003-1.700012-2.100006-2.399994-2.399994-.600006-.199997-.299988.899994-.100006,1.399994.399994.699997,2.100006,2.399994,2.700012,3,3.5,3.600006,7.299988,6.699997,10.799988,10.199997.399994.399994,2.399994,1.699997,2.299988,2.399994,0,.300003-.399994.5-.700012.399994-.200012,0-3-2.5-3.399994-2.899994-2.600006-2.399994-5.299988-5.300003-7.899994-7.800003-.700012-.600006-2-1.800003-2.700012-2.300003-.299988-.199997-.200012-.5-.5.199997l.700012,1.899994c1.5,1.600006,13.200012,11.5,13.399994,12.600006,0,.600006-.5,1-.899994.600006l-11.799988-11c-.899994-.600006-.5,1.199997.100006,1.899994.700012.800003,2.399994,2.399994,3.299988,3.199997,3,2.800003,6.399994,4.899994,9,8.5l-.200012.699997c-.299988,0-.600006,0-.799988-.100006-.799988-.5-2.799988-3.100006-3.799988-4-2.200012-2-4.600006-3.699997-6.600006-5.899994l-.5.199997c.600006,2.600006,2.600006,3.5,4.100006,5-.799988,1.600006-1.899994-.399994-2.700012-1-.299988-.300003-.5-.199997-.5.100006l1.799988,3.300003c.899994.899994,7.299988,5.899994,7.399994,6.5s-.200012,1.199997-.700012,1l-7-6.199997.600006,2.5c.799988.800003,6.600006,5.699997,6.600006,6.199997,0,.600006-.600006.899994-.899994.699997-.899994-.300003-3.899994-4.100006-4.600006-4.100006-.5,0,0,1.699997.200012,2,.700012.300003,4.5,4.100006,4.399994,4.699997-.899994,1.800003-2.399994-2-3-1.300003h0l-.099792.800079ZM12.664738,14.847898c1.5.700001,2.5,1,.899994-1.2-.600006-.2-.700012.7-.899994,1.2ZM16.064732,6.547898c1.5.3,2.700012,2.1,4.299988,2.1l-.799988-2.4c-.399994,0-.700012.6-1.100006.6-.899994,0-1.899994-2.2-2.5-.3h.100006Z"/>
  <path class="cls-1" d="M14.86475,120.947898s0,.599998-.100006.5c-2.600006-2.5-5.899994-4-8-7.099998h1c1.200012.300003,5.399994,3.900002,6.899994,5,4.700012,3.300003,9.600006,6.300003,14.100006,10.099998,1.299988,1.100006,3.399994,2.699997,4.600006,4,.299988.300003.5.5.399994,1-1.299988.199997-2.200012-1.5-3.100006-2.300003-2.700012-2.300003-5.299988-3.699997-7.899994-5.599998-.899994-.699997-7.399994-6-7.799988-5.599998h-.100006Z"/>
  <path class="cls-1" d="M5.564732,91.247901c.399994,0,.600006,0,1,.300003,5.299988,4.300003,10.799988,8.199997,16.299988,12.099998,2.899994,2.099998,6.100006,3.800003,9.100006,5.900002.200012.099998,2.5,1.699997,2.200012,2.199997-1.200012.5-2.200012-1.400002-3-1.900002-7.700012-4.5-15.899994-9.300003-23.100006-15.400002-.399994-.300003-2.899994-2.300003-2.399994-3.099998l-.100006-.099998Z"/>
  <path class="cls-1" d="M7.064732,71.3479c0-.199997-.200012-1.599998.299988-1.400002.299988.099998.799988.699997,1.299988.900002,6.399994,2.800003,12.399994,7.400002,18.299988,11.800003.600006.400002,3.5,2.099998,3.5,2.599998-.200012.400002-.399994.5-.799988.5-.700012,0-3-2.199997-3.799988-2.699997-5.299988-3.599998-10.600006-7.199997-16.100006-10-.399994-.199997-2.600006-1.400002-2.600006-1.5l-.099976-.200005Z"/>
  <path class="cls-1" d="M22.064732,121.747901v1.099998l-15.600006-11.400002c.5-.900002,1.399994-.099998,2,.199997,2.5,1.400002,5.799988,4,8.200012,5.800003,1.799988,1.400002,3.600006,2.800003,5.399994,4.199997v.100006Z"/>
  <path class="cls-1" d="M12.664738,169.447898l1.200012.300003,6.799988,7.199997c1.5.399994,2.700012,2.199997,4,3.399994.200012.199997.5.100006.299988.800003,0,.300003-.399994.600006-.700012.300003-1.200012-1.100006-2.299988-2.199997-3.399994-3.300003-2.100006-1.899994-5.799988-4.699997-7.5-7.100006-.299988-.399994-.700012-1-.600006-1.600006l-.099976.000015Z"/>
  <path class="cls-1" d="M20.764744,135.147895c-.399994-.300003-1.299988-.300003-1.700012-1.100006l.700012-.399994c1.299988,1.100006,2.799988,1.800003,4.200012,2.800003,2.200012,1.600006,5.799988,4.5,7.700012,6.5.299988.300003.700012.699997.700012,1.300003-.799988.199997-1.200012-.600006-1.700012-1-3.399994-2.300003-6.799988-5.300003-9.899994-8.100006h-.000031Z"/>
  <path class="cls-1" d="M23.36475,73.447898c.299988-.400002,2.799988,1.5,3.299988,1.800003,1.700012,1.199997,3.600006,2.300003,5.399994,3.5.399994.300003,1.899994,1.300003,1.799988,1.900002q-.299988.5-.700012.300003c-.799988-.300003-1.899994-1.5-2.600006-2-1.399994-.900002-2.700012-1.699997-4.100006-2.699997-.700012-.5-2.399994-1.199997-2.899994-1.900002-.299988-.400002-.299988-.5-.200012-1l.000061.099991Z"/>
  <path class="cls-1" d="M21.764744,190.947898c.600006.699997,3.100006,2.800003,1.399994,3-1.600006-2.100006-4-3.600006-5.600006-5.600006-.899994-1.100006-.600006-1.800003.5-1.199997,1,.600006,2.899994,2.800003,3.799988,3.800003h-.099976Z"/>
  <path class="cls-1" d="M20.564732,32.3479c0-.099998,2,.599998,2.399994.700001.799988.400002,3.200012,1.700001,3.899994,2.299999.799988.700001.399994,1.5-.399994,1.200001-.700012-.200001-4.100006-2.200001-4.899994-2.700001-.5-.299999-1.100006-.5-.899994-1.5h-.100006Z"/>
  <path class="cls-1" d="M20.964756,48.047897c1.399994-.200001,2.5,1.400002,3.600006,2,.899994.5,2.700012,1.099998,3.299988,1.599998.200012.099998.600006,1.099998.600006,1.200001-.899994-.400002-2-.599998-2.799988-1-1-.5-1.899994-1.099998-2.899994-1.599998-.299988-.200001-2.299988-1.400002-1.799988-2.099998l-.000031-.100002Z"/>
  <path class="cls-1" d="M28.964756,80.8479c.399994,0,.700012,0,1,.199997.799988.400002,3.600006,2.400002,4.200012,3.099998.399994.400002.399994.5.299988,1.099998-.899994.300003-1.299988-.699997-1.899994-1.099998-.899994-.599998-2.799988-1.599998-3.5-2.300003-.299988-.300003-.200012-.5-.200012-1l.100006.000008Z"/>
  <path class="cls-1" d="M29.264744,47.147899c-.399994.200001-3.5-2.599998-4.399994-2.5-.799988-.700001-.799988-1.900002,0-1.5,1.5.900002,3,1.900002,4.5,2.700001l.200012.599998c0,.299999-.200012.700001-.299988.700001h-.000031Z"/>
  <path class="cls-1" d="M15.664738,124.3479v-1.099998l4.799988,3.199997.299988,1.199997c-.600006.800003-4.200012-3.099998-5.100006-3.300003l.000031.000008Z"/>
  <path class="cls-1" d="M23.164738,111.3479c.600006-1.400002,1.100006-.199997,1.5.099998.700012.400002,4.200012,2.300003,4.100006,3.300003,0,.199997-.399994.599998-.600006.300003l-4.899994-3.699997-.100006-.000008Z"/>
  <path class="cls-1" d="M28.264744,42.947898c-.200012.200001-4.899994-2-4.899994-2.5,0-.900002,2.5.099998,2.799988.299999.200012.099998,2.600006,1.700001,2.100006,2.200001Z"/>
  <path class="cls-1" d="M21.664738,174.747901c.399994-.600006,4.200012,2.600006,4.100006,3.399994,0,.300003-.299988.5-.600006.300003-.399994-.199997-3-2.399994-3.200012-2.699997-.299988-.399994-.200012-.5-.200012-1h-.099976Z"/>
  <path class="cls-1" d="M28.264744,66.3479l.399994-.900002,4.399994,3.099998c-.200012.199997-.399994.800003-.700012.699997-.200012,0-2.700012-2.099998-3.100006-2.5-.299988-.199997-.600006-.400002-.899994-.400002h0l-.099976.000008Z"/>
  <path class="cls-1" d="M29.564732,98.3479c.200012-.199997,3.600006,2.400002,3.899994,2.699997.399994.400002.399994.5.299988,1.099998-.399994,0-.700012,0-1-.199997-.399994-.199997-2.5-2-2.799988-2.300003-.399994-.400002-.5-.599998-.399994-1.300003v.000008Z"/>
  <path class="cls-1" d="M30.464756,92.947898v-.800003c.299988-.400002,4.299988,2.400002,4.299988,2.800003-.200012.199997-.299988.699997-.600006.599998-1-.300003-2.5-2.300003-3.600006-2.599998h-.099976Z"/>
  <path class="cls-1" d="M30.464756,116.147895c1.600006-.199997,2.600006,1.800003,4,2.099998v1.099998c-.299988.400002-3.100006-1.900002-3.600006-2.300003-.299988-.300003-.600006-.300003-.5-.900002h0l.100006.000008Z"/>
  <path class="cls-1" d="M21.264744,128.747901v-.800003c.299988-.399994,4.600006,2.199997,3.899994,3.300003-.5-.199997-3.700012-2.100006-3.799988-2.399994h0l-.100006-.100006Z"/>
  <path class="cls-1" d="M25.464756,131.247901c1.100006-.300003,1.600006.899994,2.399994,1.600006.5.399994,1.899994.600006,1.700012,2-.299988.300003-3.299988-2.100006-3.600006-2.5-.200012-.300003-.5-.5-.399994-1h0l-.100006-.100006Z"/>
  <path class="cls-1" d="M31.064732,119.947898c.299988-.400002,3.5,1.599998,3.200012,3-.299988.400002-2.700012-1.5-3-1.900002s-.200012-.5-.200012-1v-.099998Z"/>
  <path class="cls-1" d="M31.164738,150.647895s-1.100006-1.100006-1.299988-1.300003c-.5-.5-1.399994-1.899994-.200012-1.5.5.199997,3.200012,2,2.600006,2.800003-.299988,0-.700012.100006-1,0h-.100006Z"/>
  <path class="cls-1" d="M33.86475,98.647895c-.399994.599998-2.299988-1.300003-2.700012-1.699997-.700012-.800003-.5-1.5.200012-1.099998.399994.199997,3,2,2.600006,2.800003l-.100006-.000008Z"/>
  <path class="cls-1" d="M31.564732,113.147895c.299988-.400002,2.299988,1,2.700012,1.400002.600006.5.200012,1.400002-.399994,1.199997-.299988,0-2.700012-2.099998-2.299988-2.599998h-.000031Z"/>
  <path class="cls-1" d="M20.564732,39.147899c.200012-1.400002,2.600006.099998,2.600006.400002-.799988,1.200001-1.700012-.299999-2.600006-.400002Z"/>
  <path class="cls-1" d="M28.664738,111.947898c-.200012,0-1.799988-1.400002-1.799988-1.599998,0-1.5,3.200012,1.300003,1.799988,1.599998Z"/>
  <path class="cls-1" d="M21.464756,31.147899c-.799988.099998-1.399994-.200001-1.899994-1,.399994-1.299999,2.299988.6,1.899994,1Z"/>
  <path class="cls-1" d="M30.464756,134.747901c.700012-.100006,1.399994.800003,1.299988,1.800003-.700012.100006-1.399994-.800003-1.299988-1.800003Z"/>
</svg>