<?xml version="1.0" encoding="UTF-8"?>
<svg id="Ebene_1" data-name="Ebene 1" xmlns="http://www.w3.org/2000/svg" viewBox="0 0 36.199997 208.359502">
  <defs>
    <style>
      .cls-1 {
        fill: #010101;
      }
    </style>
  </defs>
  <path class="cls-1" d="M0,207.259511c0,.899994.300003,1.399994.800003.699997,5.600006.5,11.199997.199997,16.699997,0h1.399994c1.899994,0,3.800003.100006,5.600006.199997h0c3.5,0,7,.199997,10.5.199997.300003,0,.600006-.399994.5-.800003.5.5.600006-.5.699997-1.300003-.5-1-.899994-2.199997-1.199997-3.399994h0c0-.300003-.100006-.5-.199997-.800003h0c-.100006-.399994-.199997-.800003-.300003-1.300003-.199997-.300003-.399994-.699997-.399994-1.399994h0c-.300003-1-.5-2-.800003-3-.100006-.100006-.199997-.199997-.199997-.300003s-.100006-.5-.199997-.800003h0v-.699997h0v-.199997c-.5-2-.899994-4.100006-1.300003-6.100006h0c0-.300003-.100006-.5-.100006-.800003h0c-.199997-.899994-.300003-1.699997-.5-2.600006h0v-.699997h0v-.100006c-.300003-2.199997-.699997-4.399994-1-6.600006h0v-.399994h0c-.199997-1.100006-.300003-2.199997-.5-3.300003h0c0-.199997,0-.5-.100006-.699997h0c-.100006-.899994-.300003-1.800003-.399994-2.699997h0v-.600006h0c-.300003-1.800003-.5-3.600006-.800003-5.399994h0c0-.300003,0-.5-.100006-.800003h0c-.100006-.899994-.199997-1.699997-.300003-2.600006h0v-.600006h0c-.100006-.899994-.199997-1.800003-.300003-2.699997h0v-.300003h0c-.100006-1.100006-.199997-2.100006-.399994-3.199997h0v-.600006h0c0-.800003-.199997-1.600006-.199997-2.399994,0,0,.199997,0,.199997-.100006,0,0-.100006,0-.199997-.199997,0-.899994-.199997-1.800003-.199997-2.699997h0v-.600006h0c0-1-.199997-2-.199997-3.100006h0v-.800003h0c0-1.199997-.100006-2.399994-.199997-3.5h0v-.800003h0v-.899994c0-.300003-.100006-.600006,0-.800003v-.800003h0v-.699997h0v-.899994c-.199997-.5-.300003-1.100006-.199997-1.800003h0v-1.900009c-.199997-.300003-.199997-.800003-.300003-1.300003h0v-.5h0c-.199997-1.600006-.300003-3.199997-.399994-4.900002v-.5c0-.900002,0-1.699997-.100006-2.599998-.100006-1.400002-.199997-2.699997-.399994-4.099998h0v-.800003h0c0-.800003-.100006-1.599998-.199997-2.400002v-.5h0v-.699997h0v-2.599998h0v-.599998h0v-2.5h0v-.699997h0v-5.800003h0v-.599998h0v-2.5h0v-.5h0v-1.300003s-.100006-.199997-.199997-.300003l.199997-.300003v-1.099998c0-.900002,0-1.900002-.100006-2.800003h0v-.5h0c0-.800003,0-1.599998-.100006-2.400002h0v-.599998h0v-1.400002h0v-.699997h0c0-1.099998.199997-2.199997.399994-3.300003v-2.099998h0v-.699997h0v-4.599998h0v-.900002h0v-.699997h0v-2.400002h0v-.599998h0c.100006-3,.199997-6.099998.399994-9.099998h0v-.700001h0c0-.900002,0-1.799999.100006-2.799999h0v-.900002h0c0-.799999,0-1.700001.100006-2.5h0v-.599998h0c0-1,.199997-2,.300003-3h0v-.5h0c.100006-.799999.199997-1.599998.399994-2.5h0v-.5h0c0-.599998.199997-1.200001.199997-1.700001,0-.200001,0-.299999.100006-.5h0c0-.099998,0-.200001.100006-.299999v-.200001h0v-.599998c0-.400002.100006-.900002.300003-1.200001v-.900002h0v-.5h0c0-.400002,0-.799999.199997-.799999,0-.599998,0-1.099998.199997-1.700001v-.099998h0v-.099998c0-.299999,0-.5.100006-.599998h0c0-.700001.199997-1.299999.199997-2v-.400002h0c0-.200001,0-.5.100006-.599998v-.299999h0c0-1.200001.199997-2.299999.300003-3.5h0v-.700001h0c.199997-1,.399994-2.1.600006-3.1h0c0-.1,0-.299999.100006-.4h0c0-.5.199997-.700001.300003-.799999.199997-1.6.399994-3.1.699997-4.700001h0c0-.200001,0-.4.100006-.6h0c0-.5,0-1.1.199997-1.299999,0-.4.199997-.9.300003-1.299999-.100006-.200001-.199997-.299999-.199997-.4l.399994-.9c0-.4.199997-.799999.300003-1.200001,0,0,0-.200001-.100006-.299999h.199997c0-.299999,0-.5.100006-.7h0c0-.2,0-.4.100006-.6h-.100006c.199997-.4.199997-1.1.399994-1.2,0-.4.199997-.9.300003-1.3h0c0-.1,0-.3.100006-.4v-.2h0c.100006-.6.300003-1.2.399994-1.8,0-.3,0-.6.199997-.7.199997-1,.5-2,.800003-2.9h0c0-.2.100006-.4.199997-.6h0c.199997-.9.5-1.7.699997-2.6h0c0-.3.199997-.5.199997-.8h0c.199997-.7.399994-1.4.600006-2-.699997-.3-1.399994-.2-1.800003.5h-.600006.600006s-.100006.2-.100006.3c-.699997.3-1.399994.3-2.100006.3h-3c-3.100006,0-5.800003.3-9-.2-5.300003-.4-9.100006.2-15.199997-.3-.100006-.1-.399994-.3-.800003-.4-.399994,0-.699997,0-.899994.2.100006.4.199997.8.300003,1.2,0,.2.100006.5.199997.7.300003.9.5,1.8.800003,2.7,0,.3.199997.6.300003.9.199997.8.399994,1.5.600006,2.3,0,.3.199997.6.199997.9v.1c.100006.2.199997.4.199997.7.100006.5.199997,1.1.399994,1.6v.5c.100006.1.100006.3,0,.5h0c0,.4.199997.9.300003,1.3.199997.1.300003.6.399994,1v.2s-.100006,0-.199997.1v.700001c.199997.200001.199997.299999.199997.5h.199997c0,.200001,0,.299999-.100006.299999,0,.299999.100006.6.199997.9v.299999l.399994.700001v.6c0,.4.199997.9.300003,1.299999.100006,0,.199997.299999.300003.6v.900002c.199997.799999.300003,1.700001.399994,2.5,0,.299999,0,.5.100006.799999,0,.6.199997,1.200001.199997,1.799999,0,0,.199997.200001.199997.5v.4h0c0,.1,0,.299999.100006.4.199997.799999.399994,1.700001.600006,2.6,0,.299999,0,.599998.100006.900002.100006.900002.199997,1.900002.300003,2.799999v1.300003c.100006.200001.199997.5.100006.900002,0,.400002.100006.799999.199997,1.299999v.700001s.100006.099998.199997.299999v.400002s0,.099998-.100006.200001c0,.5.100006,1.099998.199997,1.599998h0c.100006,0,.199997.400002.199997.900002h0v1.400002c.100006.200001.199997.599998.199997.900002v1h0v.200001c.100006.200001.199997.400002.300003.700001,0,.299999,0,.599998.100006.900002v.700001c.100006.799999.199997,1.5.300003,2.299999,0,.299999,0,.599998.100006.900002.100006.799999.199997,1.599998.300003,2.5v4.200001c0,.900002,0,1.799999.100006,2.700001v1.5h0v2.299995c0,.800003,0,1.599998.100006,2.5v6.500008h0c-.199997,0-.300003.099998-.300003.199997,0,0,.100006,0,.300003.099998h0v2.099998h0v7.400002h0c.199997.800003.300003,1.599998.399994,2.400002v5.799995c0,.800003,0,1.5-.100006,2.300003v2.200005l.199997.300003c0,.099998-.100006.199997-.199997.300003v20.599998c0,.800003-.100006,1.599998-.199997,2.5v.599998c0,.599998-.100006,1.300003-.199997,1.900002v1.5c0,.900002,0,1.800003-.100006,2.699997v.199997c0,1.199997-.100006,2.300003-.300003,3.5,0,.699997,0,1.399994-.199997,1.800003v1.900009h0v1.300003c0,.199997,0,.399994-.199997.5v3.200012c0,1.199997,0,2.399994-.199997,3.5v.800003c0,.899994-.100006,1.800003-.199997,2.800003v.800003c0,.800003-.100006,1.600006-.199997,2.399994v.600006c0,.899994-.199997,1.800003-.199997,2.600006v.600006c0,.899994-.199997,1.800003-.300003,2.800003v.800003c0,.699997-.199997,1.300003-.199997,2v.800003c0,.800003-.199997,1.600006-.300003,2.399994,0,.300003,0,.600006-.100006.800003-.399994,3-.800003,6.100006-1.300003,9.100006,0,.199997,0,.399994-.100006.699997-.100006,1-.300003,1.899994-.399994,2.899994,0,.199997,0,.5-.100006.699997-.100006.800003-.199997,1.5-.399994,2.300003,0,.300003,0,.600006-.100006.899994-.300003,1.800003-.600006,3.600006-.899994,5.399994v.199997h0v.300003c0,.300003-.100006.600006-.199997.800003-.100006.800003-.300003,1.600006-.399994,2.399994,0,.199997,0,.399994-.100006.600006-.199997.899994-.300003,1.699997-.5,2.600006,0,.300003-.100006.600006-.199997.899994-.199997.800003-.399994,1.699997-.5,2.5h0v.899994c0,.399994-.100006.699997-.199997.800003,0,0-.100006.100006-.199997.300003-.100006.5-.300003,1-.399994,1.600006,0,.300003-.199997.600006-.199997.899994,0,.199997,0,.300003-.100006.5h0c0,.600006-.199997,1.100006-.399994,1.399994,0,.199997-.100006.5-.199997.699997,0,.199997,0,.399994-.100006.5-.199997.899994-.399994,1.800003-.699997,2.699997,0,.300003-.199997.5-.300003.800003h0c-.300003.199997-.399994.699997-.300003,1H.40004l-.40004.300003ZM7.599991,205.859517c-1.5-.199997-3-.300003-4.399994-.600006-.199997,0-.300003.100006-.399994.300003h-.100006c0-.399994,0-.899994.100006-1.300003,0-.399994.199997-.800003.300003-1.300003,2.399994.300003,5.199997.5,7.5.800003l6,.699997c2.300003.199997,5,.699997,7.5,1-5.5-.199997-11,0-16.5.300003h0l-.000015.100006ZM29,205.759511h0c0-.199997-1.399994-.5-1.800003-.5-3.600006-.600006-7.800003-.800003-11.5-1.300003-4-.5-8.5-1.300003-12.5-1.600006.300003-.899994.600006-1.800003.800003-2.600006h1.300003c.300003,0,.5-.100006.699997-.300003,0-.199997-1.199997-.5-1.5-.5h-.300003c.199997-.899994.399994-1.899994.600006-2.800003h0c3.100006.199997,6.100006.5,9.199997.800003h1c3.199997.300003,6.800003,1,9.899994,1.100006h1.100006l.199997-.300003c0-.399994-1.699997-.600006-2.199997-.699997-6.100006-.899994-12.600006-1.399994-18.899994-1.899994h0c.199997-.800003.300003-1.600006.5-2.5h0c2.300003.199997,4.600006.399994,6.899994.600006.699997,0,4.399994.600006,4.5.100006-.800003-.5-2-.399994-3-.600006-2.699997-.399994-5.5-.699997-8.199997-1h0c.199997-.899994.300003-1.800003.5-2.600006h.199997v-.399994h-.199997c.199997-.899994.300003-1.699997.5-2.600006h0c1.699997.100006,3.300003.300003,5,.399994.5,0,1.699997.100006,2.199997.100006.899994,0,.5-.5-.399994-.699997-2.100006-.399994-4.399994-.600006-6.600006-.800003h0c.100006-.800003.300003-1.699997.399994-2.5h0c.800003.199997,1.600006.100006,2.399994.199997,6.5.600006,13,1.399994,19.5,2.100006h0c.199997.899994.300003,1.699997.5,2.600006-3.699997-.300003-7.399994-.600006-10.899994-1l-.600006.199997.600006.300003c3.600006.300003,7.300003.800003,11,1.300003h0c.399994,2.100006.800003,4.199997,1.199997,6.199997-2.600006-.300003-5.300003-.600006-7.899994-.800003h-2.300003q0,.199997.199997.300003c.800003.399994,6.300003.800003,7.699997.899994.699997,0,1.5.199997,2.399994.300003h0c.300003,1.199997.5,2.399994.800003,3.600006.199997.899994.600006,2.100006.899994,3.199997-3.899994-.5-8.100006-1.100006-11.699997-1.300003h-1.699997q0,.199997.199997.300003c.5.300003,4.699997.600006,5.699997.699997,2.600006.300003,5.199997.699997,7.800003,1.100006h0c.100006.399994.199997.800003.300003,1.100006.199997.699997,0,1.600006.300003,2.300003-1.600006-.100006-3.199997-.199997-4.800003-.300003h0l.000015-.200012ZM7.899994,179.359517l7.5.600006,1.100006-.199997c-.100006-.100006-.199997-.199997-.399994-.300003-.800003-.300003-5.699997-.800003-8.100006-1h0c.100006-.800003.199997-1.5.300003-2.300003h0c1.300003,0,2.699997.199997,4,.199997.399994,0,2.100006,0,2.100006-.100006-.5-.399994-1.300003-.399994-2-.5-1.300003-.100006-2.699997-.199997-4-.300003h0c.100006-1,.300003-2,.399994-2.899994h0c6.199997.300003,12.5.699997,18.699997,1.100006h0c.199997,1.199997.300003,2.300003.5,3.5h0c-.100006,0-.300003,0-.199997.199997h.199997c.199997,1.100006.300003,2.199997.5,3.300003h0c-.199997,0-.399994-.100006-.699997-.199997-1.699997-.300003-5.899994-.699997-7.699997-.699997-.300003,0-.699997,0-1,.199997,0,.199997.199997.199997.300003.300003.899994.399994,3.100006.300003,4.199997.399994,1.300003.100006,2.699997.5,3.899994.5h1c.199997,1,.300003,2,.5,3-6.300003-.699997-12.600006-1.399994-18.899994-1.899994-.199997,0-1.800003-.199997-2.800003-.199997h0c.100006-.899994.300003-1.699997.399994-2.600006h0l.199997-.100006ZM9.799988,166.059514h.300003c2.600006.300003,6.100006.300003,8.699997.399994,1.699997.100006,3.600006.399994,5.199997.399994.199997,0,1.199997,0,1.100006-.199997-.199997-.199997-.399994-.199997-.600006-.199997-3.600006-.600006-9.100006-.899994-12.800003-1h-1.800003c.100006-.899994.199997-1.800003.300003-2.600006h0c2.300003.199997,5,.600006,7.199997.699997h1.100006v-.300003c-.899994-.199997-1.899994-.399994-2.800003-.5-1.800003-.199997-3.600006-.399994-5.399994-.600006h0c0-.800003.199997-1.600006.300003-2.399994h0c.600006,0,1.100006,0,1.600006.100006,4.100006.300003,8.199997.600006,12.199997,1,.5,0,1.100006.100006,1.699997.199997h0c0,.899994.199997,1.800003.300003,2.699997-1.199997,0-2.199997-.199997-3.100006-.199997-.600006,0-1.899994,0-.800003.5,1.300003.100006,2.600006.300003,4,.5h0c.199997,1.800003.399994,3.699997.699997,5.5-5.399994-.5-10.800003-.800003-16.199997-1-1.300003.5,1.100006.699997,1.800003.699997,4.800003.399994,9.699997.600006,14.600006.899994h0c.100006.899994.199997,1.800003.399994,2.600006-.399994,0-.800003,0-1.199997-.100006-5.699997-.5-11.5-.699997-17.300003-1h0c.300003-1.899994.5-3.899994.699997-5.800003h0l-.199997-.299973ZM10.799988,156.759511h0c2.5.100006,4.899994.300003,7.300003.399994,1.199997,0,3.199997.399994,4.300003.300003.199997,0,.600006,0,.600006-.300003-.100006-.199997-.300003-.199997-.5-.199997-3.5-.600006-8.100006-.699997-11.699997-1h0c.199997-2,.399994-4,.600006-6h1.699997c0,.100006.300003-.100006.300003-.100006,0-.300003-1.100006-.399994-2-.5h0c0-.800003.100006-1.600006.199997-2.399994h.600006c.800003,0,.5-.399994-.199997-.600006h-.399994c0-.899994.199997-1.899994.199997-2.800003h0c4.199997.199997,8.399994.5,12.5.899994h0c0,1,.199997,2.100006.199997,3.100006-1.100006,0-2.199997-.199997-3.300003-.300003-1.199997-.100006-2.600006-.300003-3.800003-.399994-.300003,0-1.5,0-1.5.199997,1.199997.600006,2.899994.5,4.300003.600006,1.399994.100006,2.899994.300003,4.399994.5h0c0,.800003.100006,1.699997.199997,2.5-.5,0-1.100006,0-1.399994-.100006,0,0-.399994.199997-.399994.300003,0,.300003,1,.399994,1.800003.5h0c0,.699997.100006,1.5.199997,2.199997-3.300003-.100006-6.800003-.600006-10.100006-.600006-.199997,0-1,0-1,.300003.699997.5,1.600006.300003,2.399994.399994,2.899994.199997,5.800003.399994,8.800003.600006h0c.199997,2.100006.399994,4.100006.600006,6.199997-5.199997-.5-10.300003-1-15.399994-1.5h0c0-.699997.100006-1.399994.199997-2h0l.299973-.199982ZM12.399994,136.259511h0c.899994,0,1.800003,0,2.699997.100006,2.899994.199997,5.800003.300003,8.800003.5h0c0,.800003.100006,1.600006.199997,2.399994-3-.199997-6.399994-.399994-9.100006-.399994-.5,0-1.600006,0-1.899994.399994,0,.199997,1.899994.399994,2.199997.399994,2.899994.199997,5.800003.199997,8.699997.399994h0c0,1.199997.199997,2.399994.300003,3.600006-1.100006,0-2.300003-.100006-3.399994-.199997-3-.199997-6-.5-9.100006-.699997h0c.199997-2.199997.300003-4.300003.399994-6.5h.200012ZM12.599991,132.959524h0l9.399994.399994.399994-.300003c-.199997-.199997-3.800003-.5-4.399994-.600006h-.899994c-1.5-.100006-2.899994-.199997-4.399994-.300003h0c0-.800003,0-1.699997.100006-2.5h.600006c3.300003.300003,6.699997.300003,10.100006.5h0c.100006,2,.199997,4,.399994,6-2.300003-.100006-4.600006-.300003-6.899994-.399994-1.5,0-3-.199997-4.399994-.300003h0c0-.800003.100006-1.600006.100006-2.5h0l-.100037.000015ZM13.699997,113.659521h0c3,.099998,5.899994.300003,8.899994.400002h0v1.300003c0,.599998.199997,1.099998.300003,1.5-3.100006-.199997-6.199997-.300003-9.300003-.400002h0v-2.699997h0l.100006-.100006ZM13.799988,110.459516h1.399994c1.199997-.199997.199997-.5-.5-.599998h-.899994v-2.599998h.899994c.199997,0,1.800003,0,1.399994-.300003-.399994,0-.800003-.199997-1.199997-.199997h-1.100006v-2.599998h5.199997c.300003,0,2.100006,0,2.100006-.099998,0-.199997-.300003-.300003-.5-.300003-.899994-.199997-2.399994-.199997-3.399994-.199997-1.100006,0-2.300003-.099998-3.5-.199997h0v-2.300003h0c2.800003,0,5.600006.099998,8.399994.199997h0v5.800003h-2.399994v.300003c.199997,0,.5.199997.800003.199997.5,0,1.100006,0,1.600006.099998h0v2.599998h-1.199997c-.100006,0-2.199997,0-1.699997.300003.300003,0,.5.099998.800003.199997.600006,0,1.399994.099998,2.199997.199997h0v2.599998l-8.800003-.400002h0v-2.5h0l.399994-.199997ZM13.899994,82.559514v-2.300003h0c2.899994,0,5.800003.199997,8.699997.300003h0v2.599998c-.199997-.099998-.699997-.199997-1.5-.300003l-7.100006-.300003h0l-.099991.000008ZM13.699997,76.859517h0l8.800003.199997h0v2.599998c-2.899994-.099998-5.800003-.300003-8.699997-.400002h0v-2.400002l-.100006.000008ZM13.599991,73.759519h.899994c2.600006.199997,5.399994.300003,8.100006.400002h0v2.400002h-.300003c-1.699997-.199997-4-.199997-5.800003-.300003-.899994,0-1.800003,0-2.800003-.099998h0v-2.400002h-.099991ZM13.399994,67.659521h6.600006c.399994,0,.800003,0,1.199997-.199997.399994-.300003-1.300003-.400002-1.399994-.400002-2-.199997-4.199997-.199997-6.399994-.300003h0c0-.800003,0-1.599998-.100006-2.5h6.5c.699997,0,1.699997,0,.600006-.400002-2.399994-.099998-4.699997-.199997-7.100006-.300003h0c0-.799999,0-1.599998-.100006-2.400002h0l10.199997.200001h0c-.199997,3.000004-.300003,6.100002-.399994,9.100002-3.100006-.199997-6.199997-.300003-9.300003-.5h0c0-.800003,0-1.599998-.100006-2.400002l-.199997.100006ZM12.799988,57.659517h3.399994c2.300003,0,4.800003.099998,7.199997.200001h0c0,.900002-.100006,1.799999-.199997,2.799999-2.699997,0-5.399994-.099998-8.100006-.200001h-2.100006c0-.900002-.100006-1.799999-.199997-2.799999h.000015ZM16.5,53.659517c-1.300003,0-2.600006-.099998-3.899994-.099998h0c0-.799999-.100006-1.700001-.199997-2.5h11.599991c0,1-.100006,1.900002-.199997,2.900002h0c-.800003,0-1.399994,0-1.5.200001,0,.200001.199997.200001.399994.200001h1.100006c0,.900002-.100006,1.700001-.199997,2.599998-3.600006-.099998-7.199997-.299999-10.699997-.299999h0c0-.799999-.100006-1.599998-.199997-2.400002h3.899994c.699997,0,1.899994.299999,2.100006-.400002-.699997-.099998-1.399994-.200001-2.100006-.200001h-.100006ZM12.099991,47.859517h.5c1.100006,0,3.399994,0,4.399994-.200001.199997,0,.399994-.099998.399994-.299999-.199997-.200001-3.699997-.200001-4.300003-.200001h-.899994c0-.700001-.100006-1.400002-.199997-2.099998h1.699997c.300003,0,.5,0,.5-.299999-.699997-.099998-1.399994-.200001-2.100006-.200001h-.100006c0-.799999-.199997-1.599998-.199997-2.400002h13.199982c0,.900002-.199997,1.700001-.199997,2.599998h-5.300003c-.699997,0-1.300003,0-2,.200001,0,.299999.399994.299999.699997.400002,1.899994.200001,4.300003.099998,6.5.099998,0,.700001-.100006,1.400002-.199997,2.200001-1.5,0-3.199997,0-3.399994.200001s.300003.200001.399994.299999c.800003.099998,2.100006.099998,2.899994.099998h.100006c0,.799999-.100006,1.700001-.199997,2.5-3.800003,0-7.800003-.099998-11.699997-.299999h0c0-.799999-.100006-1.599998-.199997-2.299999h0l-.299973-.299999ZM11.199997,38.759519h11.699997c3.899994,0,1.5,0,2.199997,0h0c0,.900002-.199997,1.700001-.300003,2.599998l-13.300003-.299999h0c0-.799999-.199997-1.599998-.199997-2.299999h-.099991ZM11.099991,37.459516c0-.700001-.199997-1.5-.300003-2.299999h2.199997c.800003,0,1.600006.200001,2.5,0,.399994-.5-1-.5-1.5-.599998-1.100006,0-2.199997-.099998-3.300003-.099998h0c-.100006-.900002-.199997-1.900002-.399994-2.900002h0c5.199997,0,10.399994,0,15.699997-.099998-.199997,1.200001-.300003,2.299999-.5,3.400002h-4c-.399994,0-2.199997,0-2.300003.200001.199997.400002,1.300003.400002,1.800003.5,1.300003,0,2.800003.099998,4.300003.200001h0c0,.5-.100006.900002-.199997,1.400002,0,.299999,0,.700001-.100006,1h-4c-3.300003,0-6.699997-.099998-10-.200001h0v-.299999h0l.100006-.200008ZM18.599991,27.259517c-1.600006-.299999-4.800003,0-6.600006,0h-2.300003c-.100006-.799999-.199997-1.6-.399994-2.299999h0c2.399994,0,4.800003-.1,7.199997-.200001.5,0,3.300003.200001,3.399994-.299999l-.300003-.299999h-10.399994c-.100006-.799999-.300003-1.700001-.399994-2.6h7.899994c1.399994-.1.399994-.5-.5-.6-1.5-.1-3.300003,0-4.800003-.1h-2.800003c-.100006-.799999-.300003-1.700001-.5-2.5h0c3.100006,0,6.199997-.1,9.199997-.200001,3.300003,0,7.399994.1,10.800003-.1-.199997,1-.399994,2-.5,3.1h-4.5c-.800003,0-1.699997-.200001-2.399994.200001,0,.299999.699997.299999,1,.299999,1.899994.1,3.899994,0,5.800003,0-.300003,1.9-.600006,3.700001-.899994,5.6h0c-1.300003,0-2.899994-.200001-4.100006.299999,0,.200001,1.300003.299999,1.5.299999h2.5c-.199997,1-.300003,2.1-.5,3h-15.899994c-.100006-.799999-.199997-1.700001-.399994-2.6h3.800003c1.399994,0,3.600006,0,4.800003-.200001.600006,0,1-.4.199997-.6h0l.099991-.199997ZM6.899994,12.159518h0c5.100006,0,10.5,0,15.600006-.3.899994,0,2-.2,2.800003-.3v-.3c-.300003,0-.600006-.1-1-.2-2.199997,0-5,.2-7.300003.2H6.800003c-.199997-.9-.399994-1.7-.600006-2.5h1.600006c1.5,0,2.899994-.1,4.399994-.2l.199997-.2c.100006-.6-2.199997-.4-2.800003-.5h-3.5c-.199997-.8-.399994-1.6-.600006-2.3h0c2.399994,0,4.899994,0,7.300003-.2.600006,0,1.100006.2,1.699997-.2-.199997-.5-1.100006-.4-1.699997-.5h-7.600006c-.300003-.6-.600006-1.2-.800003-1.8,0-.3-.100006-.6-.199997-.9h4.400009c4,0,7.899994.2,11.899994.3h2.400009c3.199997,0,6.399994.1,9.600006,0-.300003.9-.800003,1.7-1,2.5-3.800003,0-7.600006-.1-11.399994,0-.600006,0-3.100006,0-1.800003.6,4.300003.1,8.699997.1,13,0-.199997.8-.399994,1.6-.699997,2.5h0c-1.399994,0-3.100006.1-4.5.1-2.699997,0-6.199997-.3-8.800003-.2-.399994,0-.800003.2-1.199997.2,0,.1,0,.2.199997.3.399994.2,2.100006.2,2.600006.2,3.300003,0,7.899994.1,11.5,0h0c-.199997.8-.399994,1.6-.600006,2.5h-.199997c-.800003.3-.399994.4.100006.5h0c-.199997.9-.399994,1.8-.600006,2.8h0c-3.300003,0-6.600006,0-9.899994.1-2,0-4,.1-6,.1h-5.5c-.199997-.8-.300003-1.6-.5-2.400001h0l-.300018.099999ZM7.599991,15.459518c7-.1,14-.3,21.100006-.5-.199997.799999-.300003,1.6-.5,2.4h-3.5c-5.600006,0-11.199997-.1-16.800003-.1h0c-.100006-.6-.199997-1.200001-.300003-1.799999h0ZM13.5,70.859517c2.899994.099998,5.800003.199997,8.699997.199997h.600006v2.400002c-2.899994-.099998-5.699997-.300003-8.5-.300003h-.600006v-2.300003h0l-.199997.000008ZM14,91.559514h2.600006c1.800003.099998,2.300003-.400002,0-.5h-2.600006v-4.699997h0c.600006,0,1.300003,0,1.300003-.099998.300003-.199997-.5-.400002-.699997-.5h-.699997v-2.5h0l7.100006.199997c.800003,0,1.300003,0,1.399994-.199997v2.699997h-2.699997c-.5,0-.899994.099998-1.399994.199997v.300003c.699997.099998,1.5.199997,2.300003.199997h1.800003v1.400002c-2-.099998-4.100006-.199997-6-.199997h-2.300003v.300003c.5,0,.800003.199997,1.399994.199997,2,.199997,4.600006.199997,6.899994.300003h0v2.400002h-.600006v.300003h.600006v2.800003c-2.699997-.199997-5.5-.300003-8.300003-.400002v-2.300003h0l-.100006.099991ZM19.199997,94.859517h3.199997v5.599998c-2.699997,0-5.600006-.199997-8.399994-.199997h0v-2.300003h3.699997c.699997,0,2-.199997.5-.5l-4.199997-.199997h0v-2.5h5.199997v.099998ZM13.399994,117.659521v-.199997h0c3.199997.099998,6.399994.199997,9.5.300003h0c0,.900002,0,1.900002.100006,2.800003h0c-.199997,0-.5-.099998-.699997-.099998-.899994,0-4.399994-.300003-5.100006-.199997-.199997,0-.399994,0-.399994.199997.100006.400002,3.199997.400002,3.699997.400002.899994,0,1.699997.300003,2.5.199997h0c0,1.099998,0,2.099998.100006,3.199997-1.699997-.300003-3.5-.5-5.199997-.599998-1.600006-.099998-3.199997-.300003-4.899994-.400002,0-1.900002.199997-3.699997.199997-5.599998l.199982-.000008ZM23.199997,124.659521c0,.800003,0,1.599998.100006,2.400002-1.199997-.199997-3.699997-.300003-4.899994-.400002-.800003,0-2.100006-.099998-2.899994,0-.100006,0-.600006,0-.399994.199997.399994.300003,4.699997.400002,5.600006.5.800003,0,1.800003.300003,2.600006.199997h0c0,.699997,0,1.399994.100006,2.100006-1.100006,0-2.199997-.100006-3.300003-.199997-2.300003-.100006-5-.399994-7.300003-.399994h0c0-1.699997.199997-3.5.300003-5.199997,3.399994.099998,6.899994.400002,10.100006.800003h0l-.000046-.000015Z"/>
  <path class="cls-1" d="M30,191.159521c-.399994-.199997-4.199997-.5-5.100006-.600006-4-.5-8.100006-1.100006-12.100006-1.399994h-2.699997c0,.300003.5.5.899994.5,5.699997.300003,11.800003,1.600006,17.399994,1.899994.5,0,1.899994.100006,1.5-.399994h.100021Z"/>
  <path class="cls-1" d="M11.399994,199.759511c-.5,0-2.199997,0-1,.399994.800003.300003,3.300003.5,4.199997.5.199997,0,1.100006,0,1-.199997,0-.300003-3.5-.699997-4.100006-.699997h-.099991Z"/>
  <path class="cls-1" d="M19.399994,150.659521c.199997,0,.399994,0,.300003-.199997,0-.399994-2.899994-.600006-3.399994-.600006-.300003,0-1.199997,0-1,.399994.100006.199997,3.600006.5,4,.5h0l.099991-.099991Z"/>
  <path class="cls-1" d="M23.299988,176.959524s-.300003-.199997-.399994-.199997c-.899994-.199997-2.399994-.199997-3.300003-.399994-.199997,0-1.199997,0-1.100006.199997.699997.300003,1.300003.199997,2,.300003.600006,0,2.600006.399994,2.800003,0v.099991Z"/>
  <path class="cls-1" d="M22.699997,24.659517c.5,0,3.300003,0,3.399994-.4,0-.1-.199997-.200001-.300003-.299999-.399994-.1-3.899994,0-4,.200001-.300003.299999.600006.5.899994.5h0l.000015-.000002Z"/>
</svg>