<?xml version="1.0" encoding="UTF-8"?>
<svg id="Ebene_1" data-name="Ebene 1" xmlns="http://www.w3.org/2000/svg"
  viewBox="0 0 50.399994 208.359502"
  height="100px">
  <defs>
    <style>
      .cls-1 {
        fill: #010101;
      }
    </style>
  </defs>
  <path class="cls-1"
    d="M0,207.259511c0,.899994.399994,1.399994,1,.699997,7.700012.5,15.5.199997,23.299988,0h2c2.600006,0,5.200012.100006,7.899994.199997h0c4.899994,0,9.799988.199997,14.600006.199997.399994,0,.799988-.399994.700012-.800003.700012.5.799988-.5.899994-1.300003-.700012-1-1.200012-2.199997-1.600006-3.399994h0c0-.300003-.200012-.5-.299988-.800003h0c-.100006-.399994-.299988-.800003-.399994-1.300003-.299988-.300003-.5-.699997-.600006-1.399994h0c-.399994-1-.700012-2-1.100006-3-.100006-.100006-.299988-.199997-.299988-.300003s-.200012-.5-.200012-.800003h0c0-.300003-.100006-.5-.100006-.699997h0v-.199997c-.600006-2-1.200012-4.100006-1.700012-6.100006h0c0-.300003-.100006-.5-.200012-.800003h0c-.200012-.899994-.399994-1.699997-.700012-2.600006h0c0-.100006,0-.300003-.100006-.399994v-.300003h-.100006v-.100006c-.5-2.199997-1-4.399994-1.399994-6.600006h0v-.399994h0c-.200012-1.100006-.5-2.199997-.700012-3.300003h0c0-.199997-.100006-.5-.200012-.699997h0c-.200012-.899994-.399994-1.800003-.600006-2.699997h0c0-.199997,0-.399994-.100006-.600006h0c-.399994-1.800003-.700012-3.600006-1.100006-5.399994h0c0-.300003,0-.5-.100006-.800003h0c-.200012-.899994-.299988-1.699997-.5-2.600006h0c0-.199997,0-.399994-.100006-.600006h0c-.200012-.899994-.299988-1.800003-.5-2.699997h0v-.300003h0c-.200012-1.100006-.299988-2.100006-.5-3.199997h0v-.600006h0c-.100006-.800003-.200012-1.600006-.299988-2.399994.100006,0,.200012,0,.200012-.100006,0,0-.200012,0-.299988-.199997-.100006-.899994-.200012-1.800003-.299988-2.699997h0v-.600006h0c-.100006-1-.200012-2-.299988-3.100006h0v-.800003h0c-.100006-1.199997-.200012-2.399994-.299988-3.5h0v-.800003h0v-.899994c-.100006-.300003-.200012-.600006,0-.800003v-.800003h0v-.699997h0v-.899994c-.299988-.5-.399994-1.100006-.200012-1.800003h.100006c0-.600006,0-1.199997-.100006-1.800003v-.100006c-.200012-.300003-.299988-.800003-.399994-1.300003h0v-.5h0c-.299988-1.600006-.399994-3.199997-.5-4.900002v-.5c0-.900002,0-1.699997-.200012-2.599998-.100006-1.400002-.299988-2.699997-.5-4.099998h0v-.800003h0c0-.800003-.200012-1.599998-.200012-2.400002v-.5h0v-.699997h0c0-.900002,0-1.800003-.100006-2.599998h0v-.599998h0v-2.5h0v-.699997h0v-5.800003h0v-.599998h0v-2.5h0v-.5h0v-1.300003s-.200012-.199997-.200012-.300003l.200012-.300003v-1.099998c0-.900002,0-1.900002-.100006-2.800003h0v-.5h0c0-.800003-.100006-1.599998-.100006-2.400002h0v-.599998h0v-1.400002h0v-.699997h0c0-1.099998.200012-2.199997.600006-3.300003v-2.099998h0v-.699997h0v-4.599998h-.100006c0-.199997,0-.400002.100006-.5v-.400002h0v-.699997h0c0-.800003,0-1.599998.100006-2.400002h0v-.599998h0c.100006-3,.299988-6.099998.5-9.099998h0v-.700001h0c0-.900002.100006-1.799999.200012-2.799999h0v-.900002h0c0-.799999.100006-1.700001.200012-2.5h0v-.599998h0c0-1,.299988-2,.399994-3h0c0-.200001,0-.400002.100006-.5h0c.200012-.799999.299988-1.599998.5-2.5h0v-.5h0c.100006-.599998.200012-1.200001.299988-1.700001,0-.200001,0-.299999.100006-.5h0c0-.099998.100006-.200001.200012-.299999v-.200001h-.100006c0-.299999,0-.5.100006-.599998,0-.400002.100006-.900002.399994-1.200001v-.900002h0v-.299999s-.100006-.099998-.100006-.200001h0c0-.400002,0-.799999.200012-.799999,0-.599998.100006-1.099998.200012-1.700001l-.100006-.099998h0v-.099998c0-.299999,0-.5.200012-.599998h.100006c.100006-.700001.200012-1.299999.299988-2v-.400002h0c0-.200001,0-.5.200012-.599998v-.299999h0c0-1.200001.200012-2.299999.399994-3.5h0c0-.200001,0-.5.100006-.700001h0c.200012-1,.5-2.1.899994-3.1h0c0-.1.100006-.299999.200012-.4h0c0-.5.200012-.700001.399994-.799999.200012-1.6.5-3.1.899994-4.700001h0c0-.200001,0-.4.100006-.6h0c-.100006-.5,0-1.1.299988-1.299999.100006-.4.200012-.9.399994-1.299999-.200012-.200001-.200012-.299999-.200012-.4l.600006-.9c.100006-.4.200012-.799999.399994-1.200001,0,0-.100006-.200001-.200012-.299999h.299988c0-.299999.100006-.5.200012-.7h0c0-.2.100006-.4.200012-.6h-.200012c.200012-.4.299988-1.1.600006-1.2.100006-.4.299988-.9.399994-1.3h0c0-.1,0-.3.200012-.4v-.2h0c.200012-.6.399994-1.2.600006-1.8,0-.3,0-.6.200012-.7.299988-1,.700012-2,1.100006-2.9h0c0-.2.200012-.4.200012-.6h0c.299988-.9.700012-1.7,1-2.6h0c.100006-.3.200012-.5.299988-.8h0c.299988-.7.600006-1.4.799988-2-.899994-.3-2-.2-2.5.5h-.799988.799988s-.100006.2-.200012.3c-.899994.3-2,.3-2.899994.3h-4.200012c-4.299988,0-8,.3-12.5-.2-7.399994-.4-12.700012.2-21.100006-.3-.200012-.1-.600006-.3-1.100006-.4-.600006,0-1,0-1.200012.2.200012.4.299988.8.5,1.2.100006.2.200012.5.299988.7.399994.9.700012,1.8,1.100006,2.7.100006.3.200012.6.399994.9.299988.8.600006,1.5.899994,2.3.100006.3.200012.6.299988.9v.1c.200012.2.200012.4.200012.7.200012.5.299988,1.1.5,1.6,0,.2,0,.3.100006.5.100006.1.200012.3.100006.5h0c.100006.4.299988.9.399994,1.3.299988.1.399994.6.5,1v.2s-.200012,0-.200012.1l.200012.700001c0,.200001,0,.299999.100006.5h.299988c0,.200001-.100006.299999-.200012.299999,0,.299999.200012.6.299988.9v.299999l.5.700001v.200001c.100006.1,0,.200001-.100006.4.100006.4.200012.9.399994,1.299999.200012,0,.299988.299999.399994.6v.900002c.200012.799999.399994,1.700001.600006,2.5,0,.299999.100006.5.200012.799999.100006.6.200012,1.200001.299988,1.799999.100006,0,.200012.200001.299988.5v.4h0c0,.1.100006.299999.200012.4.299988.799999.600006,1.700001.799988,2.6,0,.299999.100006.599998.200012.900002.200012.900002.299988,1.900002.399994,2.799999v1.300003c.200012.200001.200012.5.100006.900002,0,.400002.200012.799999.200012,1.299999,0,.200001,0,.5.100006.700001,0,0,.200012.099998.200012.299999v.400002s0,.099998-.100006.200001c0,.5.200012,1.099998.200012,1.599998h0c.200012,0,.200012.400002.200012.900002h0s0,.099998-.100006.200001v1.200001c.200012.200001.299988.599998.299988.900002v1h-.100006v.200001c.200012.200001.299988.400002.299988.700001s0,.599998.100006.900002c0,.200001,0,.5.100006.700001.100006.799999.299988,1.5.5,2.299999,0,.299999.100006.599998.200012.900002.200012.799999.299988,1.599998.399994,2.5,0,.299999,0,.599998.100006.900002v.599998c0,.599998,0,1.099998.100006,1.700001v1c0,.900002.100006,1.799999.200012,2.700001v1.5h0v2.299995c0,.800003.100006,1.599998.100006,2.5v.900002c0,.800003,0,1.599998.100006,2.300003v.900002c0,.800003,0,1.599998.100006,2.400002h0c-.299988,0-.5.099998-.399994.199997,0,0,.200012,0,.399994.099998h0v1.599998c0,.099998,0,.300003.100006.5h-.100006v7.400002h0c.299988.800003.399994,1.599998.5,2.400002v.699997c.100006,1.5,0,3,0,4.5v.599998c0,.800003-.100006,1.5-.100006,2.300003v2.200005l.200012.300003c0,.099998-.200012.199997-.200012.300003v18.399994c0,.5,0,.900002-.100006,1.300003,0,.300003,0,.599998-.100006.900002,0,.800003-.200012,1.599998-.299988,2.5v.599998c0,.599998-.200012,1.300003-.200012,1.900002v1.5c0,.900002,0,1.800003-.200012,2.699997v.199997c0,1.199997-.200012,2.300003-.5,3.5,0,.699997,0,1.399994-.299988,1.800003v1.900009h.100006c.100006.5.100006.899994,0,1.300003,0,.199997-.100006.399994-.200012.5v2.400009c.100006.100006.100006.399994,0,.800003,0,1.199997-.100006,2.399994-.200012,3.5v.800003c0,.899994-.200012,1.800003-.200012,2.800003v.800003c0,.800003-.200012,1.600006-.299988,2.399994v.600006c-.100006.899994-.200012,1.800003-.299988,2.600006v.600006c-.100006.899994-.299988,1.800003-.399994,2.800003,0,.300003,0,.5-.100006.800003-.100006.699997-.200012,1.300003-.299988,2,0,.300003,0,.5-.100006.800003-.100006.800003-.299988,1.600006-.399994,2.399994,0,.300003-.100006.600006-.200012.800003-.600006,3-1.200012,6.100006-1.799988,9.100006,0,.199997,0,.399994-.100006.699997-.200012,1-.399994,1.899994-.600006,2.899994,0,.199997-.100006.5-.200012.699997-.200012.800003-.299988,1.5-.5,2.300003,0,.300003-.100006.600006-.200012.899994-.399994,1.800003-.799988,3.600006-1.200012,5.399994v.199997h0v.300003c0,.300003-.100006.600006-.200012.800003-.200012.800003-.399994,1.600006-.600006,2.399994,0,.199997,0,.399994-.100006.600006-.200012.899994-.5,1.699997-.700012,2.600006,0,.300003-.200012.600006-.299988.899994-.200012.800003-.5,1.699997-.799988,2.5h0c0,.199997,0,.600006-.100006.899994,0,.399994-.200012.699997-.200012.800003,0,0-.200012.100006-.299988.300003-.200012.5-.399994,1-.600006,1.600006-.100006.300003-.200012.600006-.299988.899994,0,.199997-.100006.300003-.200012.5h0c0,.600006-.299988,1.100006-.600006,1.399994,0,.199997-.200012.5-.200012.699997s-.100006.399994-.200012.5c-.299988.899994-.600006,1.800003-1,2.699997-.100006.300003-.299988.5-.399994.800003h0c-.399994.199997-.600006.699997-.399994,1H.299835l-.299835.300003ZM10.600006,205.859517c-2.100006-.199997-4.100006-.300003-6.200012-.600006-.200012,0-.399994.100006-.600006.300003h-.200012c0-.399994,0-.899994.200012-1.300003.100006-.399994.299988-.800003.5-1.300003,3.399994.300003,7.200012.5,10.399994.800003l8.299988.699997c3.299988.199997,6.899994.699997,10.399994,1-7.600006-.199997-15.299988,0-22.899994.300003h0l.100037.100006ZM40.299988,205.759511h.100006c0-.199997-2-.5-2.5-.5-5.100006-.600006-10.799988-.800003-16-1.300003-5.5-.5-11.799988-1.300003-17.399994-1.600006.399994-.899994.799988-1.800003,1.100006-2.600006h1.799988c.399994,0,.700012-.100006,1-.300003,0-.199997-1.700012-.5-2.100006-.5h-.399994c.299988-.899994.600006-1.899994.799988-2.800003h0c4.200012.199997,8.5.5,12.700012.800003h1.399994c4.399994.300003,9.5,1,13.799988,1.100006h1.5l.200012-.300003c0-.399994-2.399994-.600006-3.100006-.699997-8.399994-.899994-17.5-1.399994-26.299988-1.899994h0c.200012-.800003.5-1.600006.700012-2.5h0c3.200012.199997,6.399994.399994,9.600006.600006.899994,0,6.200012.600006,6.200012.100006-1.100006-.5-2.799988-.399994-4.100006-.600006-3.799988-.399994-7.600006-.699997-11.399994-1h0c.200012-.899994.5-1.800003.700012-2.600006h.299988v-.399994h-.200012c.200012-.899994.399994-1.699997.700012-2.600006h0c2.299988.100006,4.700012.300003,7,.399994.700012,0,2.399994.100006,3,.100006,1.299988,0,.700012-.5-.5-.699997-3-.399994-6.100006-.600006-9.200012-.800003h0c.200012-.800003.399994-1.699997.600006-2.5h0c1.100006.199997,2.200012.100006,3.399994.199997,9,.600006,18.100006,1.399994,27.100006,2.100006h0c.200012.899994.399994,1.699997.600006,2.600006-5.100006-.300003-10.299988-.600006-15.200012-1l-.799988.199997.799988.300003c5,.300003,10.200012.800003,15.399994,1.300003h0c.5,2.100006,1.100006,4.199997,1.700012,6.199997-3.700012-.300003-7.399994-.600006-11-.800003h-3.100006q0,.199997.299988.300003c1.200012.399994,8.700012.800003,10.700012.899994,1,0,2.200012.199997,3.299988.300003h0c.399994,1.199997.700012,2.399994,1.100006,3.600006.299988.899994.799988,2.100006,1.299988,3.199997-5.5-.5-11.200012-1.100006-16.299988-1.300003h-2.299988q0,.199997.299988.300003c.700012.300003,6.5.600006,7.899994.699997,3.600006.300003,7.200012.699997,10.799988,1.100006h0c.200012.399994.299988.800003.399994,1.100006.200012.699997,0,1.600006.399994,2.300003-2.200012-.100006-4.5-.199997-6.700012-.300003h0l-.099976-.200012ZM11,179.359517l10.399994.600006,1.5-.199997c-.200012-.100006-.299988-.199997-.5-.300003-1.100006-.300003-8-.800003-11.200012-1h0c.200012-.800003.299988-1.5.5-2.300003h0c1.799988,0,3.700012.199997,5.5.199997.5,0,2.899994,0,3-.100006-.700012-.399994-1.799988-.399994-2.700012-.5-1.899994-.100006-3.700012-.199997-5.600006-.300003h0c.200012-1,.399994-2,.600006-2.899994h0c8.700012.300003,17.299988.699997,26,1.100006h0c.200012,1.199997.5,2.300003.700012,3.5h0c-.200012,0-.299988,0-.299988.199997h.299988c.200012,1.100006.5,2.199997.700012,3.300003h0c-.200012,0-.5-.100006-1-.199997-2.399994-.300003-8.200012-.699997-10.700012-.699997-.5,0-1,0-1.299988.199997,0,.199997.299988.199997.5.300003,1.299988.399994,4.399994.300003,5.899994.399994,1.799988.100006,3.700012.5,5.399994.5h1.399994c.200012,1,.5,2,.700012,3-8.799988-.699997-17.600006-1.399994-26.299988-1.899994-.200012,0-2.5-.199997-3.899994-.199997h0c.200012-.899994.399994-1.699997.600006-2.600006h0l-.200012-.100006ZM13.5,166.059514h.399994c3.600006.300003,8.399994.300003,12.200012.399994,2.299988.100006,5,.399994,7.299988.399994.200012,0,1.700012,0,1.5-.199997s-.5-.199997-.899994-.199997c-5.100006-.600006-12.600006-.899994-17.799988-1h-2.600006c.100006-.899994.299988-1.800003.399994-2.600006h0c3.200012.199997,7,.600006,10,.699997h1.5v-.300003c-1.200012-.199997-2.700012-.399994-3.899994-.5-2.5-.199997-5-.399994-7.5-.600006h0c.100006-.800003.200012-1.600006.399994-2.399994h0c.799988,0,1.5,0,2.299988.100006,5.600006.300003,11.299988.600006,17,1,.700012,0,1.5.100006,2.299988.199997h0c.100006.899994.299988,1.800003.399994,2.699997-1.600006,0-3.100006-.199997-4.299988-.199997-.899994,0-2.700012,0-1.100006.5,1.799988.100006,3.700012.300003,5.600006.5h0c.299988,1.800003.600006,3.699997.899994,5.5-7.5-.5-15.100006-.800003-22.600006-1-1.799988.5,1.5.699997,2.399994.699997,6.700012.399994,13.5.600006,20.200012.899994h0c.200012.899994.299988,1.800003.5,2.600006-.5,0-1.100006,0-1.600006-.100006-8-.5-16-.699997-24.100006-1h0c.399994-1.899994.700012-3.899994,1-5.800003h0l.100037-.299973ZM14.899994,156.759511h0c3.399994.100006,6.799988.300003,10.200012.399994,1.700012,0,4.5.399994,6,.300003.299988,0,.799988,0,.799988-.300003-.200012-.199997-.399994-.199997-.700012-.199997-4.799988-.600006-11.299988-.699997-16.200012-1h0c.299988-2,.5-4,.799988-6h2.399994c0,.100006.5-.100006.5-.100006-.100006-.300003-1.5-.399994-2.799988-.5h0c0-.800003.200012-1.600006.299988-2.399994h.899994c1.100006,0,.700012-.399994-.200012-.600006h-.600006c.100006-.899994.200012-1.899994.299988-2.800003h0c5.799988.199997,11.700012.5,17.399994.899994h0c.100006,1,.200012,2.100006.299988,3.100006-1.5,0-3-.199997-4.600006-.300003-1.700012-.100006-3.600006-.300003-5.299988-.399994-.399994,0-2.100006,0-2.100006.199997,1.700012.600006,4.100006.5,5.899994.600006,2,.100006,4,.300003,6.100006.5h0c.100006.800003.200012,1.699997.299988,2.5-.700012,0-1.5,0-1.899994-.100006,0,0-.5.199997-.5.300003,0,.300003,1.299988.399994,2.5.5h0c0,.699997.200012,1.5.299988,2.199997-4.600006-.100006-9.5-.600006-14.100006-.600006-.299988,0-1.399994,0-1.299988.300003.899994.5,2.299988.300003,3.299988.399994,4.100006.199997,8.100006.399994,12.200012.600006h0c.299988,2.100006.600006,4.100006.899994,6.199997-7.200012-.5-14.299988-1-21.399994-1.5h0c.100006-.699997.200012-1.399994.299988-2h0l.000122-.199982ZM17.299988,136.259511h0c1.299988,0,2.5,0,3.799988.100006,4.100006.199997,8.100006.300003,12.200012.5h0c0,.800003.100006,1.600006.200012,2.399994-4.200012-.199997-8.899994-.399994-12.600006-.399994-.799988,0-2.299988,0-2.600006.399994,0,.199997,2.600006.399994,3.100006.399994,4,.199997,8.100006.199997,12.100006.399994h0c.100006,1.199997.200012,2.399994.399994,3.600006-1.600006,0-3.200012-.100006-4.700012-.199997-4.200012-.199997-8.399994-.5-12.600006-.699997h0c.200012-2.199997.399994-4.300003.600006-6.5h.100006ZM17.5,132.959524h0l13,.399994.600006-.300003c-.200012-.199997-5.299988-.5-6.200012-.600006h-1.200012c-2-.100006-4.100006-.199997-6.200012-.300003h0c0-.800003.100006-1.699997.200012-2.5h.899994c4.5.300003,9.399994.300003,14,.5h0c.200012,2,.299988,4,.5,6-3.200012-.100006-6.5-.300003-9.700012-.399994-2.100006,0-4.100006-.199997-6.200012-.300003h0c0-.800003.100006-1.600006.200012-2.5h0l.100037.000015ZM19,113.659521h0c4.100006.099998,8.200012.300003,12.299988.400002h0v1.300003c0,.599998.299988,1.099998.399994,1.5-4.299988-.199997-8.700012-.300003-12.899994-.400002h0v-2.699997l.200012-.100006ZM19.200012,110.459516h2c1.600006-.199997.200012-.5-.799988-.599998h-1.200012v-2.599998h1.299988c.200012,0,2.5,0,2-.300003-.600006,0-1.100006-.199997-1.700012-.199997h-1.600006v-2.599998h7.200012c.5,0,2.899994,0,3-.099998.100006-.199997-.399994-.300003-.700012-.300003-1.200012-.199997-3.299988-.199997-4.700012-.199997-1.600006,0-3.200012-.099998-4.799988-.199997h0v-2.300003h0c3.899994,0,7.799988.099998,11.700012.199997h0c0,1.900002,0,3.900002.100006,5.800003h-3.299988v.300003c.299988,0,.700012.199997,1.100006.199997.700012,0,1.5,0,2.299988.099998h0v2.599998h-1.700012c-.200012,0-3,0-2.399994.300003.399994,0,.799988.099998,1.100006.199997.899994,0,1.899994.099998,3,.199997h0v2.599998l-12.299988-.400002h0v-2.5h0l.399994-.199997ZM19.200012,82.559514v-2.300003h0c4,0,8,.199997,12,.300003h0v2.599998c-.200012-.099998-1-.199997-2.100006-.300003l-9.799988-.300003h0l-.100006.000008ZM19,76.859517h0l12.299988.199997h0v2.599998c-4-.099998-8-.300003-12.100006-.400002h0v-2.400002l-.199982.000008ZM18.899994,73.759519h1.299988c3.600006.199997,7.5.300003,11.299988.400002h0c0,.800003,0,1.599998-.100006,2.400002h-.399994c-2.399994-.199997-5.600006-.199997-8.100006-.300003-1.299988,0-2.5,0-3.799988-.099998h0c0-.800003,0-1.599998-.100006-2.400002h-.099976ZM18.600006,67.659521h9.100006c.600006,0,1.100006,0,1.700012-.199997.5-.300003-1.799988-.400002-2-.400002-2.799988-.199997-5.899994-.199997-8.899994-.300003h0c0-.800003-.100006-1.599998-.200012-2.5h9.100006c1,0,2.399994,0,.799988-.400002-3.299988-.099998-6.600006-.199997-9.899994-.300003h0c0-.799999-.100006-1.599998-.200012-2.400002h0l14.100006.200001h0c-.200012,3.000004-.399994,6.100002-.600006,9.100002-4.299988-.199997-8.600006-.300003-12.899994-.5h0c0-.800003,0-1.599998-.100006-2.400002v.100006ZM17.799988,57.659517h4.700012c3.299988,0,6.600006.099998,10,.200001h0c0,.900002-.200012,1.799999-.200012,2.799999-3.799988,0-7.5-.099998-11.299988-.200001h-3c0-.900002-.200012-1.799999-.200012-2.799999h0ZM22.799988,53.659517c-1.700012,0-3.600006-.099998-5.399994-.099998h0c0-.799999-.200012-1.700001-.299988-2.5h16.100006c-.100006,1-.200012,1.900002-.299988,2.900002h0c-1.100006,0-2,0-2.100006.200001,0,.200001.299988.200001.5.200001h1.5c0,.900002-.200012,1.700001-.200012,2.599998-5-.099998-10-.299999-14.899994-.299999h0c0-.799999-.200012-1.599998-.200012-2.400002h5.399994c.899994,0,2.600006.299999,2.899994-.400002-1-.099998-2-.200001-2.899994-.200001h-.100006ZM16.799988,47.859517h.600006c1.5,0,4.799988,0,6.100006-.200001.299988,0,.600006-.099998.5-.299999-.299988-.200001-5.100006-.200001-6-.200001h-1.299988c0-.700001-.200012-1.400002-.299988-2.099998h2.299988c.399994,0,.799988,0,.700012-.299999-1-.099998-2-.200001-2.899994-.200001h-.200012c-.100006-.799999-.200012-1.599998-.299988-2.400002h18.299988c-.100006.900002-.200012,1.700001-.299988,2.599998h-7.299988c-.899994,0-1.899994,0-2.700012.200001,0,.299999.600006.299999,1,.400002,2.700012.200001,6,.099998,9,.099998,0,.700001-.200012,1.400002-.299988,2.200001-2.100006,0-4.5,0-4.799988.200001s.399994.200001.600006.299999c1.100006.099998,2.899994.099998,4,.099998h.100006c0,.799999-.200012,1.700001-.299988,2.5-5.299988,0-10.899994-.099998-16.200012-.299999h0c0-.799999-.200012-1.599998-.299988-2.299999h0l-.000092-.299999ZM15.5,38.759519h16.200012c5.400024,0,2,0,3,0h0c-.100006.900002-.299988,1.700001-.399994,2.599998l-18.5-.299999h0c-.100006-.799999-.200012-1.599998-.299988-2.299999h-.000031ZM15.299988,37.459516c-.100006-.700001-.200012-1.5-.399994-2.299999h3.100006c1.100006,0,2.299988.200001,3.399994,0,.600006-.5-1.299988-.5-2-.599998-1.5,0-3.100006-.099998-4.600006-.099998h0c-.200012-.900002-.299988-1.900002-.5-2.900002h0c7.200012,0,14.5,0,21.799988-.099998-.200012,1.200001-.399994,2.299999-.600006,3.400002h-5.600006c-.5,0-3.100006,0-3.100006.200001.299988.400002,1.799988.400002,2.600006.5,1.799988,0,3.899994.099998,6,.200001h0c0,.5-.200012.900002-.200012,1.400002,0,.299999-.100006.700001-.200012,1h-5.600006c-4.600006,0-9.299988-.099998-13.899994-.200001h0v-.299999h0l-.199951-.200008ZM25.799988,27.259517c-2.299988-.299999-6.700012,0-9.200012,0h-3.200012c-.200012-.799999-.299988-1.6-.5-2.299999h0c3.299988,0,6.600006-.1,10-.200001.799988,0,4.5.200001,4.799988-.299999l-.5-.299999h-14.399994c-.200012-.799999-.399994-1.700001-.600006-2.6h11.100006c1.899994-.1.5-.5-.600006-.6-2.100006-.1-4.5,0-6.700012-.1h-3.899994c-.200012-.799999-.399994-1.700001-.600006-2.5h0c4.299988,0,8.600006-.1,12.799988-.200001,4.5,0,10.299988.1,15-.1-.299988,1-.5,2-.799988,3.1h-6.200012c-1.100006,0-2.399994-.200001-3.299988.200001-.100006.299999,1,.299999,1.299988.299999,2.600006.1,5.399994,0,8.100006,0-.399994,1.9-.899994,3.700001-1.299988,5.6h0c-1.799988,0-4.100006-.200001-5.799988.299999,0,.200001,1.700012.299999,2.100006.299999h3.5c-.200012,1-.399994,2.1-.600006,3H14.199951c-.200012-.799999-.299988-1.700001-.5-2.6h5.299988c1.899994,0,4.899994,0,6.700012-.200001.899994,0,1.299988-.4.200012-.6h0l-.099976-.199997ZM9.600006,12.159518h0c7.100006,0,14.700012,0,21.600006-.3,1.200012,0,2.700012-.2,3.799988-.3v-.3c-.399994,0-.899994-.1-1.399994-.2-3.100006,0-6.899994.2-10.100006.2h-14.200012c-.299988-.9-.600006-1.7-.799988-2.5h2.200012c2,0,4-.1,6.100006-.2l.200012-.2c.200012-.6-3.100006-.4-3.899994-.5h-4.899994c-.299988-.8-.600006-1.6-.899994-2.3h0c3.399994,0,6.799988,0,10.200012-.2.799988,0,1.600006.2,2.299988-.2-.299988-.5-1.5-.4-2.299988-.5H6.900055c-.399994-.6-.799988-1.2-1.100006-1.8-.100006-.3-.200012-.6-.299988-.9h6.100006c5.5,0,11,.2,16.5.3h3.300018c4.399994,0,8.899994.1,13.299988,0-.399994.9-1.100006,1.7-1.5,2.5-5.299988,0-10.600006-.1-15.899994,0-.899994,0-4.299988,0-2.5.6,6,.1,12.100006.1,18.100006,0-.299988.8-.600006,1.6-.899994,2.5h0c-2,0-4.299988.1-6.200012.1-3.700012,0-8.600006-.3-12.200012-.2-.600006,0-1.200012.2-1.700012.2,0,.1,0,.2.299988.3.5.2,2.899994.2,3.700012.2,4.600006,0,11,.1,15.899994,0h0c-.299988.8-.5,1.6-.799988,2.5h-.299988c-1.100006.3-.5.4.200012.5h0c-.299988.9-.5,1.8-.799988,2.8h0c-4.600006,0-9.200012,0-13.799988.1-2.799988,0-5.600006.1-8.299988.1h-7.600006c-.200012-.8-.5-1.6-.700012-2.400001l-.100098.099999ZM10.5,15.459518c9.799988-.1,19.5-.3,29.299988-.5-.200012.799999-.399994,1.6-.600006,2.4h-4.799988c-7.799988,0-15.600006-.1-23.399994-.1h0c-.200012-.6-.299988-1.200001-.5-1.799999h0ZM18.799988,70.859517c4,.099998,8,.199997,12.100006.199997h.799988c0,.800003,0,1.599998-.100006,2.400002-4-.099998-7.899994-.300003-11.799988-.300003h-.799988c0-.800003,0-1.5-.100006-2.300003h0l-.100006.000008ZM19.399994,91.559514h3.600006c2.5.099998,3.200012-.400002,0-.5h-3.700012v-4.699997h0c.799988,0,1.799988,0,1.899994-.099998.399994-.199997-.600006-.400002-1-.5h-.899994v-2.5h0l9.899994.199997c1.100006,0,1.799988,0,2-.199997v2.699997h-3.700012c-.700012,0-1.200012.099998-1.899994.199997v.300003c1,.099998,2.100006.199997,3.200012.199997h2.5v1.400002c-2.799988-.099998-5.799988-.199997-8.399994-.199997h-3.200012v.300003c.600006,0,1.200012.199997,1.899994.199997,2.700012.199997,6.399994.199997,9.600006.300003h0v2.400002h-.799988v.300003h.799988v2.800003c-3.799988-.199997-7.700012-.300003-11.600006-.400002v-2.300003h0l-.199982.099991ZM26.600006,94.859517h4.399994v5.599998c-3.799988,0-7.799988-.199997-11.700012-.199997h0v-2.300003h5.100006c1,0,2.700012-.199997.700012-.5l-5.799988-.199997h0v-2.5h7.200012l.099976.099998ZM18.600006,117.659521v-.199997h0c4.399994.099998,8.799988.199997,13.200012.300003h0c0,.900002.100006,1.900002.200012,2.800003h0c-.299988,0-.700012-.099998-1-.099998-1.299988,0-6.100006-.300003-7.100006-.199997-.200012,0-.600006,0-.5.199997.200012.400002,4.399994.400002,5.200012.400002,1.200012,0,2.399994.300003,3.5.199997h0c0,1.099998.100006,2.099998.200012,3.199997-2.399994-.300003-4.799988-.5-7.200012-.599998-2.299988-.099998-4.5-.300003-6.799988-.400002.100006-1.900002.200012-3.699997.299988-5.599998h0l-.000031-.000008ZM32.299988,124.659521c0,.800003.100006,1.599998.200012,2.400002-1.700012-.199997-5.200012-.300003-6.799988-.400002-1.100006,0-2.899994-.099998-4,0-.200012,0-.899994,0-.600006.199997.5.300003,6.600006.400002,7.799988.5,1.100006,0,2.600006.300003,3.700012.199997h0c0,.699997.100006,1.399994.200012,2.100006-1.600006,0-3.100006-.100006-4.600006-.199997-3.100006-.100006-7-.399994-10.200012-.399994h0c.100006-1.699997.299988-3.5.399994-5.199997,4.799988.099998,9.5.400002,14.100006.800003l-.200012-.000015Z" />
  <path class="cls-1"
    d="M41.700012,191.159521c-.5-.199997-5.899994-.5-7.100006-.600006-5.5-.5-11.200012-1.100006-16.799988-1.399994h-3.700012c0,.300003.799988.5,1.299988.5,8,.300003,16.399994,1.600006,24.299988,1.899994.700012,0,2.600006.100006,2-.399994h.000031Z" />
  <path class="cls-1"
    d="M15.799988,199.759511c-.600006,0-3,0-1.399994.399994,1.100006.300003,4.600006.5,5.799988.5.299988,0,1.5,0,1.399994-.199997-.100006-.300003-4.899994-.699997-5.700012-.699997h-.099976Z" />
  <path class="cls-1"
    d="M26.899994,150.659521c.200012,0,.5,0,.5-.199997-.100006-.399994-4-.600006-4.700012-.600006-.399994,0-1.700012,0-1.299988.399994.200012.199997,5,.5,5.600006.5l-.100006-.099991Z" />
  <path class="cls-1"
    d="M32.299988,176.959524l-.5-.199997c-1.200012-.199997-3.299988-.199997-4.600006-.399994-.200012,0-1.600006,0-1.5.199997.899994.300003,1.899994.199997,2.700012.300003.899994,0,3.600006.399994,4,0h0l-.100006.099991Z" />
  <path class="cls-1"
    d="M31.600006,24.659517c.700012,0,4.600006,0,4.799988-.4,0-.1-.200012-.200001-.5-.299999-.600006-.1-5.399994,0-5.600006.200001-.399994.299999.899994.5,1.299988.5l.000031-.000002Z" />
</svg>