<?xml version="1.0" encoding="UTF-8"?>
<svg id="Ebene_1" data-name="Ebene 1" xmlns="http://www.w3.org/2000/svg" viewBox="0 0 188.739436 41.844447">
  <defs>
    <style>
      .cls-1 {
        fill: #010101;
      }
    </style>
  </defs>
  <path class="cls-1" d="M178.599915,20.000002c0-.299999-.900024-.9-1.299988-.700001-.799988.200001,0,1.200001-.099976,1.799999h.900024c.200012-.200001.700012-.799999.599976-1l-.100037-.099998Z"/>
  <path class="cls-1" d="M69.099915,10.300004c.200012.5,1.400024.5,1.900024.4,0,0,.299988-.5.900024-.299999.099976,0,.200012.299999.299988.299999.700012.200001,1.400024-.1,1.299988-.9h.900024c0,.299999.200012.799999.400024.9.799988.200001,1.5-.4,2.400024-.299999.299988-.299999,1.200012-.5,1-1-.099976-.4-.700012-.4-1-.4-1.099976,0-1.5,0-2.400024.299999-.599976.200001-.799988-.3-.900024-.3-1.200012-.2-2.900024.2-4.099976,0l-.400024.900001h-.299988v.4h-.000061Z"/>
  <path class="cls-1" d="M107.399902,12.800004c.200012,0,.400024.5.599976.6.799988.200001,1.200012-.5,1-1.200001h-1.5c.099976-.5-.200012-.6-.299988-.9h-1.200012v1c.400024.700001.900024.299999,1.299988.4l.100037.1Z"/>
  <path class="cls-1" d="M11.299927,19.500002c-.400024-.4-.599976-.9-1.200012-.700001l-.299988.700001c.5.6,1,.6,1.5,0Z"/>
  <path class="cls-1" d="M184.299927,19.000002h-1.5v1.200001c1,.1,1.599976,0,1.5-1.200001Z"/>
  <path class="cls-1" d="M40.599915,6.700003c.299988-.8-1.700012-1.1-1.5.1h-.700012l-1.299988.9h1.5l.400024.9c.599976-.4.5-.9.400024-1.5.400024,0,1,0,1.200012-.4h-.000061Z"/>
  <polygon class="cls-1" points="40.899902 19.000002 42.899902 17.800004 43.199951 18.100003 43.899902 17.200003 41.499939 16.900002 40.899902 19.000002"/>
  <path class="cls-1" d="M36.499939,7.200003l-.400024-1.2c-.5,0-1.400024-.1-1.599976.4-.299988.9,1.599976.8,2.099976.7l-.099976.1Z"/>
  <path class="cls-1" d="M43.899902,7.800003l-.700012-.3h-1.299988c0,.1,1,1.5,1,1.5.400024.1,1.299988-.9,1-1.2Z"/>
  <path class="cls-1" d="M42.399902,15.200003c-.299988.9,1.099976,2.1,1.5,1,.299988-.9-.799988-1.200001-1.5-1Z"/>
  <path class="cls-1" d="M39.899902,14.600003h1.599976c.099976-1-1.5-1.700001-1.799988-.700001,0,.200001-.099976.700001.099976.700001h.100037Z"/>
  <path class="cls-1" d="M32.899902,16.600003h1.200012v-1.200001c-.900024-.1-1.299988.299999-1.200012,1.200001Z"/>
  <path class="cls-1" d="M38.299927,16.300004v1.200001c1.599976.1,1.599976-1.299999,0-1.200001Z"/>
  <path class="cls-1" d="M30.899902,13.400002v1.200001l1.200012-.299999c0-.700001-.5-1-1.200012-.900002Z"/>
  <path class="cls-1" d="M31.999939,14.300004v.9h1.200012c0-.700001-.5-1-1.200012-.9Z"/>
  <rect class="cls-1" x="40.299927" y="8.600003" width="1.200012" height=".9"/>
  <polygon class="cls-1" points="41.199951 16.300004 39.699951 16.000002 39.699951 16.600003 41.199951 16.900002 41.199951 16.300004"/>
  <path class="cls-1" d="M36.499939,9.200003v1.200001h.900024c.099976-.700001-.099976-1.299999-.900024-1.200001Z"/>
  <path class="cls-1" d="M35.299927,14.100003c.299988.5.599976.5,1.200012.4v-.9c-.599976,0-.900024,0-1.200012.4v.1Z"/>
  <path class="cls-1" d="M39.199951,15.600003c-.299988-.5-.599976-.5-1.200012-.4l.400024.9.700012-.4.099976-.1Z"/>
  <polygon class="cls-1" points="35.599915 15.500002 35.599915 16.300004 36.199951 15.900002 35.799927 15.500002 35.599915 15.500002"/>
  <path class="cls-1" d="M78.499939,16.000002v.9h.900024c0-.6-.299988-1-.900024-.9Z"/>
  <path class="cls-1" d="M58.799927,2.400003h-2.5c0,.5,0,.9.400024,1.2h1.200012c.200012,0,.700012-.7,1.200012,0l.700012-.7c-.299988-.5-.5-.4-1-.4l-.000061-.1Z"/>
  <path class="cls-1" d="M73.099915,2.700003c-.099976,0-.200012.3-.299988.3s-.200012-.3-.299988-.3h-1.200012l-.400024.9c.5,0,.799988.5,1.299988.3.099976,0,.200012-.3.299988-.3h1.599976v-.9h-1,.000061Z"/>
  <rect class="cls-1" x="70.299927" y="3.000002" width=".299988" height=".6"/>
  <rect class="cls-1" x="93.399902" y="12.200003" width=".599976" height=".9"/>
  <path class="cls-1" d="M115.099915,14.300004c.900024.299999,1.200012-.799999,1-1.5-.900024-.299999-2.099976,1.1-1,1.5Z"/>
  <path class="cls-1" d="M23.799927,16.600003c-.299988.299999,1.099976,1.9,1.799988,1.5.099976-1.200001-.799988-1.700001-1.799988-1.5Z"/>
  <path class="cls-1" d="M154.099915,18.100003v1.200001c.400024,0,.599976,0,.900024-.1.400024-.1,1.400024-.299999,1.200012-.9h-2.099976l-.000061-.200001Z"/>
  <path class="cls-1" d="M39.499939,31.900002l.400024.400002.700012-.299999c0-1.099998-1-1.200001-1.200012-.099998l.099976-.000004Z"/>
  <path class="cls-1" d="M4.499939,22.300004c-.099976-.1-.299988-.200001-.5-.299999h-1.400024v.400002s.200012.200001.299988.200001h0s.200012,0,.299988.1h1.200012l.099976-.1v-.400002h0l.000061.099998Z"/>
  <path class="cls-1" d="M2.299927,21.300004s.099976.1.200012.200001h1.100037s.200012,0,.200012-.1c0,0,.099976-.1.200012-.200001v-.6s-.200012-.1-.299988-.200001h-.699951s-.099976,0-.200012.1c0,0-.200012.1-.200012.200001,0,0,0,.1-.099976.200001v.200001s0,.200001.099976.200001h0l-.30011-.000002ZM3.399902,21.400002h0Z"/>
  <path class="cls-1" d="M3.199951,19.900002h1.200012c.099976,0,.299988,0,.400024-.200001,0-.1.099976-.299999,0-.5,0-.4-.400024-.700001-.799988-.700001h-1.200012c-.099976,0-.299988,0-.400024.200001,0,.1-.099976.299999,0,.5,0,.4.400024.700001.799988.700001Z"/>
  <path class="cls-1" d="M4.199951,20.600003v.1c.900024.1,1.799988.1,2.700012,0h.799988v.4c0,.200001,0,.4.200012.5.099976.1.299988.299999.5.299999h.200012-1.900024v.299999l.099976.1c0,.200001.200012.299999.200012.4s.200012.299999.299988.4c0,0,.099976.1.200012.1h1.599976s0-.299999,0-.200001c0-.200001-.200012-.299999-.200012-.5h.900024c.099976,0,.200012,0,.299988-.1h.099976v-.300001s0-.1-.099976-.200001h-1s.099976-.200001.099976-.299999v-1.5s0-.200001-.099976-.200001c-.099976-.1-.299988-.299999-.5-.299999h-.5c-.099976,0-.200012.200001-.200012.4v.5h-1.899902c-.299988,0-.700012,0-1,.1,0,0-.299988,0-.299988.200001l-.500061-.199997Z"/>
  <path class="cls-1" d="M5.999939,22.100003c-.700012,0,.099976,1.200001.599976,1.200001s-.099976-1.200001-.599976-1.200001Z"/>
  <path class="cls-1" d="M188.299927,16.900002c0-.1-.200012-.1-.400024,0v-.200001c-1.400024.1-3-.200001-4.299988,0-2.299988.299999-4.900024-.4-7.099976,0l-.900024-.6c-4.299988.5-9.299988-.299999-13.599976-.9-2.900024-.4-6-.700001-8.900024-1.200001-1.200012-.200001-2.599976-.6-3.799988-.9-1.599976-.4-3.299988-.799999-5-1.200001-.599976-.1-1-.200001-1.5-.299999-3.5-.6-7.099976-1.4-10.700012-2.1-9.299988-1.8-19.200012-4.1-29-3.6-1.299988-.9-3.299988-.8-4.700012-.3-1.299988-.8-2.900024-.5-4.400024-.6-1.200012-.1-3.5.3-4.400024,0-.099976,0-.299988-.3-.400024-.4.700012-.5,0-.7,0-.9v-.6c0-.1-.200012-.2-.299988-.3v-.3c0-.1-.700012-.7-.700012-.7h-.599976c-.200012,0-1.299988-1.1-1.5-1.2-.599976-.2-.799988.3-.900024.3-.700012.1-4.299988.1-5,0-7.200012-1.3-16.700012.3-24.599976-.3l-.599976-.6c-.5.6-1.599976.2-2.400024.3-.099976,0-.200012.3-.299988.3-1,0-2.5.2-3.299988-.3-.400024.5-1,.5-1.5.6-.200012,0-1.5,1.4-1.299988,1.8h-17c-.299988.4-.799988.7-1,1s-.200012.9-.299988,1.2c-.099976.4-.5,1.4-.599976,1.8,0,.5.200012,1.7-.400024,1.9-.799988.2-2.5-.2-3.299988,0,0,0-1.299988,1.2-1.299988,1.3v1.200001c-.099976.700001-.200012,1.5-.299988,2.1,0,.1-.599976.799999-.599976.9v.1c-5.400024.5-10.700012.200001-16.099976.299999-1.5,0-3.099976.1-4.599976.200001-.099976,0-.200012,0-.200012.200001-.200012,0-.400024.200001-.400024.299999.299988,3.799999.200012,7.700001-.099976,11.5,0,.200001.700012.099998.799988.099998.299988,0,.700012-.099998,1-.200001h.299988c.400024,0,.900024-.099998,1.299988-.099998,1.799988-.099998,3.599976,0,5.400024,0h1.400024c1.299988.099998,2.599976.400002,3.900024.400002,1.299988,0,2.700012,0,4-.099998,1.099976,0,2.299988-.200001,3.400024-.299999,0,1-.200012,2.400002,0,3.299999,0,.099998.599976.799999.599976.900002.099976.400002,0,1,.299988,1.5,0,.200001.900024.900002,1,1h.299988c.099976,0,.200012.299999.299988.299999h2.099976s.5-.5,1-.299999c.099976.099998-.099976,2,0,2.5,0,.099998.599976.799999.599976.900002v1.200001s.900024,1,1,1h.299988c.099976,0,.200012.299999.299988.299999,1.099976.299999,3.099976-.099998,4.400024,0,2.5.200001,5.900024.599998,8.599976,0,.700012-.200001,1.099976.299999,1.200012.299999.700012.099998,1.599976,0,2.400024,0,.5.299999.400024.900002.900024,1.200001,0,0,1.099976.599998,1.200012.599998,1.400024.299999,4.299988,0,5.900024,0,1.5,0,3.599976.599998,5.299988.299999,1.900024-.299999,4.900024.299999,7.099976,0,2.099976-.299999,8-.299999,10.400024.299999.200012,0,3.099976-.5,4.099976-.299999.599976.099998,1.099976.200001,1.799988.299999.5,0,2.799988.099998,3.299988,0,.299988,0,.900024-.700001,1.200012-.900002.400024-.299999.900024-.700001,1.200012-.900002.700012-.400002.299988-.400002.700012-1,.5-.700001,2-.900002,2.799988-.700001,1.799988.299999,4.400024-.299999,6.5,0,.400024,0,2,.400002,2.400024.299999,3.099976-.900002,7.099976.299999,10.400024-.299999,1.599976-.299999,4.400024-.5,6.200012-.599998,2-.099998,4.299988.400002,5.900024-.599998,3.599976.400002,7.900024-.5,11.5-1.200001,1.299988-.200001,3.099976,0,4.099976-.299999.099976,0,.799988-.599998.900024-.599998,1-.200001,2.599976.200001,3.599976,0,.599976-.099998.799988-.799999,2.099976-.599998,1.5.200001,1.5-.400002,2.400024-.599998,1.700012-.5,4.599976-.099998,6.5-.599998,1.400024-.400002,3-.299999,4.400024-.599998.099976,0,.200012-.400002.599976-.299999.799988.200001,3-.200001,4.400024-.299999,5.099976-.400002,10.700012-1.299999,15.700012-1.200001h7.799988s0,.099998.099976.200001c.200012.400002,1.5-.200001,1.299988-.599998-.700012-2.099998-.200012-4.400002,0-6.6.200012-2.299999.200012-4.6-.099976-6.9h0l-.200134-.000011ZM23.799927,9.800004h.900024v.9c-.400024,0-.400024-.4-.900024-.299999v-.6ZM22.599915,18.700003l.299988.6.599976.299999h-.599976c0,.1-.299988,1.200001-.299988,1.200001v-2.1ZM9.299927,26.000004c-1.400024-.200001-2.799988-.200001-4.099976-.200001-1.400024,0-2.700012.200001-4.099976.299999.200012-2.700001.299988-5.299999.299988-8,.200012,0,.400024,0,.700012.1,0,0,.299988,0,.299988-.1.200012,0,.299988-.200001.5-.200001.099976,0,.299988-.1.400024-.200001,0,0,.099976,0,0,0-.299988,0-.599976,0-.900024-.1-.400024,0-.700012-.200001-1.099976-.200001v-1.4h0c4.299988-.4,8.599976-.299999,12.900024-.299999h2.299988c1.5,0,3.099976.200001,4.599976.299999v.299999c-2.200012-.200001-4.400024-.200001-6.599976-.200001-2.700012,0-5.299988-.200001-8-.200001-1.5,0-3,0-4.5.200001-.299988,0-.5.299999-.299988.5.200012.299999.700012.299999,1,.299999,2.5-.299999,5.099976-.200001,7.700012-.1,2.599976,0,5.200012.1,7.799988.200001,1,0,2,0,3.099976.1v1s0,.1-.099976.200001c-.099976-.299999-.5-.6-.900024-.6h-8.200012c-1.5,0-3.099976-.200001-4.5,0h-1.199951c-.200012,0-.400024,0-.599976-.200001-.299988,0-.700012.1-.599976.5v.700001h0v.200001s0,.1.099976.200001c0,0,.099976.1.200012.200001h.5c.200012,0,.400024.1.599976,0,.200012-.1.400024-.200001.599976-.299999h.799988c.200012,0,.299988,0,.400024-.200001h1.099976c1.099976,0,2.099976.1,3.200012,0h5.700012c-1.599976.200001-3.400024.1-4.799988.299999h-1.299988v1.200001h1c.200012,0,.900024-.9.700012.299999h-4.099976v.6h.299988c.599976,0,1,.299999,1.200012.700001h.700012s.299988-.5.900024-.299999c.099976,0,.200012.299999.299988.299999h.900024c.400024,0,1.099976-.200001,1,.299999h-3.700012c-.200012,0-.400024.299999-.299988.5h0v.4c.099976.299999.5.6.900024.6,1,0,2.099976,0,3.099976-.1.5,0,.900024.1,1.400024.200001.299988,0,.700012,0,.700012-.4h.5c.700012.1,1.200012.200001,1.799988.299999h1.299988v1.4c-5.900024-.799999-11.900024-.200001-17.799988-.799999-.299988,0-.799988,0-1,.4-.200012.299999.099976.5.400024.5,6.099976.700001,12.200012,0,18.299988.900002h0v.099998c-3.799988,0-7.599976,0-11.400024.099998h0l-.10022-.299995ZM20.999939,15.300004h0ZM16.699951,21.700003h-.900024v-.299999h1.5c-.200012.1-.400024.200001-.599976.299999ZM22.599915,23.200003h.599976v.299999h-.599976v-.299999ZM24.599915,31.400002h-.599976v-.299999h.599976v.299999ZM25.799927,29.200001l-1.200012,1,.599976-.599998c.200012-.599998-.299988-.900002-.299988-1v-.900002c-.200012-.700001-1.599976-.700001-1.5.599998l.599976.299999c.099976.599998-.400024.599998-.700012.400002-.5-.200001-.599976-1.5-.400024-1.900002.099976-.5,1.299988-.700001,1.599976-.099998l1.299988-1.200001c-.200012,1.099998.299988,1.799999.299988,2.799999l-.299988.599998.000122.000004ZM24.299927,25.200001v-.6h.299988v.6h-.299988ZM25.199951,20.800004h.599976v.6h-.099976l-.400024-.6h-.099976ZM26.099915,16.200003c0,.1.299988.200001.299988.299999.099976.9-.099976,1.5-.299988,2.200001-.299988,0-1.400024.4-1.5.700001-.099976.4.299988,1.4-.299988,1.299999l-.599976-1.200001.599976-.299999v-1.200001h-1.5c0-.4-.200012-.700001-.299988-1.1.200012,0,.5,0,.5-.299999s-.400024-.4-.599976-.5v-.4c0-.1.299988-.200001.299988-.299999v-1.9c.799988.200001,1.400024-.5,1.799988-1.200001l-.900024.4h-.900024c.299988-.200001.299988-.6.400024-1,.099976-.4.200012-.700001.099976-1.200001l.299988.6c.799988.200001,1.299988-.6,2.099976-.6,0-.6-.200012-1,.599976-.9,0,.700001-.599976,1.1,0,1.799999h-1.200012c-.200012.9.599976.5,1.200012.6,0,.9.099976,2,0,2.799999,0,.1-.5.4-.299988,1.200001l.200073.200001ZM37.699951,4.500002c.299988.3-.299988.9-.599976.6-.299988-.3.299988-.9.599976-.6ZM33.199951,4.200003h.599976c.099976.9-.299988,1.3-1.200012,1.2l.599976-1.2h.000061ZM27.899902,20.000002v-.4h.400024c.900024.6-.099976,1.200001-.400024.4ZM28.899902,35.300004c-.200012,0-.200012-.299999,0-.299999s.200012.299999,0,.299999ZM29.999939,36.800004h-.599976v-.299999h.599976v.299999ZM32.499939,36.200001h-.299988l-.400024-.400002h0c0-.099998,1.200012-.099998,1.200012-.099998l-.400024.599998-.099976-.099998ZM34.699951,35.300004h-1.200012l.299988-1c-.799988-.5-.5-.900002-.599976-1.5,0-.099998-.299988-.200001-.299988-.299999-.099976-.5.200012-.900002-.400024-1.299999-.099976,0-.700012,1-.700012,1,0,0,.299988.200001.299988.299999s-.299988.200001-.299988.299999v1l.900024.299999-.900024,1.200001c-1.299988.200001-.200012-1-.299988-1.299999-.700012-.5-.5-1.5-1.299988-1.900002-.599976-.299999-.400024.5-.400024.700001,0,.900002,0,1.200001.599976,1.900002h-.900024c.099976-.799999-.200012-1.299999-.900024-1.200001.5-.799999.299988-1.700001,0-2.5-.299988-.900002-.099976-.400002,0-.900002.200012-.700001-.200012-1.299999-.299988-1.900002h1.599976c.299988,0,.200012-.599998.099976-.700001-.099976-.5-.900024-.5-1.299988-.400002l-.400024.599998v-.900002c1.5-.200001,2.400024.400002,2.099976,1.900002,0,.099998-.299988.200001-.299988.299999v1.5c0,.099998-.299988.200001-.299988.299999-.299988.900002.700012,1.299999,1.5.900002.5-.299999.099976-.900002.599976-1.200001.200012-.599998-1-1.799999.299988-2.200001l.400024,1.200001c1.5.400002,1.200012-1.700001,2.799988-1.200001-.299988.599998-.799988.700001-.599976,1.5-.400024-.099998-1.700012.400002-1.799988.700001-.200012.599998.299988,1.099998.900024,1l-.299988,1c.599976.5.5,1.299999.599976,1.799999,0,.099998.700012,1,.599976,1l-.099854.000008ZM32.599915,24.300004h-1.200012v-.9s1.400024.700001,1.200012.9ZM32.799927,27.000004l.400024.400002-.599976.400002v-.900002h.099976l.099976.099998ZM32.599915,25.800004l-1,.900002h-.599976l-.400024-.700001h2.099976l-.099976-.200001ZM30.599915,23.200003c-.299988-.299999.299988-.9.599976-.6s-.299988.9-.599976.6ZM29.399902,21.400002l.599976-1.200001.599976,1.5-1.200012-.299999h.000061ZM30.299927,23.700003c.200012.6-.200012.799999-.299988,1-.099976.299999.099976.9-.599976.999998,0-.799999-.400024-2.1.900024-2.1l-.000061.100002ZM38.399902,27.300004l1.599976-.299999.599976,1.799999-.599976-.900002c-.5,0-1.200012.099998-1.599976,0-.400024-.099998-1.200012-1.700001-2.400024-.599998l-1.299988-.599998c.099976-.799999,1.099976.200001,1.599976,0,.299988,0,.700012-.5,1.299988-.299999v.599998l.700012.299999h.100037ZM39.499939,23.700003h-.900024v-.9h1.200012c0,.4-.400024.4-.299988.9ZM39.499939,24.900002v.599998l-1.5.299999v-.599998l1.5-.299999ZM35.599915,24.600003l.700012-.6h.700012l.299988.9-1.799988-.299999h.099976ZM34.099915,23.400002c0-1,1.099976-1.299999,1.5-.299999-.599976,0-.799988.5-1.5.299999ZM34.399902,24.600003v1l-.599976.400002c0-.599998-.5-.799999-.299988-1.5h.900024l-.000061.099998ZM33.999939,27.600003c-.200012,0-.200012-.299999,0-.299999s.200012.299999,0,.299999ZM35.299927,30.600003v.299999h-.900024v-.299999h.900024ZM35.599915,36.200001h-.599976v-.299999h.599976v.299999ZM36.499939,34.600003c0,.400002.299988,1.099998-.299988,1,.200012-.900002-.099976-1.200001-.599976-1.799999l1.5-.299999c.200012.599998-.5.799999-.599976,1l-.000061.099998ZM38.599915,37.400002l-.599976-1h.099976c0-.099998,1,.400002,1,.400002l-.599976.599998h.099976ZM37.699951,35.300004v-.599998h.599976l-.599976.599998ZM38.899902,34.600003v-1c.599976,0,.900024,0,1.200012.400002l-.599976,1-.599976-.400002h-.000061ZM40.599915,36.200001h-.599976v-.299999h.599976v.299999ZM41.399902,37.100003c-.200012,0-.200012-.299999,0-.299999s.200012.299999,0,.299999ZM43.299927,35.300004h-.299988l-.299988-1.200001h.900024l-.299988,1.200001h-.000061ZM43.699951,36.800004c-.200012,0-.200012-.299999,0-.299999s.200012.299999,0,.299999ZM44.799927,34.100003h-.599976c.5-1.400002-1.799988-1.5-2.099976-.700001v.599998c0,.200001-.5.400002-.599976.599998,0,.299999.200012.799999-.299988.700001,0-.5.099976-1.200001,0-1.599998l-1-1h-1.200012c-.200012,0-.5.799999-1,.599998v-1.5c-1-.099998-1.599976,0-1.5,1.200001l-1.5.299999c-.099976-1.099998,0-.700001.400024-.900002.200012,0,.299988-.400002.700012-.299999-.200012-.400002.299988-.700001.299988-.700001,0,0-.299988-.200001-.299988-.299999s.5-.5.299988-1.200001c0-.200001-.799988-.5-.599976-1,.099976-.200001.599976.599998.700012.599998.700012.200001,1.299988-.200001,1.900024-.299999,0,.5-.700012.200001-.900024.700001-.099976.400002,0,1.200001.400024,1.299999.5.200001.599976-.099998.900024-.299999.799988-.5,1.200012-.400002,1.799988-1.5l1.900024-.299999-1.5,1.299999.299988,1.299999h-.599976v1.200001h1.5l-.299988-1.200001h.900024c0-.900002,1.599976-1.299999.599976-2.200001l.900024-1.200001-.599976-1.299999h.900024c-.200012,1.299999.200012,3.099998,0,4.299999,0,.099998-.299988.200001-.299988.299999l.599976,3.400002-.299988-.900002.199707.000008ZM42.099915,24.300004h-.900024v-1.200001h.299988c-.200012.6.400024.700001.599976,1.200001h.000061ZM41.699951,25.800004h1.299988l.299988,1.200001c-.5-.099998-.5.200001-.700012.299999-.599976.299999-.400024-.5-.599976-.900002-.299988-.400002-.599976-.299999-1-.299999,0-.5.400024-.299999.700012-.299999ZM43.899902,24.200003c0,.6.599976.6.400024.999998l-1.299988-1.299999,1.200012-1.6c-.099976.700001-.400024,1.200001-.299988,1.9l-.000061.000002ZM45.099915,20.800004c-.400024.200001-1-.5-.900024-.6.400024.1.5-.200001.900024-.299999v.9ZM45.199951,37.400002c-.200012,0-.200012-.299999,0-.299999s.200012.299999,0,.299999ZM45.699951,7.200003h-.900024v.9h.599976v1.6c0,.1-.299988.200001-.299988.299999-.099976,1.299999.5,3-.599976,3.799999v.299999c1.200012.9.200012,1.9.299988,3.1h-.599976v.6h.599976c0,.1-.299988.9-.299988.9l-1.5.299999c-.200012.5.299988.6.299988.700001v1.200001c0,.6.599976.6.400024,1-.400024-.5-.700012,0-.700012-.700001s-.099976-1-.299988-1.6h-1.5c0,.700001.299988,1.6-.400024,2.1l-.299988-.6h.299988c.400024-.1,0-1.1-.299988-1.200001-.5-.1-.900024,0-1.299988.299999-.200012-1.200001.200012-.700001.400024-.9.599976-.299999.5-.9.400024-1.5h-1.5v1.5l-1.200012-.700001.299988-1-.599976.6h-.900024l-.299988,1c.400024.700001,1.200012.4,1.900024.4l.900024,1.200001h.400024c-.599976.299999-.700012.700001-.599976,1.5-.599976,0-.200012-.9-.299988-1.299999s-1.599976-1-1.799988-.700001v1.799999c-1.200012-.299999-.099976-1.9-.299988-2.1-1-.299999-1.200012.9-2.099976.9l-.299988-1.5h1.200012v-1.200001c-1.200012,0-3.099976-.200001-2.099976,1.299999.099976.4-.900024.9-.599976,1.6h1.200012c0,1-.700012,1-1.5.9v-.9h-.900024c0-.4.799988-.799999.900024-1,.099976-.4,0-1,0-1.5,0,0,.5-.5.299988-1h-.900024l.299988,1.5c-.799988,0-1.5,0-1.5.9-.400024.4-2.5-1.6,0-1.200001-.099976-.5,0-.9.099976-1.200001,0-.4.299988-1-.299988-1.200001-.700012-.200001-1.200012,1.6-1,2.1h-.900024l.299988-4.4c.599976,0,.200012.700001.299988,1,0,.5.299988.799999.900024.700001,0-.5.099976-1.200001,0-1.6-.099976-.5-1.400024-.9-1.5-1.200001v-.9c.200012-.799999.5-2.200001.599976-3v-2.8h.599976l-.299988-1.5.900024.7-.599976,1.8,1,.7.400024-.7v-1.5c0-.1-.299988-.2-.299988-.3,0-.4.099976-.9-.299988-1.3,1.200012,0,1,1.6,2.099976,1.5.200012.5-.299988.6-.299988.7-.200012.9.5,1.4.599976,2.2.400024,0,1.099976,0,1.200012-.4.200012-.7-1.5-.8-1.200012-1.6l1.200012-.3v-.6h.700012l1.200012-1.8-.400024,1.5,1.799988.3v.6l1.799988.3-.299988-1.3.599976-1h.900024l-.900024,1.5h1.200012c-.200012-.8.5-.7.700012-.9.299988-.2.5-.7,1-.6l-.400024.6c-.299988,0-.200012.6-.099976.7.099976.4.799988.4,1,.7.700012-.4.400024-1.1.400024-1.8l1-.3c.200012.3-.299988.5-.099976,1,0,.1.299988.2.299988.3l-.900024.4v.9h1.5l-.299988-1.5,1.200012,1v.7l.299744.20001ZM45.199951,5.100003h-.099976c0-.1.400024-.6.400024-.6h.099976c0,.1-.400024.6-.400024.6ZM53.399902,2.100003h2.099976v.3h-2.099976v-.3ZM52.499939,2.100003v.6h-.099976l-.400024-.6h.599976-.099976ZM46.899902,12.800004h3.700012c1.299988-.1,2.700012-.1,3.799988-.299999h2.200012v.6c.5.200001.900024-.299999,1-.299999,1.900024-.299999,4.099976-.200001,5.900024.299999h.299988c2.299988-.6,5.400024,0,7.400024-.299999,1.900024-.299999,4.599976.200001,6.700012,0v.9c.400024-.299999.700012-.200001,1-.299999,1.200012-.299999,3.599976-.5,5-.299999,0,0,.5.5,1,.299999,0,.6.099976,1.1-.400024,1.5-3.400024-.200001-7,.299999-10.400024,0-1.900024-.1-4.700012-.299999-6.5,0-1,.200001-1.700012-.4-2.700012-.299999-1.099976.1-1,1.1.299988,1.200001.799988,0,2.099976-.200001,2.700012,0,.299988,0,.5.799999,1,.6v-.6c.5.299999,1.299988,1.200001,1.200012,0,1.099976.200001,3-.299999,4,0,.099976,0,.400024.5.599976.6h.299988c1.5-1.299999,4.099976-.5,5.599976,0,.700012.200001.900024-.5,1.200012-.6.5-.1,1.599976.299999,2.099976.6l1-.299999v.6h-.599976v1.200001c-1.200012-.200001-3.200012.299999-4.299988,0-3.099976-.700001-9.099976.700001-12.700012-.299999h-4.400024c-1.799988.299999-12.200012.299999-14.200012-.299999-.599976-.200001-1.700012,1-1.900024-.4l.299988-1c1.5.299999,4.200012-.4,5.5,0,.200012,0,.400024.6.700012.6v-.6c.099976-.1,3.099976.1,3.700012,0,.5,0,1.200012-.200001,1.799988-.299999.799988-.1,4.700012.200001,4.900024,0,.099976-.299999-.299988-.9-.400024-.9h-16.700012l.599976-1.299999-.299988-.4.000122-.20001ZM71.299927,34.100003c-.599976-.799999-1.200012-.799999-1.799988,0l-.400024-.900002h2.5c.700012,0,1.5-.400002,2.700012-.299999,2.299988.200001,5.099976.599998,7.099976,0l3.700012.599998c0,.5-.700012.299999-1,.299999-1.099976,0-3.099976.200001-4.099976,0-.099976,0-.200012-.299999-.299988-.299999-.599976-.200001-.799988.299999-.900024.299999-.5,0-2.700012-.099998-2.799988,0v.900002c-1.200012-1.400002-3.200012-1.700001-4.599976-.599998h-.100037ZM75.599915,35.600003v.599998h-1.200012v-.599998h1.200012ZM67.999939,32.000004c-.799988-.099998-1.400024.5-2.200012.299999v-.900002c.700012-.099998,1.400024-.5,2.200012-.299999.099976,0,.200012.299999.299988.299999.5.200001,1.099976,0,1,.900002-.599976.200001-.900024-.200001-1.299988-.299999ZM68.499939,35.600003v.599998c-.700012.099998-1.200012-.200001-1.5-.900002.599976,0,.799988.5,1.5.300003ZM60.899902,31.400002s-.700012.200001-.900024.299999c-.200012,0-.299988.5-.700012.299999,0-.900002-.700012-1.200001-1.5-.599998-.299988-.799999,1-.700001,1.299988-.599998.700012.200001.400024,0,.599976,0h5.5v.599998h-4.299988.000061ZM64.299927,34.100003l-1.599976.299999-1.900024-1.200001c.5.299999,1.099976.400002,1.599976.599998.099976,0,.200012.299999.299988.299999.5.099998,1.099976,0,1.599976,0l.000061.000004ZM59.299927,33.800004v.599998h-.099976l-.400024-.599998h.599976-.099976ZM57.999939,33.500004c-.200012,0-.200012-.299999,0-.299999s.200012.299999,0,.299999ZM55.299927,32.300004c.200012,0,.599976-.900002,1.299988-.599998v.900002h-2.099976v.599998c-.400024,0-.700012-.099998-.900024-.400002-.400024-.700001,1.400024-.400002,1.599976-.400002l.100037-.099998ZM53.999939,30.900002v-.299999h.599976v.299999h-.599976ZM55.599915,30.600003c.200012,0,.200012.299999,0,.299999s-.200012-.299999,0-.299999ZM56.199951,29.700001s-.299988.5-.700012.299999v-1.200001h1.299988c.099976,0,.200012.299999.299988.299999,1.099976.099998,2.400024,0,3.599976,0,.5,0,.900024,0,1,.599998h-5.5l.000061.000004ZM63.099915,29.500004l.400024-.700001c.700012,0,.799988.299999.900024.299999,1.599976.200001,3.799988-.200001,5,0,1,.200001,2.799988-.599998,2.799988.900002h-3.099976c-.5,0-1.700012-.799999-2.400024,0l-3.700012-.400002.099976-.099998ZM52.899902,19.300004c1.099976.1,4.799988.200001,5.599976,0,.200012,0,.400024-.5.599976-.6h1.299988l.400024.9c.400024.1.900024-.5.700012-.9.299988,0,.599976.5.700012.6,1.5.4,4.799988.700001,6.200012-.299999h.599976c1.400024,1.299999,3,.1,4.599976.299999v-.6h.599976l.400024.9h2.200012l.400024-.9c.299988-.200001.5.299999.599976.299999s.5-.5,1-.299999v.9c.599976-.200001.900024.299999,1,.299999.200012,0,1.799988-.799999,2.400024,0h2.5c0-.1-1,.9-1,.9-1-.1-2.299988.200001-3.299988,0-3.200012-.6-7.900024-.1-11.5.299999-1.200012-1.299999-2.599976,0-3.799988-.299999-1.299988-.200001-4.900024-.6-6.5-.299999-.900024.200001-3.200012.5-3.799988-.299999-1.700012.200001-3.599976.4-5.299988,0-.299988,0-1.700012.200001-2.099976.299999-.099976,0-.299988.5-.700012.299999v-1.799999c.200012.4,1.400024.4,1.900024.299999,1.299988-.299999,2.700012-.1,4.099976,0l.199951.000002ZM48.899902,18.700003v-.299999h.599976v.299999h-.599976ZM72.299927,19.000002v-.299999h.900024v.299999h-.900024ZM85.099915,31.100003v.900002h-1.200012c0-.400002.900024-1.099998,1.200012-.900002ZM84.799927,30.000004c-2.099976-.299999-5,.400002-7,0-1.200012-.200001-1.900024.299999-3-.299999h-2.200012c.400024-.700001.799988-.599998,1.299988-.599998.700012,0,2-.099998,2.700012,0,1.599976.299999,5.299988.5,7.400024.299999.400024,0,.400024-.200001.700012-.299999v.900002l.099976-.000004ZM81.099915,31.400002l-1.200012.599998c-.599976-.900002-2,.599998-2.5-.400002-.400024-.900002,1,0,1.299988-.099998.599976-.200001,1.099976-.200001,1.799988-.299999h1.599976c.099976,1.200001-.700012.200001-1,.299999l.000061-.099998ZM77.099915,31.400002l-.400024.599998h-1.599976l.400024-.599998h1.599976ZM74.399902,31.100003c-.5,1.299999-1.400024-.099998-1.900024.599998h-1.900024c.400024-.700001.799988-.599998,1.299988-.599998h2.500061ZM66.499939,34.100003c.200012,0,.200012.299999,0,.299999s-.200012-.299999,0-.299999ZM65.799927,35.900002c-.299988-.299999.299988-.900002.599976-.599998.299988.299999-.299988.900002-.599976.599998ZM47.299927,22.600003c3.099976.5,7.299988-.200001,10.099976.6h3.299988c4.799988-.5,10.299988.4,15.099976-.299999l.900024.6c1.700012-.799999,4.299988.200001,5.900024-.6l.900024.6,1-.299999v.9c-.5.1-.700012-.4-1-.299999-1,.299999-3.599976.5-4.700012.299999-1.200012-.299999-3,.299999-4.400024,0-1.400024-.200001-2.900024.200001-4.400024,0-4.099976-.6-8.700012,0-12.700012-.299999h-10.099976l-.700012-1.5c.5,0,.599976.200001,1,.299999l-.199951-.000002ZM46.299927,25.200001c.599976,0,1,.400002.900024.900002.200012.200001,4.599976-.200001,5.5,0,.599976.099998,1.5.099998,2.400024,0,2.299988-.400002,9.5-.099998,12.099976.299999,1.200012.200001,2.200012-.5,3.599976-.299999,3.900024.5,8.599976.299999,13,.299999.5,0,1.200012-.299999,1,.400002h-4.299988c0,.099998-.599976.400002-.599976.400002l-.900024-.599998c-6.5.799999-14.599976,0-21.299988.299999l-.900024-.599998c-1.299988.5-3.099976.5-4.099976.299999-1.200012-.200001-2.900024.200001-3.799988.599998-.5-.799999-.900024-.5-1.5-.599998-.099976,0-.5-.5-1-.299999v-1.200001l-.100037.099995ZM46.299927,28.900002l.299988-.700001c.599976-.200001.799988.5,1,.599998,1.299988.400002,3.200012.400002,4.700012.299999.099976,0,.200012-.299999.299988-.299999h2.200012l-.400024.900002h-6.799988l-1.299988-.700001v-.099998ZM52.899902,32.600003c-.200012,0-.200012-.299999,0-.299999s.200012.299999,0,.299999ZM51.999939,33.200001c-.200012,0-.200012-.299999,0-.299999s.200012.299999,0,.299999ZM51.599915,32.900002v.299999h-.900024v-.299999h.900024ZM47.199951,30.600003l.900024,1.5-1.5-.299999c0-.599998-.299988-1.400002.599976-1.200001ZM46.899902,32.600003h1.299988c.099976,0,.200012.299999.299988.299999.799988.200001,1.5-.799999,1.900024.299999h-3.099976c-.5,0-.799988-.299999-.400024-.599998ZM49.999939,34.400002c-.200012,0-.200012-.299999,0-.299999s.200012.299999,0,.299999ZM47.399902,34.100003v1.200001c.700012,0,1.599976.099998,2.200012,0,.700012-.099998,2.200012-.200001,3,0,.700012.200001,1.299988-.200001,1.900024-.299999v.900002h-1.299988c-1.400024-.200001-3.299988-.299999-4.700012,0l-1.599976-.599998c0-.599998-.299988-1.400002.599976-1.200001l-.100037-.000004ZM48.499939,38.000004c-.5,0-.700012-.400002-1.200012-.299999v-.900002c.599976.5,1.200012,1.099998,2.200012.900002,0,.5-.799988.299999-1,.299999ZM51.199951,39.700001c-.200012,0-.200012-.299999,0-.299999s.200012.299999,0,.299999ZM53.499939,39.400002c-.200012,0-.200012-.299999,0-.299999s.200012.299999,0,.299999ZM56.299927,39.700001h-.299988v-.599998h.299988v.599998ZM58.299927,39.700001c-.200012,0-.200012-.299999,0-.299999s.200012.299999,0,.299999ZM61.999939,38.000004h-11.799988l.700012-.599998c.599976-.200001.799988.299999.900024.299999,1.5.299999,3.200012-.299999,4.400024,0,1,.200001,3.5,0,4.700012,0,.400024,0,1.099976-.200001,1,.299999h.099915ZM62.099915,35.600003c-.299988.200001-2.799988.599998-3,.599998-.900024-.299999-1.900024-.5-3-.299999-.099976,0-.200012.299999-.299988.299999-.599976.200001-1.099976-.200001-1-.900002h1.799988l-.299988-1.200001h.900024v1.200001c.799988-.099998,2,.200001,2.799988,0,.099976,0,.200012-.299999.299988-.299999.400024-.099998.5.299999.599976.299999,1,.200001,2.5-.400002,3.299988.299999l.400024-1h.599976l-.299988,1.599998-1-.599998-.900024.599998-.900024-.599998.000061.000004ZM63.599915,39.700001c-.200012,0-.200012-.299999,0-.299999s.200012.299999,0,.299999ZM70.999939,39.700001c-.200012,0-.200012-.299999,0-.299999s.200012.299999,0,.299999ZM67.699951,38.300004c-.099976,0-.200012-.299999-.299988-.299999h-2.700012c-.400024,0-1.099976.200001-1-.299999,2.099976.099998,4.299988-.200001,6.400024,0,.099976,0,.200012.299999.299988.299999l1.599976.299999h-4.299988ZM70.399902,36.200001c-.599976,0-1,0-1.299988-.400002-.099976-.700001.599976-.5,1-.400002.700012,0,1.900024.400002,2.099976.299999.099976,0,.200012-.299999.299988-.299999h1.599976l-.299988.900002c-.5.200001-.599976-.299999-.700012-.299999-1.099976-.200001-1.799988.299999-2.700012.299999l.000061-.099998ZM79.999939,38.300004h-7.099976c-.400024-.299999,0-.599998.400024-.599998h3.599976c.099976,0,.200012.299999.299988.299999h1.799988c.400024,0,1.099976-.200001,1,.299999ZM75.899902,36.200001c0-.799999.700012-1,1.299988-.900002.700012.200001,1.299988.799999,2.099976-.299999.700012,1.099998,1.400024.200001,1.799988.299999,1,.299999,2.099976.400002,3.299988.299999.400024,0,.400024-.200001.700012-.299999v1.200001c-.5.200001-.900024-.299999-1-.299999-1.200012-.200001-2,.200001-3,0-.799988-.200001-5,.200001-5.200012,0h.000061ZM81.099915,40.000004c-.200012,0-.200012-.299999,0-.299999s.200012.299999,0,.299999ZM80.899902,38.300004c-.200012-.599998.200012-.799999.700012-.599998,1,.400002,1.599976.299999,2.700012.299999.5,0,.900024.200001,1.200012-.299999v.599998c.099976,0-4.599976,0-4.599976,0h-.000061ZM85.699951,4.800003c-.200012.2-3.299988-.2-4,0-.200012,0-.400024.6-.700012.6v-.6h-7c-.5-.7-.700012,0-.900024,0-1.200012.3-3,.3-4.099976-.6l-1.5.9c-.700012-1.1-2.099976-.4-3.299988-.6-.799988-.1-1.299988.1-2.099976,0-2.400024-.4-4.799988,0-7.099976-.3h-2.5l1,1.5c.900024-.1,2.200012.2,3,0,1.200012-.3,2.700012.2,3.799988,0,1.200012-.2,2.400024,1,3.299988-.3,1.099976.3,3,.5,4.099976.6,1.700012,0,4.700012.4,5.900024-.6.700012,1.3,2.400024.1,3,.3,1.299988.4,2.400024,0,3.599976.6l.900024-.6c.799988.5,2.5.4,3.599976.3.400024,0,.599976.1.900024-.3v1.2c-.799988,0-1.5-.1-2.099976,0,0,0-.299988.5-.900024.3-1.700012-.5-3.400024-.2-5.299988-.3-3.5-.2-7.799988-.7-11.299988,0l-.900024-.6c-2.400024.4-6.200012.6-8.599976,0-.900024-.2-1.5.7-2.099976,0l-1,.9v-.9c-1.599976.3-4.200012-.3-5.5,0-.200012,0-.5.5-.400024.7,0,.9.900024.6,1.299988,1h.299988c.400024-.8,2.799988-.8,3.599976-.6.200012,0,.400024.5.599976.6.599976.2,1.799988-.1,2.5,0v-.7h.900024c0-.1-.299988.7-.299988.7h3v-.6c.599976-.2.900024.3,1,.3.799988.2,1.200012.2,1.799988,0,.799988-.2,1,.8,1.799988.6l1.299988-.9v.9h1c.900024-.2,2.200012-.5,3.299988-.3.099976,0,.200012.3.299988.3h.299988l.599976-1.2.900024.9c.700012-.9,1.200012.2,1.5.3h1c0-.7.5-1,1.200012-.9v.6s0,.3.099976.3c.400024.1,2.400024,0,3,0,1.599976-.2,3.299988,0,5-.3,1.299988-.2,2.200012,0,1.900024,1.499999l-1.299988.299999c-.200012-.1-.400024-.6-.599976-.6h-4.099976c-.400024.1-.900024,1-.700012,1.5h6.5v1.200001h-2.5c-1.099976,0-2.799988-.6-4.099976-.299999-.200012,0-3.400024.299999-3.599976.299999-4.299988-1.200001-10.099976.4-14.5-.6-.700012-.200001-1.599976.5-2.700012.299999-2.200012-.5-6,0-8.299988-.299999-.700012-.1-1.900024,0-2.5.299999l.299988-1.5h2.5c.099976,0,.200012.299999.299988.299999.900024.1,1.900024.200001,2.400024-.6.400024.799999,2.799988.799999,3.599976.6.700012-.200001,0-.799999,1.799988-.299999.599976.200001,1-.5,1.599976-.299999v.6l2.099976-.6.400024.9.900024-.6.599976.6c1.200012-.9,2.400024-.4,3.799988-.9.599976-.200001.700012.6,1.900024,0,0-.299999,0-.6-.400024-.9h-8.299988c-1.900024.4-5-.5-7.099976.299999-1.299988-.8-2.400024-.3-4.099976-.6-1.200012-.2-1.400024.3-2.200012.9-.299988-.7.5-1.1.599976-1.3.200012-.7-.599976-1.1-.599976-1.2l.299988-.7h.599976l.400024-.9h1.5c.099976,0,.200012.3.299988.3h2.200012c0-.5,0-1.3-.400024-1.5-.900024-.2-2.700012.2-3.700012,0l-.599976.9.299988-1.8c.700012,0,1.299988.2,1.799988-.4l-.599976-1h2.400024c0,.5-.400024.5-.700012.6s0,.6-.099976.9c.099976.1,2.599976,0,3.099976,0,.099976,0,.200012.3.299988.3.799988.2,1.099976-.3,1.200012-.3.099976,0,.299988.5.599976.3l.400024-.4-.299988-1h8.599976v.6c-.400024-.4-1-.4-1.299988-.3-.099976,0-.200012.3-.299988.3-.5.1-1.200012-.5-2.099976-.3l-.400024,1.2c.5.2,1-.3,1-.3.400024,0,1.5.2,1.799988.3.900024.2,1.400024-.3,2.200012-.3v-.9c.599976,0,.900024-.4,1.599976-.3.299988,0,.799988.2,1,.4h-1.299988c0-.1-.700012,1-.700012,1h1.299988c.099976,0,.200012-.3.299988-.3s.200012.3.299988.3h1.200012c.599976-.4.5-.8.400024-1.5.5-.2,1,.3,1,.3,1,.1,3,.2,3.599976-.6h.299988c.599976.9,1.200012.5,2.099976.6.599976,0,.799988.2,1.299988.3-.099976.8-1.200012-.2-1.599976,0l-1.299988.3.400024.9.900024-.3c1,.8,2.299988,0,3.400024,0l-1.200012-1.2c.599976-.2,1,.4,1.299988.3.099976,0,.200012-.3.299988-.3.400024,0,1.200012,0,1.5.3l1.599976.3-2.200012-.3c-1.099976,1,.299988,1.3,1.200012,1.2,1.200012-.2,1.799988.2,3,0,.099976,0,.200012-.3.299988-.3,0,0,.299988.5.700012.3l-.299988.9-.299988-.099997ZM85.199951,3.000002h-1.599976c0-.5.700012-.3,1-.3h1.599976c0,.5-.700012.3-1,.3ZM182.799927,22.300004h0c0-.1.599976-.6.599976-.6v.6h-.599976ZM183.699951,23.200003v-.6h1.200012v.299999c-.5,0-.799988,0-1.200012.300001ZM185.699951,26.400002c.299988.299999-.299988.900002-.599976.599998s.299988-.900002.599976-.599998ZM186.899902,23.400002h-.900024v-.6h.900024v.6ZM158.799927,16.600003h.299988v.6h-.299988v-.6ZM155.199951,16.000002c-.599976,0-1,0-1.200012-.6.599976,0,1,0,1.200012.6ZM153.199951,16.900002c-.099976.1-.799988-.5-.599976-.9.099976-.1.799988.5.599976.9ZM152.399902,15.200003c.200012,0,.200012.299999,0,.299999s-.200012-.299999,0-.299999ZM150.999939,15.500002c.200012,0,.200012.299999,0,.299999s-.200012-.299999,0-.299999ZM150.099915,14.900002l.400024.4h-.099976c0,.1-.400024-.299999-.400024-.299999h.099976v-.1ZM146.999939,14.600003h1.200012v.6c-.400024-.200001-.700012-.4-1.200012-.299999v-.300001ZM142.799927,13.400002h.900024v.6h-.900024v-.6ZM139.699951,16.600003l.400024,1.5-1.599976.299999c-.700012,0,.599976-1.9,1.200012-1.799999h-.000061ZM137.899902,12.200003c.400024,0,.400024.9,0,.9s-.400024-.9,0-.9ZM135.399902,11.900002h.900024c0,.700001-.5,1-1.200012.9l.299988-.9ZM133.599915,11.300004c.299988.299999-.299988.9-.599976.6s.299988-.9.599976-.6ZM130.399902,11.000002c.599976,0,1,.299999.900024.9h-.900024v-.9ZM127.999939,10.400002h.599976l-.599976.6v-.6ZM125.599915,10.400002l.900024.6h-.599976c0,.700001.299988,1.4-.599976,1.200001l.299988-1.799999-.000061-.000002ZM123.599915,10.400002h.900024l-.400024.6h-.400024v-.6h-.099976ZM122.699951,11.900002c.700012,0,1.400024-.200001,1.799988.4-.400024.6-1.099976.4-1.799988.4v-.9.1ZM121.199951,9.500002h1.200012l-.400024.6h-.299988l-.400024-.4h0l-.099976-.200001ZM120.899902,11.000002h1.5v.6h-1.5v-.6ZM122.399902,12.800004l-1,1.200001-.700012-1h1.799988l-.099976-.200001ZM119.999939,9.800004v.9l-1.200012-.299999c.200012-.6.599976-.700001,1.200012-.6ZM117.899902,8.900003h.599976v.3h-.599976v-.3ZM117.599915,10.100003c0,1-.799988.799999-1.5,1.200001-.099976-1.1.5-1.299999,1.5-1.200001ZM115.599915,8.600003h.900024v.3h-.900024v-.3ZM114.999939,9.200003v.9h-.099976l-.700012-.9h.900024-.100037ZM112.299927,8.300003h.900024v.3h-.900024v-.3ZM110.499939,9.200003h.599976v.299999h-.599976v-.299999ZM110.199951,10.700003c.700012-.1,1.200012.200001,1.5.9-.799988,0-1.5,0-1.5-.9ZM109.799927,7.800003c.200012,0,.200012.3,0,.3s-.200012-.3,0-.3ZM108.499939,9.500002l.700012-.299999h.099976c0,.1-.299988.9-.299988.9h-.599976v-.6h.099976ZM107.899902,7.800003c.299988.3-.299988.9-.599976.6-.299988-.3.299988-.9.599976-.6ZM104.599915,8.800003l-.599976.400001c.200012-.8-.299988-.9-.599976-1.5.799988-.1.799988.6,1.200012,1l-.000061.099999ZM101.799927,7.200003c.200012,0,.200012.3,0,.3s-.200012-.3,0-.3ZM99.599915,7.800003h.900024v.6h-.900024v-.6ZM97.799927,8.600003h1.200012v.6h-1.200012v-.6ZM95.699951,7.500002h.900024l-.400024.6h-.400024v-.6h-.099976ZM95.599915,9.200003c.5,0,.700012-.5,1,.299999l-1.799988.299999c-.099976-.9.200012-.5.700012-.6l.099976.000002ZM94.499939,8.000002h.299988v.9h-.299988v-.9ZM94.099915,6.900003c.200012,0,.200012.3,0,.3s-.200012-.3,0-.3ZM92.199951,8.000002h1.200012c0,.7-.5,1-1.200012.9v-.9ZM91.399902,6.600003c.200012,0,.200012.3,0,.3s-.200012-.3,0-.3ZM91.899902,9.200003v.299999h-1.799988v-.299999h1.799988ZM90.399902,7.500002c0,.6-.299988,1-.900024.9l.900024-.9ZM88.499939,6.900003c.200012,0,.200012.3,0,.3s-.200012-.3,0-.3ZM87.899902,22.300004c-.200012,0-.200012-.299999,0-.299999s.200012.299999,0,.299999ZM87.999939,18.700003h-.299988v-.9h.299988v.9ZM90.099915,22.000002h-.599976v-1.799999h.599976v1.799999ZM88.899902,19.300004v-.299999h.599976v.299999h-.599976ZM90.399902,26.100003c-.299988-.299999.299988-.900002.599976-.599998.299988.299999-.299988.900002-.599976.599998ZM91.099915,28.800004c-.200012,0-.200012-.299999,0-.299999s.200012.299999,0,.299999ZM90.399902,18.400002l.299988-.9h.900024c0,.700001-.5,1-1.200012.9ZM91.999939,20.800004c-.200012,0-.200012-.299999,0-.299999s.200012.299999,0,.299999ZM91.899902,20.200003v-.6h.299988v.6h-.299988ZM92.199951,24.900002v-.6l.599976.6h-.599976ZM93.599915,33.800004h-.599976v-.299999h.599976v.299999ZM92.799927,19.000002v-1.299999l.400024-.4h.099976v1.799999h-.599976l.099976-.1ZM94.099915,31.400002c-.200012,0-.200012-.299999,0-.299999s.200012.299999,0,.299999ZM94.999939,24.600003c-.200012,0-.200012-.299999,0-.299999s.200012.299999,0,.299999ZM94.199951,20.800004v-.9h.900024c0,.6-.299988,1-.900024.9ZM95.599915,18.700003l-1-1.799999c1,0,2.200012.799999,1,1.799999ZM96.299927,16.200003l-.599976.4v-1l.599976-.4v1ZM97.299927,29.700001c-.200012,0-.200012-.299999,0-.299999s.200012.299999,0,.299999ZM97.299927,25.200001c-.200012,0-.200012-.299999,0-.299999s.200012.299999,0,.299999ZM97.499939,21.100003h-.599976v-.299999h.599976v.299999ZM97.599915,31.400002c-.200012,0-.200012-.299999,0-.299999s.200012.299999,0,.299999ZM97.599915,22.300004c-.200012,0-.200012-.299999,0-.299999s.200012.299999,0,.299999ZM97.599915,19.600003c-.400024,0-.400024-.9,0-.9s.400024.9,0,.9ZM98.699951,17.500002c-.900024.1-1.299988-.299999-1.200012-1.200001h1.200012v1.200001ZM98.999939,26.300004h0c0-.099998.900024-.099998.900024-.099998l-.400024.599998-.400024-.400002-.099976-.099998ZM99.999939,33.800004c-.200012,0-.200012-.299999,0-.299999s.200012.299999,0,.299999ZM100.199951,29.100003h-.599976v-.299999h.599976v.299999ZM100.499939,24.000002h-.599976v-.299999h.599976v.299999ZM99.899902,21.400002h-.599976v-1.200001h1.200012c-.099976.5-.700012.6-.599976,1.200001h-.000061ZM101.299927,19.000002h-1.5v-.9h1.799988l-.299988.9ZM99.899902,16.900002v-1.200001l2.099976.299999v.9c-.5.200001-.900024-.299999-1-.299999-.400024,0-.599976.4-1,.299999l-.099976.000002ZM102.499939,30.600003h-.599976v-.299999h.599976v.299999ZM103.099915,28.500004h-.900024v-.299999h.900024v.299999ZM105.199951,17.800004h-1.200012c0-.799999-.5-1.200001-.299988-2.1h2.099976l-.900024.700001.299988,1.299999.000061.1ZM103.699951,17.500002c.200012.200001-.5,1.1-.900024,1.200001v-1.200001h.900024ZM103.399902,20.500002c-.599976-.200001-.700012-.6-.599976-1.200001.599976.200001.700012.6.599976,1.200001ZM103.099915,22.000002v-.299999h.599976v.299999h-.599976ZM104.299927,23.700003h-.599976v-.299999h.599976v.299999ZM105.199951,22.000002c-.299988-.299999.299988-.9.599976-.6s-.299988.9-.599976.6ZM105.599915,30.000004c-.200012,0-.200012-.299999,0-.299999s.200012.299999,0,.299999ZM106.099915,33.800004h-.599976v-.299999h.599976v.299999ZM106.099915,27.900002v-.599998l.599976.599998h-.599976ZM106.999939,24.600003h-.099976l-.400024-.6h.599976v.6h-.099976ZM107.299927,21.100003h-.599976v-.299999h.599976v.299999ZM109.299927,21.100003c0,.6-.299988,1-.900024.9,0-.6.299988-1,.900024-.9ZM108.999939,17.200003l1-1.5v1.5c.099976,0-1,0-1,0ZM108.499939,24.900002h.599976v.599998h-.099976l-.400024-.6-.099976.000002ZM109.599915,27.300004h-.599976c0-.099998.599976-.599998.599976-.599998v.599998ZM109.799927,30.000004c-.200012,0-.200012-.299999,0-.299999s.200012.299999,0,.299999ZM109.599915,19.600003c-.200012-1,.400024-1.1,1.200012-1.5.099976.799999-.400024,1.5-1.200012,1.5ZM110.799927,24.900002v-.6l.599976.6h-.599976ZM110.799927,22.900002v-.6l.599976.6h-.599976ZM112.499939,29.400002c-.200012,0-.200012-.299999,0-.299999s.200012.299999,0,.299999ZM111.699951,27.300004c-.099976-.099998.5-.799999.900024-.599998.099976.099998-.5.799999-.900024.599998ZM112.299927,16.300004h-.599976v-.9h.900024c0,.4-.400024.4-.299988.9h-.000061ZM111.699951,20.800004v-.299999h.599976v.299999h-.599976ZM113.599915,35.300004c-.200012,0-.200012-.299999,0-.299999s.200012.299999,0,.299999ZM113.799927,32.900002h-.599976v-.299999h.599976v.299999ZM112.899902,24.300004v-.6h.299988v.6h-.299988ZM113.299927,22.300004c.200012,0,.200012.299999,0,.299999s-.200012-.299999,0-.299999ZM114.099915,17.400002c-.299988.200001-.400024.1-.400024.1-.700012.4-.200012,1.6-1.299988,1.5-.099976-.700001.200012-1.299999.900024-1.200001,0-.700001-.099976-1.4.700012-1.5.400024.299999.700012.700001.099976,1v.1ZM115.999939,25.200001h-.400024v-.6h.900024l-.400024.6h-.099976ZM114.999939,22.600003h0c0-.1.599976-.6.599976-.6v.6h-.599976ZM115.599915,19.900002c-.200012.200001-.900024-1-.900024-1.299999.400024-.700001.900024-.299999,1.299988-.4.400024-.1.5-1.4,1.200012-1.200001.599976.5.400024.4,0,.9-.700012.700001-1.900024.9-1.599976,2.1v-.1ZM117.499939,23.400002c-.200012,0-.200012-.299999,0-.299999s.200012.299999,0,.299999ZM116.999939,19.300004l1.200012-.299999v1.200001c-.700012.1-1.299988-.1-1.200012-.900002ZM117.899902,26.700001c-.299988-.299999.299988-.900002.599976-.599998.299988.299999-.299988.900002-.599976.599998ZM119.399902,31.400002h-.599976v-.299999h.599976v.299999ZM119.399902,24.000002h-.900024l.400024-.6h.400024v.6h.099976ZM118.999939,17.800004l-.400024-.700001.299988-.700001h.599976c0,.6.099976,1.1-.400024,1.5l-.099915-.099998ZM120.999939,28.200001c-.200012,0-.200012-.299999,0-.299999s.200012.299999,0,.299999ZM121.199951,25.200001h-.599976v-.299999h.599976v.299999ZM121.199951,22.900002h-.599976v-.299999h.599976v.299999ZM120.599915,20.500002l-.599976-.4c-.299988-1,.5-1.200001.599976-1.5,0-.299999,0-.9.400024-1,.599976-.200001,1.400024,0,1.299988.9-1.799988-.200001-1.900024.4-1.799988,2.1l.099976-.1ZM120.899902,16.600003v-.9c.400024,0,.599976.1.900024.4-.299988.299999-.400024.5-.900024.4v.1ZM121.899902,21.700003c-.200012,0-.200012-.299999,0-.299999s.200012.299999,0,.299999ZM122.199951,24.300004c-.200012,0-.200012-.299999,0-.299999s.200012.299999,0,.299999ZM122.499939,32.000004c-.200012,0-.200012-.299999,0-.299999s.200012.299999,0,.299999ZM122.099915,20.200003l.400024-.9.700012.4c-.299988.5-.599976.5-1.200012.4l.099976.1ZM123.399902,35.000004c-.200012,0-.200012-.299999,0-.299999s.200012.299999,0,.299999ZM123.599915,30.000004h-.599976v-.299999h.599976v.299999ZM123.899902,22.000002h-.299988v-.6h.299988v.6ZM124.299927,28.500004c-.200012,0-.200012-.299999,0-.299999s.200012.299999,0,.299999ZM124.299927,20.500002c-.200012,0-.200012-.299999,0-.299999s.200012.299999,0,.299999ZM124.699951,19.600003c0-.5,0-.799999-.299988-1.200001.599976,0,.900024,0,1.200012.4l-.900024.700001v.1ZM126.799927,20.200003v.299999l-.700012.299999-.400024-.6h1.200012l-.099976.000002ZM125.799927,16.900002c.200012,0,.200012.299999,0,.299999s-.200012-.299999,0-.299999ZM125.299927,27.000004h-.299988v-.900002h.299988v.900002ZM125.599915,22.000002h.299988v.9h-.299988v-.9ZM125.899902,32.900002c-.299988-.299999.299988-.900002.599976-.599998s-.299988.900002-.599976.599998ZM126.799927,30.300004c-.299988-.299999.299988-.900002.599976-.599998s-.299988.900002-.599976.599998ZM127.899902,20.800004c-.200012,0-.200012-.299999,0-.299999s.200012.299999,0,.299999ZM127.899902,22.300004c-.200012,0-.200012-.299999,0-.299999s.200012.299999,0,.299999ZM127.699951,19.000002h-.900024v-1.200001c.400024,0,1.099976.9.900024,1.200001ZM127.999939,26.100003h-.299988v-.599998h.299988v.599998ZM129.799927,21.700003h-.299988v-.6h.299988v.6ZM128.299927,20.000002c.400024-.200001.200012-.6.400024-.700001.900024-.299999.5-.799999,1.299988-1.200001l-.299988,2.4-1.5-.4.099976-.099998ZM130.499939,32.000004c-.200012,0-.200012-.299999,0-.299999s.200012.299999,0,.299999ZM130.099915,29.100003v-.599998h.599976l-.599976.599998ZM130.699951,22.600003h-.599976v-.299999h.599976v.299999ZM131.599915,24.300004h-.599976c0-.1.599976-.6.599976-.6v.6ZM131.299927,21.100003c0-.6.299988-1,.900024-.9,0,.6-.299988,1-.900024.9ZM131.299927,19.300004h0c0-.1.900024-.9.900024-.9v.9h-.900024ZM133.299927,23.200003h-.599976v-1.200001c.599976.200001.700012.6.599976,1.200001ZM132.999939,19.900002l.400024-.6h.400024v.6h-.900024.099976ZM133.799927,33.800004c-.200012,0-.200012-.299999,0-.299999s.200012.299999,0,.299999ZM134.499939,31.400002h-.900024l.400024-.599998h.400024v.599998h.099976ZM133.599915,29.400002v-.299999h.599976v.299999h-.599976ZM134.499939,25.500004h-1.200012v-.299999h1.200012v.299999ZM134.799927,21.400002h-.599976v-1.200001l.900024.4-.299988.700001-.000061.1ZM135.699951,18.900002c.599976-.5.700012-.9.599976-1.6h-2.099976l.299988,1.5h-.599976c.200012-.799999-.599976-1.299999-.599976-2.1-.700012.1-1.900024-.200001-2.5,0-.200012,0-.400024.799999-1.200012.6-.200012,0-.400024-.4-.400024-.700001,0-.5.599976-.5-.099976-1-.5-.1-.5.200001-.599976.6,0,.299999-.200012.5-.099976.9h-.900024v-.6c-.900024-.299999-1.799988-.4-2.799988-.299999-.5,0-.599976.4-1,.299999-.099976.700001.400024.799999.900024,1,.5.299999.099976.5-.099976.700001-.200012-.299999-.900024-.4-1-.700001-.200012-.5,0-1.1-.900024-1l.299988-1.200001c-.599976.1-1.700012-.200001-2.200012,0-.200012,0-.900024,1-1.5.9-.400024-.5-1-.200001-1.599976-.299999v-1.200001c-.5,0-2,0-1.799988.700001.099976.4.799988.5,1.200012.4l-.700012.9c-.400024-.200001-.5-1.1-.900024-1.200001-.299988,0-.799988-.299999-.900024-.299999h-1l.299988-2.1c1.099976.200001,1.700012-.700001.700012-1.5l-1,.299999v.9h-.900024l.299988,2.1-2.400024-.299999v.6c-.700012-.9-1.599976-.700001-2.099976.1v.299999c0,.1-.299988.200001-.299988.299999-.099976.5,0,2.299999,0,3,0,.5.5.799999.299988,1.299999l-.700012-1.200001h-1.200012c-.299988.200001-1.299988,1.5-1.599976,1.200001.099976-1.4,2.099976-1.200001,2.700012-1.9l-.299988-1.5c1-.700001.700012-1.4,0-2.200001h1.200012c-.200012-1.4-1.599976-1.700001-1.5,0-.5-.200001-.599976.299999-.700012.299999-.700012.200001-1.099976-.299999-1.599976-.299999v-.6h-1.200012v1.5h-1.200012v-1.200001c-1.099976,0-2.900024-.200001-3,1.200001l-1.200012-.700001,1.200012-.6c-.099976-.799999-1-1.4-1.799988-.9-.299988.200001-.299988.799999-.700012,1l-.900024-.6-.700012.299999c-.099976.1.299988,1.9-.400024,1.5-.299988-.1-.5-.5-.400024-.9h-.599976v-1.200001h-1.5l-.299988,1c.5.4.700012.700001.599976,1.299999.200012.200001,1.799988-.5,1.5.6h-1.799988l-.299988-1.299999-.900024-.4-.299988-1.200001c-.799988,0-1.5,0-1.5.9l.900024.6-1.200012.700001c.599976,1,1.200012.700001,2.200012.700001.5,0,.799988.299999.400024.6-.5,0-1.200012-.1-1.599976,0-.200012,0-.5.799999-1,.6v-1.5h-.599976c-.200012-.5.299988-.6.299988-.700001.200012-1.1-.900024-1.4-.599976-2.5l.900024-.4v-1.5c0-.1-.299988-.200001-.299988-.299999-.200012-.6-.400024-1-.299988-1.6l1,1.200001.700012-.299999c.200012.5-.299988.9-.299988,1,0,.5-.099976,1.799999.400024,1.9.900024.299999.700012-1.299999.700012-1.6,0-.200001.799988-.6,1-.700001.700012-.4.299988,1.1.400024,1.200001.5,0,1.900024.200001,2.099976-.4,0-.200001.099976-.700001-.099976-.700001l-1.299988-.6,2.200012.299999c.299988.299999.599976.6.400024,1,0,.1-.299988.200001-.299988.299999-.099976.4.400024.6.299988,1h1.200012l.299988-.700001c.200012-.6-.299988-.700001-.299988-.9-.099976-.4.400024-.6.299988-1,.299988.299999.900024.299999.900024.299999,0,0,0,1.1.900024.9l-.599976,1.5h1.200012v-.6h.599976l.299988-.700001-.900024-1.6,1,.6c.599976-.299999.299988-.700001.400024-1,0-.200001.799988-.7.900024-.3-1,.7-.5,1.900001-.599976,2.999999,0,.1-.299988.200001-.299988.299999v1c.5,0,1.299988,0,1.5-.4v-.6c0-.299999.799988-.4.599976-1.200001l-.900024-1.9,1.200012.299999-.299988.700001c0,.299999.299988.700001.400024.700001.5.1.700012-.299999,1-.1l-.900024,1.200001c.5.299999.900024,1.5,1.299988,1.6.200012,0,.700012.1.700012-.1v-1.5c0-.5.200012-.799999.599976-.4,0-.299999-.200012-.799999-.400024-.9-.400024-.1-1.099976.299999-1-.299999l1.200012-.6c-.099976,1.200001.799988,1.700001,1.200012.4.099976-.4-.200012-.5.599976-.4,0,.6-.400024,1.1-.299988,1.799999,1,.1,1.799988.799999,3,.6l.299988.700001v1.299999c-.099976,0,1.5-.9,1.5-.9v-1.200001c2.099976.200001,1.799988-1.200001,0-1.5-.200012-.6.200012-.799999.700012-.6.5.200001.400024.9.400024.9.400024.4,1.700012,0,2.400024,1.299999.299988.5,1.200012.700001,1.599976.1v1.799999c.700012,0,1.400024,0,1.299988-.9l1.200012-.4-.700012-.4h-1.299988v-.9l2.099976.299999c-.099976.700001.099976.9.599976,1.299999l-.299988.700001c-.700012,0-1.299988-.200001-1.799988.4l.299988.700001,2.799988-.6c.799988,1,1.799988.700001,1.599976-.6h1.5c-1.200012,1.4-.5,2,1.200012,1.799999.200012-.9-.099976-1.1-.599976-1.799999h.400024c.799988-.299999.700012-.5,1-1s1-.5,1.299988-1l2.5,1.6-2.099976.700001.599976-.299999-.299988-1.200001c-1,0-1.5,0-2.099976.700001l.599976.6h-.599976c0,.1.299988,1.299999.299988,1.299999.5,0,1.200012.1,1.599976,0,.700012-.200001,0-.799999,1.799988-.299999.900024.299999,1.200012-.700001,1-1.5h1.200012l.299988-.9-.299988,2.200001c-.400024.6-.799988.4-1.299988.4s-1.200012-.299999-1,.4c.299988.5.799988.5,1.299988.4.200012,0,.200012-.6.599976,0l1.900024.299999-.900024-1.200001c.400024,0,1.099976,0,1.200012-.4.200012-.6-.400024-1.6.599976-1.299999-.200012.6.400024,1,.299988,1.299999,0,.1-.5.299999-.299988.9,0,.299999,1.099976.700001.900024,1.299999h1.5l-.299988-1.200001h1.200012l-1-1.200001-.700012-.299999c0-.4,0-.799999.400024-.6.400024.200001,1,1,1.599976.9v2.4h-.599976c0,.9-.299988,1-.700012,1.200001-.200012.1-.5.6-.700012.700001l.299988.700001h.900024c.200012.799999-.700012.5-1,1.200001v-.700001c.099976,0-.700012-1.200001-.700012-1.200001l-.200317.200012ZM136.399902,15.500002c.200012,0,.200012.299999,0,.299999s-.200012-.299999,0-.299999ZM136.699951,28.500004c-.200012,0-.200012-.299999,0-.299999s.200012.299999,0,.299999ZM137.499939,24.600003h-.599976v-.299999h.599976v.299999ZM137.599915,30.900002c-.200012,0-.200012-.299999,0-.299999s.200012.299999,0,.299999ZM138.099915,26.400002h-.299988v-.599998h.299988v.599998ZM137.799927,22.300004v-1.200001c1.599976-.1,1.599976,1.299999,0,1.200001ZM138.999939,20.200003v-.9c.599976,0,1,.299999.900024.9h-.900024ZM140.399902,28.200001h-.599976v-.299999h.599976v.299999ZM140.399902,23.200003h-.599976v-.299999h.599976v.299999ZM140.099915,21.200003h0c0-.1,1.5-.4,1.5-.4,0,.9-1,1.299999-1.5.4ZM141.899902,30.300004h-.599976v-.299999h.599976v.299999ZM142.199951,26.100003h-.599976v-.299999h.599976v.299999ZM142.099915,23.700003c.200012,0,.200012.299999,0,.299999s-.200012-.299999,0-.299999ZM142.499939,21.100003v-.6l1.200012-.299999c.200012.200001-1.099976.9-1.200012.9ZM143.699951,22.300004v.6h-.099976l-.400024-.6h.599976-.099976ZM143.399902,28.200001h-.299988v-.599998h.299988v.599998ZM143.499939,23.700003h-.099976c0-.1.400024-.6.400024-.6h.099976c0,.1-.400024.6-.400024.6ZM143.999939,19.300004l-1.900024-1.200001c-.799988.4,0,1.700001-1,1.5,0-.799999,0-1.6.599976-2.200001l-.900024-1,1,.299999c1.200012-1.1-.299988-2.1-1.5-1.799999v-.9c.700012-.200001,1,.4,1.5.9.5,0,1.400024.299999,1.599976.9h-.900024c0,1-.099976,2.4,1,2.1.900024-.200001,0-1.299999.099976-1.5.5.200001.599976.5,1,0,.599976.299999.299988.700001.400024,1,0,.200001.5.5.299988,1-.799988,0-1.5,0-1.5.9l.200134.000002ZM144.299927,19.900002h.599976v.299999h-.599976v-.299999ZM144.899902,30.300004h-.299988v-.599998h.299988v.599998ZM144.999939,25.200001c-.200012,0-.200012-.299999,0-.299999s.200012.299999,0,.299999ZM145.299927,22.300004h-.400024v-.6h.900024l-.400024.6h-.099976ZM145.899902,27.300004c-.200012,0-.200012-.299999,0-.299999s.200012.299999,0,.299999ZM146.999939,20.800004h-.900024c0-.1.900024-.9.900024-.9v.9ZM147.099915,32.300004c-.200012,0-.200012-.299999,0-.299999s.200012.299999,0,.299999ZM147.099915,22.900002c-.200012,0-.200012-.299999,0-.299999s.200012.299999,0,.299999ZM147.999939,29.700001c-.200012,0-.200012-.299999,0-.299999s.200012.299999,0,.299999ZM148.399902,25.500004h-.599976v-.299999h.599976v.299999ZM148.699951,22.000002h-1.200012l.400024-.9.700012.299999v.6h.099976ZM148.999939,20.200003c.400024.1.5-.200001.900024-.299999v.9c-.400024.200001-1-.5-.900024-.6ZM150.099915,27.900002c-.200012,0-.200012-.299999,0-.299999s.200012.299999,0,.299999ZM150.399902,22.600003c-.299988.200001-.5.700001-1,.6-.200012-.9.400024-.4,1-.9.299988-.299999.5-.700001,1-.6-.099976.5-.599976.6-1,.9ZM151.499939,30.000004c-.200012,0-.200012-.299999,0-.299999s.200012.299999,0,.299999ZM152.099915,23.700003c-.200012,0-.200012-.299999,0-.299999s.200012.299999,0,.299999ZM153.499939,27.600003c-.299988-.299999.299988-.900002.599976-.599998s-.299988.900002-.599976.599998ZM153.599915,23.400002c.200012,0,.200012.299999,0,.299999s-.200012-.299999,0-.299999ZM154.799927,24.600003c-.200012,0-.200012-.299999,0-.299999s.200012.299999,0,.299999ZM155.799927,22.600003h-1.799988v-.299999h1.799988v.299999ZM156.599915,28.800004c-.200012,0-.200012-.299999,0-.299999s.200012.299999,0,.299999ZM156.099915,21.400002v-.299999h.599976v.299999h-.599976ZM156.599915,24.600003c-.200012,0-.200012-.299999,0-.299999s.200012.299999,0,.299999ZM157.199951,27.300004l-.400024-.400002h.099976c0-.099998.400024.299999.400024.299999h-.099976v.100002ZM157.299927,19.600003h-1.299988c-.299988,0-.700012,1.1-1.299988.9v-.9c-1.099976.1-1.799988-1-3-.9v1.200001h.400024l1.299988,1.5-1.200012-.299999v-.9l-1.200012-.299999c0-1.200001-1-.700001-1.599976-.9-.5-.1-.400024-1.6-1.799988-1.200001-.400024.1-.400024.799999-.700012,1l1.200012.700001c-1,0-1.5,0-2.099976-.700001.099976-.200001.799988-.200001.900024-.6.200012-.6-.299988-1.1-.900024-1l.299988-1.5h-1.799988c-.200012-.799999.299988-.9.599976-1.299999.099976-.200001-.299988-.6.599976-.4l-.299988.700001,1.5,1.200001.299988,1.6c.900024.299999.599976-1,1.200012-1.299999h1.5c0-.1-1.200012.9-1.200012.9.299988.5.599976.5,1.200012.4.200012,1.700001,2.200012.799999,1.200012-.6h.900024l.400024,1.5,1.200012-1.200001c.599976.6,1.799988.200001,2.700012.299999l1-1.200001-.400024.9h-.099976c0,.9.299988,1.6.599976,2.4l-.100098-.000002ZM158.099915,23.700003c-.200012,0-.200012-.299999,0-.299999s.200012.299999,0,.299999ZM158.599915,21.700003c-.200012,0-.200012-.299999,0-.299999s.200012.299999,0,.299999ZM159.499939,22.900002c-.200012,0-.200012-.299999,0-.299999s.200012.299999,0,.299999ZM160.699951,28.500004c-.200012,0-.200012-.299999,0-.299999s.200012.299999,0,.299999ZM160.699951,22.000002h-.400024v-.6h.900024l-.400024.6h-.099976ZM161.799927,23.400002v-.6l.599976.6h-.599976ZM163.099915,28.200001c-.200012,0-.200012-.299999,0-.299999s.200012.299999,0,.299999ZM165.299927,23.400002h-.400024l-.400024-.4h0c0-.1.900024-.1.900024-.1v.6l-.099976-.1ZM165.799927,22.300004c-.200012,0-.200012-.299999,0-.299999s.200012.299999,0,.299999ZM166.599915,28.200001c-.200012,0-.200012-.299999,0-.299999s.200012.299999,0,.299999ZM166.799927,23.200003v-.6h.400024l.400024.6h-.900024.099976ZM167.999939,21.100003c-.400024-.1-.5.200001-.900024.299999v-.6h.900024v.300001ZM168.599915,24.300004h-.299988v-.6h.299988v.6ZM168.899902,21.500002h0c0-.1,1.200012-.1,1.200012-.1l-.400024.6h-.299988l-.400024-.4-.099976-.1ZM170.099915,25.800004h-.099976l-.400024-.599998h.599976v.599998h-.099976ZM170.899902,22.900002h-.900024v-.299999c.400024.1.5-.200001.900024-.299999,0,0,0,.6,0,.599998ZM172.299927,23.200003c-.200012,0-.200012-.299999,0-.299999s.200012.299999,0,.299999ZM173.899902,24.300004c-.099976.1-.799988-.5-.599976-.9.099976-.1.799988.5.599976.9ZM175.699951,27.300004h-.900024v-.299999h.900024v.299999ZM174.199951,22.600003v-.299999h.900024v.299999h-.900024ZM176.299927,23.700003h-.299988v-.6h.299988v.6ZM177.799927,24.000002h-.599976v-.299999h.599976v.299999ZM178.299927,23.200003c-.299988-.299999.299988-.9.599976-.6s-.299988.9-.599976.6ZM179.099915,27.000004c-.200012,0-.200012-.299999,0-.299999s.200012.299999,0,.299999ZM180.899902,22.600003c-.200012,0-.200012-.299999,0-.299999s.200012.299999,0,.299999ZM180.299927,19.300004c-1,.700001,0,1.5-.099976,2.4l-1-.9h-.299988c-.200012.4-.400024.299999-.700012.299999-.400024.4-.599976.700001-1.200012.9.099976-.799999-1-1.1-1.200012-1.6-.299988-.6.5-.4.700012-.4.299988,0,.200012-.6.099976-.700001,0-.299999-.700012-.5-1-.4-.5.1-.400024.799999-.400024,1,0,.299999-.799988.5-.599976,1h-1.5l.700012-.9c.299988-.1-.200012-.6-.299988-.6-.599976-.200001-.799988.299999-.900024.299999-.5.1-1-.200001-1.299988.4l.299988.700001h.599976v1.200001c-.700012-.299999-1.400024-1.700001-1.599976-1.799999-.900024-.200001-1.400024.5-2.200012.6v-.9c-.900024-.200001-1,.1-1.5.4-.400024.200001-.799988.1-1.200012.1-.099976-.9.299988-1.299999,1.200012-1.200001l-.400024-.9-1.900024.299999.299988.9h-.599976l.299988,1.5c-.799988-.799999-1.599976-.6-2.700012-.6v-1.200001h-1.5c0,1.1-.900024.9-1.799988.9v.6c-.099976,0-.599976-.700001-.599976-.700001-.200012-.299999.299988-.4.299988-.6.200012-.799999-.900024-1-.599976-1.9.599976.5.900024.700001,1.799988.6v.6h.900024v-.9c.299988,0,.599976,0,.700012-.299999.200012-.4,0-.799999.299988-.9l.700012,1.200001-1.5.4c.700012,1,2,1.200001,2.099976-.1l1.599976.299999,1.200012-.9c.5.799999.900024.5,1.5.6.099976,0,.200012.299999.299988.299999.700012.200001,1.200012-.4,1.900024-.299999l-.599976,1,.400024.700001h1l-.299988-1.299999,1.599976-.700001v.9h1.200012c1.400024-.299999,2.5-.5,3.799988-.299999,1,.200001,2.700012-.200001,3.599976,0,.299988,0,.5.9,1.5.6.200012,0,.400024-.5.599976-.6.799988-.200001,2.5.200001,3.400024,0,0,.700001.400024,1,1,.9l.599976-.4v1.4l-1.400024-.4c.099976.5-.5.700001,0,1,.400024.200001.799988.1,1.200012.1l-.700012.6h-.400024v-.6c-.799988-.4-1.700012-.200001-2.5-.299999,0,0-.299988-.5-.900024-.299999l-1.299988,1.200001c.700012-1.1,0-1.6-.700012-2.4l.000122.099997ZM181.199951,24.900002c-.200012,0-.200012-.299999,0-.299999s.200012.299999,0,.299999ZM181.499939,23.200003c-.200012,0-.200012-.299999,0-.299999s.200012.299999,0,.299999ZM181.899902,26.400002l.599976.599998h-.599976v-.599998Z"/>
</svg>