<?xml version="1.0" encoding="UTF-8"?>
<svg id="Ebene_1" data-name="Ebene 1" xmlns="http://www.w3.org/2000/svg" viewBox="0 0 20.4031 208.304209">
  <defs>
    <style>
      .cls-1 {
        fill: #010101;
      }
    </style>
  </defs>
  <path class="cls-1" d="M19.563123,78.700004c0-.599998-.399994-1.199997-.399994-1.800003-1.100006-14.099998-3-28.099998-5.899994-41.700001-2-9.4-4.399994-18.5-7.700012-27.200001-.700012-1.8-1.899994-5.2-2.600006-6.7-.200012-.4-.600006-.8-1.100006-1-.399994-.2-.899994-.3-1.299988-.3v187.000007c-.700012-.199997-.799988.5,0,1.399994h0v18.399994c.299988.600006.799988.800003,1.299988.899994.299988,0,.600006.100006.899994.199997.200012,0,.399994.399994.700012.399994.799988.100006.700012-1.600006.899994-2.300003,1.700012-5.800003,3.799988-10.5,5.399994-16.600006,2.299988-9.199997,4.600006-18.5,6-27.800003,2.700012-17.699997,4.299988-35.900002,4.600006-54,.200012-9.699997-.399994-19.5-.700012-29h0l-.099976.100037ZM1.763136,6.700007c.200012-.2.399994-.5.700012-.4l.799988,2.4c-.5,0-1-.2-1.5-.5v-1.5ZM16.263136,147.700004c-2.100006,18.100006-5.799988,36-11.799988,52.400009-.5,1.300003-.700012,3.199997-1.5,4.100006.200012-1.300003-.600006-1.699997-1.299988-2.300003v-1.100006c.700012.800003,1.5,2,2.100006.800003,0-.300003-1-1.5-2.100006-2.600006v-1.800003c.799988.899994,1.600006,1.699997,2.100006,1.800003.299988.300003,1,0,.899994-.699997,0-.300003-1.5-1.600006-3-2.899994v-2l2.700012,2.399994c.5.199997.799988-.300003.700012-1,0-.300003-1.700012-1.699997-3.399994-3.100006v-1.800003c1.399994,1.300003,3,2.5,4.200012,4.100006,1.799988-.199997-.799988-2.399994-1.399994-3-.700012-.699997-1.899994-2.100006-2.799988-3.100006v-1.699997c.200012.100006.299988.300003.5.5,1,.899994,3,3.5,3.799988,4,.299988.199997.600006.199997.799988.100006l.200012-.699997c-1.600006-2.100006-3.399994-3.699997-5.299988-5.300003v-1.699997l4.700012,4.399994c.299988.399994,1,0,.899994-.600006,0-.5-2.700012-2.899994-5.600006-5.5v-1.5c.799988.800003,1.700012,1.600006,2.5,2.399994.5.399994,3.200012,2.899994,3.399994,2.899994.299988,0,.700012,0,.700012-.399994,0-.699997-1.899994-2-2.299988-2.399994-1.399994-1.399994-2.799988-2.699997-4.299988-4.100006v-1.699997c.700012.600006,1.299988,1.100006,1.899994,1.600006,1.200012,1,2.299988,2.199997,3.399994,3.300003.200012.300003.600006,0,.700012-.300003.200012-.699997,0-.600006-.299988-.800003-1.299988-1.199997-2.5-2.899994-4-3.399994l-1.700012-1.800003v-2.100006h0c.700012.199997,1.600006,1.5,2.200012,1.699997.5.100006.399994-.300003.299988-.699997-.799988-.800003-1.700012-1.699997-2.5-2.5v-2c1.100006,1.100006,2.700012,2.399994,3.5,2.899994.5.300003.899994.399994,1-.5-1.5-1.300003-3-2.800003-4.5-4.199997v-1.5c2,1.800003,4,3.5,6.200012,4.899994.600006.399994,1.399994,2.300003,2.5,1.899994.899994-.100006-1.399994-2.300003-1.600006-2.5-2.200012-1.5-4.600006-3.5-7-5.699997v-2.5c2.700012,2.399994,5.299988,4.899994,8.100006,7.100006.299988.199997,2,1.699997,1.600006.199997,0-.100006-1.299988-1.5-1.5-1.800003-2.5-2.600006-5.299988-5-8.100006-7.399994v-1.899994c1.700012,1.300003,3.5,2.600006,5.200012,4.100006.600006.5,2.799988,3,3.200012,2.899994l.299988-.699997-8.799988-7.5v-1.899994c2.600006,2.100006,5.299988,4.199997,7.899994,6.399994.399994.300003.799988-.300003.600006-.899994,0-.100006-1.299988-1.300003-1.5-1.5-2.299988-2-4.700012-3.899994-7-5.800003v-2c2.299988,1.899994,4.600006,4.399994,6.799988,5.699997.299988.100006.5.199997.700012.199997.5-1-1-1.399994-1.600006-2-2-1.800003-4-3.5-6-5.100006v-1.800003c2.700012,2,5.399994,3.899994,8,6,.700012.600006,2.600006,2.800003,3.299988,2.899994,2.399994.399994-1.399994-2.399994-1.600006-2.600006-2-1.800003-4-3.800003-6.100006-5.5-1.200012-.899994-2.399994-1.800003-3.600006-2.699997v-2c3.700012,2.800003,7.399994,5.600006,10.899994,8.699997.200012.199997,1,0,.799988-.600006-.200012-.5-3-2.5-3.600006-3-2.700012-2.199997-5.399994-4.399994-8.100006-6.5v-2.300003c1.600006,1.199997,3.200012,2.399994,4.799988,3.600006.700012.5,4,3.5,4.5,3.300003l.299988-.699997c-.899994-1.399994-2.100006-1.899994-3.100006-2.800003-2.100006-1.699997-4.299988-3.300003-6.5-5v-2.300003l5.899994,4.199997.5-1.199997c-2.200012-1.399994-4.299988-3-6.399994-4.5v-5c3.899994,2.699997,7.799988,5.5,11.5,8.5.700012.600006,1.5,2.300003,2.200012.899994-1.200012-1.300003-2.600006-2.399994-3.899994-3.5-3.200012-2.699997-6.5-5.100006-9.799988-7.5v-2.400002c.899994.700005,1.700012,1.200005,1.899994.900002l-.299988-1.199997-1.600006-1.099998v-1.800003c1.600006,1.300003,3.299988,2.599998,3.700012,2.900002,2.700012,1.899994,5.299988,3.300003,7.899994,5.600006.899994.800003,1.899994,2.5,3.100006,2.300003,0-.5-.200012-.699997-.399994-1-1.200012-1.300003-3.200012-2.899994-4.600006-4-3.200012-2.599998-6.399994-4.900002-9.700012-7.099998v-1.699997l3.200012,2.300003v-1.099998c-1.100006-.800003-2.100006-1.699997-3.200012-2.5v-1.199997c1.200012.900002,2.399994,1.699997,3.5,2.300003.5.300003,1,.400002,1-.5,0-.5-3.299988-2.800003-4.399994-3.599998v-1.099998c4.100006,3,8.299988,5.900002,12.299988,9.099998.299988.300003,3.5,3.700005,3.200012,1.599998-.200012-.300003-.399994-.599998-.700012-.900002-4.299988-4.400002-9.899994-7.699997-14.799988-11.199997v-1.599998c.600006.400002,1.100006.900002,1.700012,1.300003.700012.5,6.600006,4.699997,6.899994,4.300003v-1c-1.899994-1.400002-4-2.599998-5.899994-4-.899994-.599998-1.799988-1.300003-2.600006-1.900002v-1.900002c.600006.199997,1.299988.099998,1.700012.400002.200012.099998,1,1.699997,1.299988,1.300003.200012-.400002,0-.800003-.399994-1.099998-.799988-.699997-1.700012-1.5-2.600006-2.199997v-1.599998c.399994.300003.799988.5,1.100006.800003.700012.5,5.399994,3.5,5.700012,3.199997,0-.599998-.5-1.199997-.799988-1.400002-1.299988-1-3.100006-1.900002-4.399994-2.800003-.600006-.400002-1.100006-.800003-1.700012-1.199997v-1.699997c4.100006,2.599998,8.200012,5.099998,12.200012,7.400002.899994.5,1.799988,2.400002,3,1.900002.399994-.5-2-2.099998-2.200012-2.199997-3-2-6.100006-3.800003-9.100006-5.900002-1.299988-.900002-2.700012-1.900002-4-2.800003v-1.900002c2.5,1.900002,5.100006,4.099998,7.700012,5.5.5.300003,1.200012.699997,1.700012.300003-1.700012-2.199997-4.100006-3.300003-6.100006-4.800003-1.100006-.800003-2.200012-1.699997-3.299988-2.5v-2.599998c1.700012,1.199997,3.399994,2.5,5.100006,3.800003,2.799988,2.199997,5.600006,4.900002,8.5,6.900002.700012.5,1.600006,1.400002,2.299988,1-.5-1.199997-1.899994-2.199997-2.799988-2.900002-1.700012-1.400002-5.299988-3.400002-6.600006-4.800003-.299988-.400002-.299988-1-.600006-1.300003-.399994-.400002-1.399994-.599998-1.799988-.900002-1.299988-.900002-2.700012-1.900002-4-3v-2.199997c.700012.5,1.399994,1,2.100006,1.5,2.399994,1.800003,5,4.300003,7.399994,5.800003.299988.199997.600006.400002,1,.300003,0-.699997,0-.900002-.399994-1.300003-1-1.099998-2.899994-1.900002-4-2.800003-1.299988-1-2.600006-2.300003-4-3.400002-.700012-.5-1.399994-1-2-1.5v-1.599998c.399994.300003.700012.599998,1.100006.900002,2.899994,2.199997,6,4,8.899994,6.300003.700012.300003.700012-.599998.299988-1.099998-3.5-2.400002-6.899994-5.199997-10.299988-7.900002v-1.800003c1.899994,1.5,3.799988,3.099998,5.799988,4.5,1.299988.900002,2.799988,1.699997,4.200012,2.300003.299988-.400002-1.299988-1.699997-1.5-1.900002-2.899994-2.300003-5.700012-4.400002-8.5-6.400002v-1.5c2.799988,1.900002,5.700012,3.699997,8.5,5.599998,1.399994,1,2.899994,2,4.200012,3.099998.399994.300003,2.799988,2.5,3,1.300003,0-.5-.299988-.599998-.5-.800003-1.100006-1-2.799988-2.099998-4.100006-3-3.600006-2.5-7.299988-5.599998-11.100006-8.199997v-1.5c2.299988,1.5,4.700012,3.099998,7,4.699997.799988.599998,3.100006,2.699997,3.799988,2.699997.399994,0,.5,0,.799988-.5,0-.5-2.899994-2.199997-3.5-2.599998-2.700012-2-5.299988-4-8.100006-5.900002v-1.800003c3,1.900002,6,3.800003,8.700012,5.599998.299988.199997.299988,1,1.100006.699997,0-1.300003-.899994-1.800003-1.600006-2.400002-2.299988-2-5.399994-3.699997-8.299988-5.300003v-1.599998c.299988.199997.700012.400002,1,.599998.5.300003,2.799988,1.599998,3,1.300003,0-.5,0-.699997-.200012-1.099998-.399994-.699997-2.799988-1.699997-3.799988-2.199997v-1.900002c4.799988,2.699997,9.700012,5.599998,14.299988,8.900002l.899994-.400002c0-.400002-.299988-.800003-.600006-1-2.100006-1.900002-4.899994-3-7.100006-4.400002-2.299988-1.400002-5-3.300003-7.5-4.900002v-1.900002c2.399994,1.5,4.799988,3.099998,7.299988,4.400002,1.399994.699997,3,1.199997,4.299988,2,.399994.300003,2.5,2.599998,2.700012,1.199997-.100006-.900002-1-1.300003-1.600006-1.699997-4.100006-2.800003-8.600006-4.5-12.799988-7.099998v-2.099998c.5.299999,1,.599998,1.399994.900002,1.700012,1.099998,4.399994,3,6.200012,3.699997.5.199997.899994.400002,1.399994.300003.399994-.400002-1.200012-1.599998-1.399994-1.699997-2.5-1.599998-5.100006-2.700001-7.600006-4.5v-2.900002c2.899994,1.700001,5.700012,3.400002,8.799988,5,.700012.400002,4.299988,3.099998,4.700012,2.599998v-.900002c-.100006,0-13.5-8.200001-13.5-8.200001v-1.700001c1.399994.799999,2.799988,1.599998,4.200012,2.299999,1.600006.799999,3.399994,1.400002,5.100006,2.400002,1,.599998,2.200012,1.700001,3.200012,2.400002l.899994-.200001c.5-.900002-2.200012-2-2.399994-2.099998-1.700012-1.099998-2.799988-1.799999-4.5-2.700001-2.200012-1.099998-4.399994-2.400002-6.600006-3.599998v-2.200001c2.899994,1.700001,5.799988,3.599998,8.799988,5.200001,1.200012.599998,2.399994,1.099998,3.600006,1.599998.100006-1.799999-1.100006-1.5-1.799988-1.900002-3.600006-2.099998-7.100006-4.200001-10.700012-6.299999v-1.5l1.299988.700001-.200012-1.299999c-.299988-.200001-.700012-.5-1-.700001v-1.599998c1.700012.799999,3.399994,1.700001,5.100006,2.599998.700012.400002,6.200012,4,6.399994,3.700001v-1.200001c-.799988-.400002-1.799988-.900002-2.600006-1.400002-2.899994-1.900002-6-3.599998-9-5.299999v-2.099998c.5.200001,1,.400002,1.399994.700001,1.100006.599998,2.200012,1.799999,3.5,1.599998l-.399994-1.099998c-1.5-.799999-3-1.599998-4.5-2.299999v-1.799999c.100006,0,.200012.099998.299988.200001.399994.099998.799988,0,1.100006,0l-.200012-1c-.399994-.200001-.799988-.400002-1.299988-.599998v-1.799999c2.700012,1.700001,5.399994,3.299999,8.200012,4.599998.399994.200001.799988.299999,1.200012.299999.5-.700001-1.399994-1.900002-1.799988-2.099998-2.5-1.5-5.100006-2.900002-7.600006-4.400002v-1.5h.799988c-.200012-.299999-.5-.700001-.799988-1v-3.1c1.100006.5,2.200012,1,3.200012,1.5.700012.4,3,2.000002,3.5,2.000002.299988,0,.600006,0,.700012-.5l-.399994-.9-7-3.700001v-2c.299988.1.600006.299999.799988.4.700012.4,5.100006,2.9,5.399994,2.5.200012-2.1-1-1.5-1.799988-1.9-1.399994-.700001-2.899994-1.5-4.399994-2.299999v-1.700001c1.5.799999,3,1.5,4.100006,1.9.299988,0,.5,0,.799988-.1.399994-.700001-1.600006-1.700001-1.899994-1.9-.899994-.6-1.899994-1.1-3-1.6v-1.6c.600006.200001,1.200012.299999,1.700012.6.600006.299999,2.5,2.299999,3,.9l-1.299988-1.200001c-1.200012-.299999-2.299988-1-3.399994-1.799999v-1.6c1.100006.4,2.200012.799999,3.200012,1.1v-.9c-.600006-.3-1.399994-.1-1.799988-.3-.299988-.1-.299988-.6-.5-.8s-.5-.3-.899994-.6v-1.3c.600006.5,1.299988.9,2.100006.7,0-1.4-1.100006-1.7-2.100006-1.8v-1.2c.799988.4,1.600006.5,2-.2.299988,0,1.100006,3,1.299988,3.5,3.899994,9.7,6.399994,20.799998,8.399994,31.7,6.399994,34.000004,6.799988,68.300007,2.799988,102.899998h.399811Z"/>
  <path class="cls-1" d="M6.863111,136.500007c-1.399994-1-2.899994-1.699997-4.200012-2.800003l-.700012.399994c.399994.800003,1.299988.800003,1.700012,1.100006,3.200012,2.800003,6.5,5.699997,9.899994,8.100006.600006.399994,1,1.199997,1.700012,1,0-.600006-.399994-1-.700012-1.300003-1.899994-2-5.600006-4.899994-7.700012-6.5h.000031Z"/>
  <path class="cls-1" d="M16.063123,81.100006q.399994.099998.700012-.300003c0-.599998-1.5-1.599998-1.799988-1.900002-1.799988-1.199997-3.600006-2.300003-5.399994-3.5-.5-.300003-3-2.300003-3.299988-1.800003,0,.5,0,.699997.200012,1,.5.599998,2.200012,1.400002,2.899994,1.900002,1.399994,1,2.700012,1.800003,4.100006,2.699997.700012.5,1.899994,1.699997,2.600006,2l-.000061-.099991Z"/>
  <path class="cls-1" d="M9.763136,35.400009c-.700012-.599998-3.100006-1.900002-3.899994-2.299999-.299988-.099998-2.299988-.900002-2.399994-.700001-.200012,1,.399994,1.200001.899994,1.5.799988.5,4.200012,2.5,4.899994,2.700001.799988.200001,1.200012-.5.399994-1.200001h.100006Z"/>
  <path class="cls-1" d="M10.763136,51.600006c-.700012-.5-2.5-1.099998-3.299988-1.599998-1.100006-.599998-2.200012-2.200001-3.600006-2-.5.700001,1.399994,2,1.799988,2.099998,1,.5,1.899994,1.099998,2.899994,1.599998.799988.400002,2,.599998,2.799988,1,0,0-.399994-1.099998-.600006-1.200001h0l.000031.100002Z"/>
  <path class="cls-1" d="M11.863111,80.900009c0,.5,0,.699997.200012,1,.700012.699997,2.600006,1.699997,3.5,2.300003.600006.400002,1,1.400002,1.899994,1.099998,0-.699997,0-.800003-.299988-1.099998-.700012-.699997-3.399994-2.699997-4.200012-3.099998-.299988-.199997-.600006-.300003-1-.199997l-.100006-.000008Z"/>
  <path class="cls-1" d="M12.263136,45.800007c-1.5-.799999-3-1.799999-4.5-2.700001-.799988-.400002-.799988.799999,0,1.5.799988,0,4,2.700001,4.399994,2.5.100006,0,.399994-.5.299988-.700001l-.200012-.599998h.000031Z"/>
  <path class="cls-1" d="M7.563123,111.500007c-.5-.300003-1-1.5-1.5-.099998l4.899994,3.699997c.200012.300003.600006,0,.600006-.300003.100006-1-3.399994-2.900002-4.100006-3.300003h0l.100006.000008Z"/>
  <path class="cls-1" d="M11.163129,43.000007c.399994-.5-1.899994-2.099998-2.100006-2.200001-.299988-.200001-2.799988-1.200001-2.799988-.299999,0,.5,4.700012,2.799999,4.899994,2.5h0Z"/>
  <path class="cls-1" d="M4.563123,174.800011c0,.5,0,.699997.200012,1s2.899994,2.5,3.200012,2.699997c.299988.199997.600006,0,.600006-.300003.100006-.800003-3.600006-4-4.100006-3.399994h.099976Z"/>
  <path class="cls-1" d="M11.163129,66.400009c.299988,0,.600006.199997.899994.400002.5.400002,2.899994,2.400002,3.100006,2.5.299988,0,.5-.5.700012-.699997l-4.399994-3.099998-.399994.900002.099976-.000008Z"/>
  <path class="cls-1" d="M12.463117,98.400009c0,.699997,0,.900002.399994,1.300003.299988.300003,2.5,2.099998,2.799988,2.300003.299988.199997.600006.300003,1,.199997,0-.699997,0-.800003-.299988-1.099998-.299988-.300003-3.799988-2.900002-3.899994-2.699997v-.000008Z"/>
  <path class="cls-1" d="M13.363111,92.200004v.800003c1.200012.300003,2.600006,2.300003,3.600006,2.599998.299988,0,.399994-.400002.600006-.599998,0-.5-4-3.199997-4.299988-2.800003h.099976Z"/>
  <path class="cls-1" d="M13.363111,116.200004c0,.599998.200012.699997.5.900002.5.400002,3.299988,2.699997,3.600006,2.300003v-1.099998c-1.5-.300003-2.5-2.400002-4.100006-2.100006Z"/>
  <path class="cls-1" d="M4.063123,128.000007v.800003c.100006.300003,3.299988,2.199997,3.799988,2.399994.799988-1.100006-3.5-3.699997-3.899994-3.300003l.100006.100006Z"/>
  <path class="cls-1" d="M10.763136,132.900001c-.799988-.699997-1.299988-1.899994-2.399994-1.600006,0,.600006.200012.699997.399994,1,.399994.5,3.399994,2.899994,3.600006,2.5.200012-1.399994-1.200012-1.5-1.700012-2l.100006.100006Z"/>
  <path class="cls-1" d="M13.963117,120.000007c0,.5,0,.699997.200012,1,.299988.400002,2.700012,2.300003,3,1.900002.299988-1.300003-2.899994-3.400002-3.200012-3v.099998Z"/>
  <path class="cls-1" d="M12.463117,148.000007c-1.100006-.399994-.299988,1,.200012,1.5.200012.199997,1.299988,1.199997,1.299988,1.300003.299988.199997.700012,0,1,0,.600006-.800003-2.100006-2.699997-2.600006-2.800003h.100006Z"/>
  <path class="cls-1" d="M14.163129,95.900009c-.600006-.400002-.899994.300003-.200012,1.099998.399994.400002,2.299988,2.400002,2.700012,1.699997.5-.800003-2.200012-2.599998-2.600006-2.800003h0l.100006.000008Z"/>
  <path class="cls-1" d="M17.163129,114.600006c-.399994-.400002-2.399994-1.800003-2.700012-1.400002-.399994.5,2,2.5,2.299988,2.599998.600006.199997,1.100006-.699997.399994-1.199997h.000031Z"/>
  <path class="cls-1" d="M3.463117,39.200008c.899994.200001,1.799988,1.700001,2.600006.400002,0-.299999-2.399994-1.799999-2.600006-.400002Z"/>
  <path class="cls-1" d="M9.663129,110.400009c0,.199997,1.600006,1.699997,1.799988,1.599998,1.299988-.400002-1.799988-3.099998-1.799988-1.599998Z"/>
  <path class="cls-1" d="M4.263136,31.200008c.299988-.4-1.5-2.299999-1.899994-1,.5.900002,1.100006,1.200001,1.899994,1Z"/>
  <path class="cls-1" d="M13.363111,134.800011c0,1,.600006,1.899994,1.299988,1.800003,0-1-.600006-1.899994-1.299988-1.800003Z"/>
</svg>