<?xml version="1.0" encoding="UTF-8"?>
<svg id="Ebene_1" data-name="Ebene 1" xmlns="http://www.w3.org/2000/svg"
  viewBox="0 0 39.360135 208.304202"
  height="100px">
  <defs>
    <style>
      .cls-1 {
        fill: #010101;
      }
    </style>
  </defs>
  <path class="cls-1"
    d="M38.005267,78.700004c0-.599998-.700012-1.199997-.799988-1.800003-2.200012-14.099998-5.799988-28.099998-11.299988-41.700001-3.799988-9.4-8.5-18.5-14.900024-27.200001-1.299988-1.8-3.599976-5.2-5.099976-6.7-.400024-.4-1.200012-.8-2.200012-1-.799988-.2-1.700012-.3-2.599976-.3v187c-1.299988-.199997-1.599976.5-.099976,1.399994h.099976v18.399994c.700012.600006,1.599976.800003,2.599976.899994.599976,0,1.200012.100006,1.700012.199997.5,0,.900024.399994,1.299988.399994,1.599976.100006,1.299988-1.600006,1.700012-2.300003,3.200012-5.800003,7.400024-10.5,10.299988-16.600006,4.5-9.199997,8.799988-18.5,11.599976-27.800003,5.200012-17.699997,8.400024-35.900002,9-54,.299988-9.699997-.700012-19.5-1.299988-29v.100044ZM3.705218,6.700006c.400024-.2.799988-.5,1.400024-.4l1.5,2.400001c-1,0-1.900024-.2-2.799988-.5v-1.5h-.100037ZM31.805255,147.700012c-4,18.100006-11.299988,36-22.799988,52.399994-.900024,1.300003-1.299988,3.199997-2.799988,4.100006.299988-1.300003-1.200012-1.699997-2.400024-2.300003v-1.100006c1.299988.800003,3,2,4.099976.800003,0-.300003-2-1.5-4.099976-2.600006v-1.800003c1.599976.899994,3.200012,1.699997,4,1.800003.700012.300003,1.900024,0,1.799988-.699997,0-.300003-2.799988-1.600006-5.700012-2.899994v-2l5.200012,2.399994c.900024.199997,1.599976-.300003,1.299988-1-.099976-.300003-3.200012-1.699997-6.5-3.100006v-1.800003c2.700012,1.300003,5.799988,2.5,8.099976,4.100006,3.400024-.199997-1.5-2.399994-2.599976-3-1.299988-.699997-3.599976-2.100006-5.5-3.100006v-1.699997c.299988.100006.700012.300003,1,.5,1.900024.899994,5.799988,3.5,7.299988,4,.5.199997,1.099976.199997,1.599976.100006l.299988-.699997c-3-2.100006-6.599976-3.699997-10.200012-5.300003v-1.699997l9.099976,4.399994c.599976.399994,1.799988,0,1.700012-.600006-.200012-.5-5.200012-2.899994-10.700012-5.5v-1.5c1.599976.800003,3.200012,1.600006,4.799988,2.399994.900024.399994,6.200012,2.899994,6.599976,2.899994.5,0,1.299988,0,1.400024-.399994,0-.699997-3.700012-2-4.5-2.399994-2.700012-1.399994-5.5-2.699997-8.299988-4.100006v-1.699997c1.299988.600006,2.599976,1.100006,3.599976,1.600006,2.200012,1,4.400024,2.199997,6.599976,3.300003.5.300003,1.099976,0,1.299988-.300003.400024-.699997,0-.600006-.5-.800003-2.599976-1.199997-4.799988-2.899994-7.700012-3.399994l-3.299988-1.800003v-2.100006h0c1.299988.199997,3.099976,1.5,4.299988,1.699997.900024.100006.700012-.300003.599976-.699997-1.599976-.800003-3.200012-1.699997-4.900024-2.5v-2c2.200012,1.100006,5.200012,2.399994,6.700012,2.899994,1,.300003,1.700012.399994,1.900024-.5-3-1.300003-5.799988-2.800003-8.599976-4.199997v-1.5c3.900024,1.800003,7.799988,3.5,11.900024,4.899994,1.200012.399994,2.700012,2.300003,4.799988,1.899994,1.700012-.100006-2.599976-2.300003-3.099976-2.5-4.299988-1.5-8.900024-3.5-13.599976-5.699997v-2.5c5.099976,2.399994,10.200012,4.899994,15.599976,7.100006.5.199997,4,1.699997,3,.199997,0-.100006-2.5-1.5-2.900024-1.800003-4.799988-2.600006-10.200012-5-15.700012-7.399994v-1.899994c3.299988,1.300003,6.700012,2.600006,10,4.100006,1.099976.5,5.400024,3,6.299988,2.899994l.599976-.699997-16.900024-7.5v-1.899994c5.099976,2.100006,10.200012,4.199997,15.200012,6.399994.799988.300003,1.5-.300003,1.200012-.899994,0-.100006-2.400024-1.300003-2.900024-1.5-4.5-2-9-3.899994-13.599976-5.800003v-2c4.5,1.899994,8.900024,4.399994,13.200012,5.699997.5.100006.900024.199997,1.400024.199997,1-1-1.900024-1.399994-3.099976-2-3.799988-1.800003-7.700012-3.5-11.599976-5.100006v-1.800003c5.200012,2,10.400024,3.899994,15.400024,6,1.400024.600006,5,2.800003,6.299988,2.899994,4.599976.399994-2.599976-2.399994-3.099976-2.600006-3.900024-1.800003-7.700012-3.800003-11.799988-5.5-2.299988-.899994-4.599976-1.800003-6.900024-2.699997v-2c7.200012,2.800003,14.200012,5.600006,21.099976,8.699997.400024.199997,2,0,1.599976-.600006-.400024-.5-5.799988-2.5-7-3-5.200012-2.199997-10.400024-4.399994-15.700012-6.5v-2.300003c3.099976,1.199997,6.200012,2.399994,9.299988,3.600006,1.400024.5,7.799988,3.5,8.599976,3.300003l.599976-.699997c-1.700012-1.399994-4.099976-1.899994-6.099976-2.800003-4.099976-1.699997-8.299988-3.300003-12.5-5v-2.300003l11.400024,4.199997,1-1.199997c-4.200012-1.399994-8.299988-3-12.400024-4.5v-5c7.5,2.699997,15,5.5,22.299988,8.5,1.400024.600006,3,2.300003,4.200012.899994-2.400024-1.300003-5-2.399994-7.5-3.5-6.200012-2.699997-12.599976-5.100006-19-7.5v-2.400002c1.700012.700005,3.200012,1.200005,3.700012.900002l-.599976-1.199997-3.099976-1.099998v-1.800003c3.200012,1.300003,6.299988,2.599998,7.099976,2.900002,5.200012,1.899994,10.099976,3.300003,15.299988,5.600006,1.799988.800003,3.599976,2.5,6.099976,2.300003.099976-.5-.400024-.699997-.799988-1-2.299988-1.300003-6.299988-2.899994-8.900024-4-6.099976-2.599998-12.400024-4.900002-18.799988-7.099998v-1.699997l6.200012,2.300003v-1.099998c-2.099976-.800003-4.099976-1.699997-6.200012-2.5v-1.199997c2.299988.900002,4.599976,1.699997,6.700012,2.300003.900024.300003,2,.400002,1.900024-.5,0-.5-6.400024-2.800003-8.599976-3.599998v-1.099998c7.900024,3,16,5.900002,23.700012,9.099998.599976.300003,6.700012,3.700005,6.099976,1.599998-.400024-.300003-.799988-.599998-1.299988-.900002-8.299988-4.400002-19.200012-7.699997-28.5-11.199997v-1.599998c1.099976.400002,2.200012.900002,3.299988,1.300003,1.400024.5,12.799988,4.699997,13.299988,4.300003v-1c-3.700012-1.400002-7.700012-2.599998-11.5-4-1.700012-.599998-3.400024-1.300003-5.099976-1.900002v-1.900002c1.200012.199997,2.400024.099998,3.299988.400002.5.099998,2,1.699997,2.5,1.300003.5-.400002-.200012-.800003-.700012-1.099998-1.5-.699997-3.200012-1.5-5-2.199997v-1.599998c.700012.300003,1.5.5,2.200012.800003,1.299988.5,10.5,3.5,11,3.199997,0-.599998-.900024-1.199997-1.5-1.400002-2.400024-1-5.900024-1.900002-8.400024-2.800003-1.099976-.400002-2.200012-.800003-3.200012-1.199997v-1.699997c7.799988,2.599998,15.799988,5.099998,23.5,7.400002,1.599976.5,3.400024,2.400002,5.799988,1.900002.700012-.5-3.799988-2.099998-4.200012-2.199997-5.700012-2-11.799988-3.800003-17.5-5.900002-2.599976-.900002-5.099976-1.900002-7.700012-2.800003v-1.900002c4.799988,1.900002,9.799988,4.099998,14.900024,5.5,1,.300003,2.299988.699997,3.299988.300003-3.299988-2.199997-7.900024-3.300003-11.900024-4.800003-2.099976-.800003-4.200012-1.699997-6.299988-2.5v-2.599998c3.299988,1.199997,6.5,2.5,9.799988,3.800003,5.5,2.199997,10.799988,4.900002,16.400024,6.900002,1.299988.5,3,1.400002,4.400024,1-1-1.199997-3.700012-2.199997-5.400024-2.900002-3.299988-1.400002-10.200012-3.400002-12.799988-4.800003-.599976-.400002-.5-1-1.099976-1.300003-.799988-.400002-2.599976-.599998-3.5-.900002-2.599976-.900002-5.200012-1.900002-7.700012-3v-2.199997c1.400024.5,2.700012,1,4,1.5,4.599976,1.800003,9.700012,4.300003,14.299988,5.800003.700012.199997,1.099976.400002,1.900024.300003.099976-.699997-.099976-.900002-.799988-1.300003-1.900024-1.099998-5.599976-1.900002-7.700012-2.800003-2.599976-1-5.099976-2.300003-7.700012-3.400002-1.299988-.5-2.599976-1-4-1.5v-1.599998c.700012.300003,1.400024.599998,2.200012.900002,5.700012,2.199997,11.700012,4,17.200012,6.300003,1.299988.300003,1.400024-.599998.599976-1.099998-6.799988-2.400002-13.400024-5.199997-19.900024-7.900002v-1.800003c3.700012,1.5,7.400024,3.099998,11.299988,4.5,2.5.900002,5.5,1.699997,8.200012,2.300003.599976-.400002-2.5-1.699997-2.900024-1.900002-5.5-2.300003-11-4.400002-16.5-6.400002v-1.5c5.5,1.900002,11,3.699997,16.400024,5.599998,2.799988,1,5.700012,2,8.099976,3.099998.700012.300003,5.400024,2.5,5.700012,1.300003.099976-.5-.5-.599998-.900024-.800003-2.200012-1-5.5-2.099998-7.900024-3-6.900024-2.5-14.200012-5.599998-21.400024-8.199997v-1.5c4.5,1.5,9,3.099998,13.5,4.699997,1.599976.599998,6,2.699997,7.400024,2.699997.700012,0,1,0,1.5-.5,0-.5-5.700012-2.199997-6.799988-2.599998-5.200012-2-10.299988-4-15.5-5.900002v-1.800003c5.799988,1.900002,11.599976,3.800003,16.799988,5.599998.700012.199997.5,1,2.200012.699997,0-1.300003-1.700012-1.800003-3-2.400002-4.400024-2-10.400024-3.699997-16-5.300003v-1.599998c.700012.199997,1.299988.400002,1.900024.599998.900024.300003,5.400024,1.599998,5.900024,1.300003,0-.5,0-.699997-.400024-1.099998-.700012-.699997-5.400024-1.699997-7.400024-2.199997v-1.900002c9.299988,2.699997,18.700012,5.599998,27.599976,8.900002l1.799988-.400002c.099976-.400002-.700012-.800003-1.099976-1-4-1.900002-9.400024-3-13.799988-4.400002-4.5-1.400002-9.599976-3.300003-14.5-4.900002v-1.900002c4.599976,1.5,9.200012,3.099998,14,4.400002,2.599976.699997,5.799988,1.199997,8.400024,2,.799988.300003,4.900024,2.599998,5.299988,1.199997-.299988-.900002-2-1.300003-3-1.699997-7.900024-2.800003-16.599976-4.5-24.700012-7.099998v-2.099998c.900024.299999,1.799988.599998,2.799988.900002,3.400024,1.099998,8.599976,3,11.900024,3.699997.900024.199997,1.700012.400002,2.700012.300003.700012-.400002-2.400024-1.599998-2.700012-1.699997-4.799988-1.599998-9.900024-2.700001-14.599976-4.5v-2.900002c5.599976,1.700001,11.099976,3.400002,17,5,1.299988.400002,8.299988,3.099998,9,2.599998l-.299988-.900002-25.799988-8.200001v-1.700001c2.700012.799999,5.400024,1.599998,8.200012,2.299999,3.099976.799999,6.5,1.400002,9.799988,2.400002,2,.599998,4.299988,1.700001,6.200012,2.400002l1.799988-.200001c1-.900002-4.200012-2-4.700012-2.099998-3.299988-1.099998-5.400024-1.799999-8.700012-2.700001-4.200012-1.099998-8.400024-2.400002-12.700012-3.599998v-2.200001c5.599976,1.700001,11.200012,3.599998,16.900024,5.200001,2.299988.599998,4.700012,1.099998,7,1.599998.200012-1.799999-2.099976-1.5-3.400024-1.900002-6.900024-2.099998-13.599976-4.200001-20.599976-6.299999v-1.5l2.400024.700001-.400024-1.299999c-.700012-.200001-1.299988-.5-2-.700001v-1.599998c3.299988.799999,6.599976,1.700001,9.900024,2.599998,1.400024.400002,12,4,12.400024,3.700001v-1.200001c-1.599976-.400002-3.5-.900002-4.900024-1.400002-5.599976-1.900002-11.5-3.599998-17.400024-5.299999v-2.099998c.900024.200001,1.799988.400002,2.799988.700001,2.200012.599998,4.200012,1.799999,6.700012,1.599998l-.700012-1.099998c-2.900024-.799999-5.799988-1.599998-8.799988-2.299999v-1.799999c.200012,0,.5.099998.700012.200001.700012.099998,1.5,0,2.200012,0l-.400024-1c-.799988-.200001-1.599976-.400002-2.400024-.599998v-1.799999c5.200012,1.700001,10.5,3.299999,15.900024,4.599998.700012.200001,1.5.299999,2.200012.299999,1-.700001-2.700012-1.900002-3.400024-2.099998-4.799988-1.5-9.799988-2.900002-14.700012-4.400002v-1.5h1.599976c-.400024-.299999-1-.700001-1.599976-1v-3.1c2.099976.5,4.200012,1,6.299988,1.5,1.400024.4,5.799988,2.000002,6.700012,2.000002.700012,0,1.099976,0,1.400024-.5l-.900024-.9-13.599976-3.700001v-2c.5.1,1.099976.299999,1.599976.4,1.400024.4,9.799988,2.9,10.400024,2.5.400024-2.1-1.900024-1.5-3.400024-1.9-2.799988-.700001-5.700012-1.5-8.5-2.299999v-1.700001c2.900024.799999,5.799988,1.5,7.900024,1.9.599976,0,1,0,1.599976-.1.700012-.700001-3.099976-1.700001-3.700012-1.9-1.799988-.6-3.799988-1.1-5.700012-1.6v-1.6c1.200012.200001,2.299988.299999,3.299988.6,1.099976.299999,4.900024,2.299999,5.799988.9l-2.5-1.200001c-2.400024-.299999-4.5-1-6.599976-1.799999v-1.6c2.099976.4,4.200012.799999,6.200012,1.1l-.299988-.9c-.900024-.3-2.400024-.1-3.200012-.3-.5-.1-.5-.6-1-.8-.400024-.2-1-.3-1.700012-.6v-1.3c1.200012.5,2.599976.9,4.099976.7.099976-1.4-2.099976-1.7-4.099976-1.8v-1.2c1.599976.4,3.099976.5,3.900024-.2.5,0,2.099976,3,2.5,3.5,7.599976,9.7,12.299988,20.799998,16.200012,31.7,12.299988,34.000004,13.099976,68.300007,5.5,102.899998h0l-.39978.000015Z" />
  <path class="cls-1"
    d="M13.605242,136.5c-2.700012-1-5.5-1.699997-8.099976-2.800003l-1.400024.399994c.700012.800003,2.5.800003,3.200012,1.100006,6.099976,2.800003,12.599976,5.699997,19.099976,8.100006,1.099976.399994,1.799988,1.199997,3.400024,1,.099976-.600006-.700012-1-1.299988-1.300003-3.599976-2-10.700012-4.899994-14.900024-6.5h0Z" />
  <path class="cls-1"
    d="M31.40523,81.100006c.700012.099998.799988.099998,1.299988-.300003.200012-.599998-2.799988-1.599998-3.599976-1.900002-3.400024-1.199997-7-2.300003-10.400024-3.5-1-.300003-5.700012-2.300003-6.400024-1.800003,0,.5,0,.699997.400024,1,.900024.599998,4.299988,1.400002,5.700012,1.900002,2.700012,1,5.200012,1.800003,7.900024,2.699997,1.400024.5,3.599976,1.699997,5.099976,2v-.099991Z" />
  <path class="cls-1"
    d="M19.105242,35.400005c-1.299988-.599998-5.900024-1.900002-7.599976-2.299999-.599976-.099998-4.400024-.900002-4.5-.700001-.299988,1,.799988,1.200001,1.799988,1.5,1.5.5,8.099976,2.5,9.5,2.700001,1.599976.200001,2.400024-.5.900024-1.200001h-.100037Z" />
  <path class="cls-1"
    d="M21.205218,51.600006c-1.299988-.5-4.700012-1.099998-6.400024-1.599998-2.099976-.599998-4.299988-2.200001-6.900024-2-1.099976.700001,2.799988,2,3.400024,2.099998,1.900024.5,3.700012,1.099998,5.599976,1.599998,1.599976.400002,3.799988.599998,5.5,1,0,0-.799988-1.099998-1.099976-1.200001l-.099976.100002Z" />
  <path class="cls-1"
    d="M23.105242,80.900009c0,.5-.099976.699997.400024,1,1.299988.699997,5,1.699997,6.700012,2.300003,1.200012.400002,1.900024,1.400002,3.599976,1.099998.099976-.699997,0-.800003-.700012-1.099998-1.299988-.699997-6.599976-2.699997-8.099976-3.099998-.700012-.199997-1.200012-.300003-2-.199997l.099976-.000008Z" />
  <path class="cls-1"
    d="M24.005267,45.800007c-3-.799999-5.799988-1.799999-8.700012-2.700001-1.5-.400002-1.599976.799999,0,1.5,1.599976,0,7.599976,2.700001,8.400024,2.5.299988,0,.799988-.5.599976-.700001l-.400024-.599998h.100037Z" />
  <path class="cls-1"
    d="M14.90523,111.500007c-.900024-.300003-1.799988-1.5-2.900024-.099998l9.5,3.699997c.400024.300003,1.200012,0,1.200012-.300003.299988-1-6.599976-2.900002-7.799988-3.299995Z" />
  <path class="cls-1"
    d="M21.90523,43.000007c.799988-.5-3.700012-2.099998-4.099976-2.200001-.599976-.200001-5.400024-1.200001-5.400024-.299999,0,.5,9.099976,2.799999,9.5,2.5Z" />
  <path class="cls-1"
    d="M9.105242,174.800003c0,.5-.099976.699997.400024,1,.400024.300003,5.5,2.5,6.200012,2.699997.599976.199997,1.099976,0,1.200012-.300003.200012-.800003-7-4-7.900024-3.399994h.099976Z" />
  <path class="cls-1"
    d="M21.90523,66.400009c.599976,0,1.200012.199997,1.700012.400002.900024.400002,5.599976,2.400002,6.099976,2.5.599976,0,1-.5,1.400024-.699997l-8.400024-3.099998-.700012.900002h0l-.099976-.000008Z" />
  <path class="cls-1"
    d="M24.40523,98.400009c-.099976.699997.200012.900002.799988,1.300003.599976.300003,4.700012,2.099998,5.5,2.300003.700012.199997,1.200012.300003,2,.199997.099976-.699997,0-.800003-.700012-1.099998-.599976-.300003-7.299988-2.900002-7.599976-2.699997v-.000008Z" />
  <path class="cls-1"
    d="M26.005267,92.200004v.800003c2.200012.300003,5.099976,2.300003,7,2.599998.599976,0,.900024-.400002,1.299988-.599998,0-.5-7.700012-3.199997-8.299988-2.800003Z" />
  <path class="cls-1"
    d="M26.005267,116.200004c-.200012.599998.400024.699997,1,.900002.900024.400002,6.299988,2.699997,6.900024,2.300003v-1.099998c-2.799988-.300003-4.900024-2.400002-7.900024-2.100006Z" />
  <path class="cls-1"
    d="M8.205218,128c0,.300003-.099976.699997,0,.800003.299988.300003,6.400024,2.199997,7.400024,2.399994,1.5-1.100006-6.799988-3.699997-7.400024-3.300003h0v.100006Z" />
  <path class="cls-1"
    d="M21.105242,132.900009c-1.5-.699997-2.5-1.899994-4.599976-1.600006-.200012.600006.400024.699997.900024,1,.700012.5,6.5,2.899994,7,2.5.400024-1.399994-2.299988-1.5-3.299988-2l-.000061.100006Z" />
  <path class="cls-1"
    d="M27.305255,120.000007c0,.5-.099976.699997.400024,1,.599976.400002,5.200012,2.300003,5.799988,1.900002.599976-1.300003-5.599976-3.400002-6.200012-3v.099998Z" />
  <path class="cls-1"
    d="M24.40523,148c-2.200012-.399994-.599976,1,.400024,1.5.400024.199997,2.400024,1.199997,2.599976,1.300003.599976.199997,1.299988,0,2,0,1.200012-.800003-4-2.699997-5-2.800003Z" />
  <path class="cls-1"
    d="M27.705218,95.900009c-1.200012-.400002-1.700012.300003-.299988,1.099998.799988.400002,4.5,2.400002,5.299988,1.699997.900024-.800003-4.200012-2.599998-5-2.799995Z" />
  <path class="cls-1"
    d="M33.40523,114.600006c-.799988-.400002-4.599976-1.800003-5.299988-1.400002-.799988.5,3.900024,2.5,4.400024,2.599998,1.200012.199997,2.099976-.699997.799988-1.199997h.099976Z" />
  <path class="cls-1"
    d="M7.005267,39.200004c1.599976.200001,3.400024,1.700001,5,.400002,0-.299999-4.599976-1.799999-5-.400002Z" />
  <path class="cls-1"
    d="M19.005267,110.400009c0,.199997,3.200012,1.699997,3.5,1.599998,2.599976-.400002-3.5-3.099998-3.5-1.599998Z" />
  <path class="cls-1"
    d="M8.705218,31.200004c.700012-.4-2.900024-2.299999-3.700012-1,1,.9,2.200012,1.200001,3.700012,1Z" />
  <path class="cls-1"
    d="M26.005267,134.800003c-.200012,1,1.099976,1.899994,2.5,1.800003.200012-1-1.099976-1.899994-2.5-1.800003Z" />
</svg>